<svg version="1.1" viewBox="0.0 0.0 960.0 540.0" fill="none" stroke="none" stroke-linecap="square" stroke-miterlimit="10" xmlns:xlink="http://www.w3.org/1999/xlink" xmlns="http://www.w3.org/2000/svg"><clipPath id="p.0"><path d="m0 0l960.0 0l0 540.0l-960.0 0l0 -540.0z" clip-rule="nonzero"/></clipPath><g clip-path="url(#p.0)"><path fill="#ffffff" d="m0 0l960.0 0l0 540.0l-960.0 0z" fill-rule="evenodd"/><path fill="#d9ead3" d="m123.18372 158.78757l0 0c0 -4.5053406 3.6523056 -8.157639 8.157646 -8.157639l98.424866 0c2.1635437 0 4.2384796 0.8594513 5.768326 2.3893127c1.5298615 1.5298462 2.389328 3.604782 2.389328 5.768326l0 32.629593c0 4.5053406 -3.6523132 8.157639 -8.157654 8.157639l-98.424866 0c-4.5053406 0 -8.157646 -3.652298 -8.157646 -8.157639z" fill-rule="evenodd"/><path stroke="#595959" stroke-width="2.0" stroke-linejoin="round" stroke-linecap="butt" d="m123.18372 158.78757l0 0c0 -4.5053406 3.6523056 -8.157639 8.157646 -8.157639l98.424866 0c2.1635437 0 4.2384796 0.8594513 5.768326 2.3893127c1.5298615 1.5298462 2.389328 3.604782 2.389328 5.768326l0 32.629593c0 4.5053406 -3.6523132 8.157639 -8.157654 8.157639l-98.424866 0c-4.5053406 0 -8.157646 -3.652298 -8.157646 -8.157639z" fill-rule="evenodd"/><path fill="#000000" d="m164.98947 162.57423l0 9.328125l-0.8125 0l-6.0 -7.578125l0 7.578125l-0.984375 0l0 -9.328125l0.8125 0l6.015625 7.5625l0 -7.5625l0.96875 0zm5.288849 2.265625q1.375 0 2.109375 0.6875q0.734375 0.6875 0.734375 2.03125l0 4.34375l-0.90625 0l0 -1.09375q-0.3125 0.546875 -0.9375 0.859375q-0.625 0.296875 -1.46875 0.296875q-1.171875 0 -1.875 -0.546875q-0.6875 -0.5625 -0.6875 -1.484375q0 -0.890625 0.640625 -1.4375q0.65625 -0.546875 2.0625 -0.546875l2.234375 0l0 -0.4375q0 -0.90625 -0.515625 -1.375q-0.5 -0.46875 -1.484375 -0.46875q-0.65625 0 -1.28125 0.21875q-0.609375 0.21875 -1.046875 0.609375l-0.421875 -0.71875q0.53125 -0.453125 1.28125 -0.6875q0.75 -0.25 1.5625 -0.25zm-0.328125 6.375q0.796875 0 1.375 -0.359375q0.578125 -0.359375 0.859375 -1.0625l0 -1.140625l-2.203125 0q-1.796875 0 -1.796875 1.25q0 0.609375 0.453125 0.96875q0.46875 0.34375 1.3125 0.34375zm9.441696 0.265625q-0.265625 0.234375 -0.671875 0.359375q-0.390625 0.125 -0.8125 0.125q-0.984375 0 -1.515625 -0.53125q-0.53125 -0.53125 -0.53125 -1.5l0 -4.234375l-1.25 0l0 -0.8125l1.25 0l0 -1.53125l0.9375 0l0 1.53125l2.140625 0l0 0.8125l-2.140625 0l0 4.171875q0 0.625 0.3125 0.953125q0.3125 0.328125 0.90625 0.328125q0.296875 0 0.5625 -0.09375q0.28125 -0.09375 0.46875 -0.265625l0.34375 0.6875zm8.036194 -6.59375l0 7.015625l-0.90625 0l0 -1.28125q-0.375 0.640625 -1.03125 1.0q-0.65625 0.34375 -1.484375 0.34375q-1.375 0 -2.171875 -0.765625q-0.796875 -0.765625 -0.796875 -2.25l0 -4.0625l0.953125 0l0 3.984375q0 1.09375 0.546875 1.671875q0.546875 0.578125 1.5625 0.578125q1.09375 0 1.734375 -0.671875q0.640625 -0.671875 0.640625 -1.875l0 -3.6875l0.953125 0zm3.5479126 1.375q0.34375 -0.703125 1.0 -1.0625q0.65625 -0.359375 1.625 -0.359375l0 0.921875l-0.21875 -0.015625q-1.109375 0 -1.734375 0.6875q-0.625 0.671875 -0.625 1.890625l0 3.578125l-0.953125 0l0 -7.015625l0.90625 0l0 1.375zm6.7714386 -1.421875q1.375 0 2.109375 0.6875q0.734375 0.6875 0.734375 2.03125l0 4.34375l-0.90625 0l0 -1.09375q-0.3125 0.546875 -0.9375 0.859375q-0.625 0.296875 -1.46875 0.296875q-1.171875 0 -1.875 -0.546875q-0.6875 -0.5625 -0.6875 -1.484375q0 -0.890625 0.640625 -1.4375q0.65625 -0.546875 2.0625 -0.546875l2.234375 0l0 -0.4375q0 -0.90625 -0.515625 -1.375q-0.5 -0.46875 -1.484375 -0.46875q-0.65625 0 -1.28125 0.21875q-0.609375 0.21875 -1.046875 0.609375l-0.421875 -0.71875q0.53125 -0.453125 1.28125 -0.6875q0.75 -0.25 1.5625 -0.25zm-0.328125 6.375q0.796875 0 1.375 -0.359375q0.578125 -0.359375 0.859375 -1.0625l0 -1.140625l-2.203125 0q-1.796875 0 -1.796875 1.25q0 0.609375 0.453125 0.96875q0.46875 0.34375 1.3125 0.34375zm5.738571 -9.203125l0.953125 0l0 9.890625l-0.953125 0l0 -9.890625z" fill-rule="nonzero"/><path fill="#000000" d="m148.07614 178.57423l0.984375 0l0 8.46875l5.234375 0l0 0.859375l-6.21875 0l0 -9.328125zm10.126907 2.265625q1.375 0 2.109375 0.6875q0.734375 0.6875 0.734375 2.03125l0 4.34375l-0.90625 0l0 -1.09375q-0.3125 0.546875 -0.9375 0.859375q-0.625 0.296875 -1.46875 0.296875q-1.171875 0 -1.875 -0.546875q-0.6875 -0.5625 -0.6875 -1.484375q0 -0.890625 0.640625 -1.4375q0.65625 -0.546875 2.0625 -0.546875l2.234375 0l0 -0.4375q0 -0.90625 -0.515625 -1.375q-0.5 -0.46875 -1.484375 -0.46875q-0.65625 0 -1.28125 0.21875q-0.609375 0.21875 -1.046875 0.609375l-0.421875 -0.71875q0.53125 -0.453125 1.28125 -0.6875q0.75 -0.25 1.5625 -0.25zm-0.328125 6.375q0.796875 0 1.375 -0.359375q0.578125 -0.359375 0.859375 -1.0625l0 -1.140625l-2.203125 0q-1.796875 0 -1.796875 1.25q0 0.609375 0.453125 0.96875q0.46875 0.34375 1.3125 0.34375zm9.316696 -6.375q1.3125 0 2.09375 0.765625q0.78125 0.765625 0.78125 2.234375l0 4.0625l-0.9375 0l0 -3.96875q0 -1.09375 -0.546875 -1.65625q-0.546875 -0.578125 -1.5625 -0.578125q-1.140625 0 -1.796875 0.671875q-0.65625 0.671875 -0.65625 1.859375l0 3.671875l-0.953125 0l0 -7.015625l0.90625 0l0 1.296875q0.390625 -0.640625 1.078125 -0.984375q0.6875 -0.359375 1.59375 -0.359375zm11.971649 0.046875l0 6.15625q0 1.796875 -0.875 2.65625q-0.875 0.859375 -2.625 0.859375q-0.984375 0 -1.859375 -0.296875q-0.859375 -0.28125 -1.40625 -0.78125l0.46875 -0.71875q0.515625 0.453125 1.234375 0.703125q0.734375 0.25 1.53125 0.25q1.328125 0 1.953125 -0.625q0.625 -0.609375 0.625 -1.921875l0 -0.890625q-0.4375 0.671875 -1.15625 1.015625q-0.703125 0.34375 -1.578125 0.34375q-0.984375 0 -1.796875 -0.4375q-0.796875 -0.4375 -1.265625 -1.203125q-0.453125 -0.78125 -0.453125 -1.765625q0 -1.0 0.453125 -1.765625q0.46875 -0.765625 1.265625 -1.1875q0.796875 -0.4375 1.796875 -0.4375q0.90625 0 1.625 0.359375q0.71875 0.359375 1.15625 1.03125l0 -1.34375l0.90625 0zm-3.59375 5.90625q0.765625 0 1.375 -0.328125q0.609375 -0.328125 0.953125 -0.90625q0.34375 -0.59375 0.34375 -1.328125q0 -0.75 -0.34375 -1.328125q-0.34375 -0.578125 -0.953125 -0.90625q-0.59375 -0.328125 -1.375 -0.328125q-0.75 0 -1.359375 0.328125q-0.609375 0.3125 -0.953125 0.90625q-0.328125 0.578125 -0.328125 1.328125q0 0.734375 0.328125 1.328125q0.34375 0.578125 0.953125 0.90625q0.609375 0.328125 1.359375 0.328125zm12.564941 -5.90625l0 7.015625l-0.90625 0l0 -1.28125q-0.375 0.640625 -1.03125 1.0q-0.65625 0.34375 -1.484375 0.34375q-1.375 0 -2.171875 -0.765625q-0.796875 -0.765625 -0.796875 -2.25l0 -4.0625l0.953125 0l0 3.984375q0 1.09375 0.546875 1.671875q0.546875 0.578125 1.5625 0.578125q1.09375 0 1.734375 -0.671875q0.640625 -0.671875 0.640625 -1.875l0 -3.6875l0.953125 0zm5.0947876 -0.046875q1.375 0 2.109375 0.6875q0.734375 0.6875 0.734375 2.03125l0 4.34375l-0.90625 0l0 -1.09375q-0.3125 0.546875 -0.9375 0.859375q-0.625 0.296875 -1.46875 0.296875q-1.171875 0 -1.875 -0.546875q-0.6875 -0.5625 -0.6875 -1.484375q0 -0.890625 0.640625 -1.4375q0.65625 -0.546875 2.0625 -0.546875l2.234375 0l0 -0.4375q0 -0.90625 -0.515625 -1.375q-0.5 -0.46875 -1.484375 -0.46875q-0.65625 0 -1.28125 0.21875q-0.609375 0.21875 -1.046875 0.609375l-0.421875 -0.71875q0.53125 -0.453125 1.28125 -0.6875q0.75 -0.25 1.5625 -0.25zm-0.328125 6.375q0.796875 0 1.375 -0.359375q0.578125 -0.359375 0.859375 -1.0625l0 -1.140625l-2.203125 0q-1.796875 0 -1.796875 1.25q0 0.609375 0.453125 0.96875q0.46875 0.34375 1.3125 0.34375zm12.265244 -6.328125l0 6.15625q0 1.796875 -0.875 2.65625q-0.875 0.859375 -2.625 0.859375q-0.984375 0 -1.859375 -0.296875q-0.859375 -0.28125 -1.40625 -0.78125l0.46875 -0.71875q0.515625 0.453125 1.234375 0.703125q0.734375 0.25 1.53125 0.25q1.328125 0 1.953125 -0.625q0.625 -0.609375 0.625 -1.921875l0 -0.890625q-0.4375 0.671875 -1.15625 1.015625q-0.703125 0.34375 -1.578125 0.34375q-0.984375 0 -1.796875 -0.4375q-0.796875 -0.4375 -1.265625 -1.203125q-0.453125 -0.78125 -0.453125 -1.765625q0 -1.0 0.453125 -1.765625q0.46875 -0.765625 1.265625 -1.1875q0.796875 -0.4375 1.796875 -0.4375q0.90625 0 1.625 0.359375q0.71875 0.359375 1.15625 1.03125l0 -1.34375l0.90625 0zm-3.59375 5.90625q0.765625 0 1.375 -0.328125q0.609375 -0.328125 0.953125 -0.90625q0.34375 -0.59375 0.34375 -1.328125q0 -0.75 -0.34375 -1.328125q-0.34375 -0.578125 -0.953125 -0.90625q-0.59375 -0.328125 -1.375 -0.328125q-0.75 0 -1.359375 0.328125q-0.609375 0.3125 -0.953125 0.90625q-0.328125 0.578125 -0.328125 1.328125q0 0.734375 0.328125 1.328125q0.34375 0.578125 0.953125 0.90625q0.609375 0.328125 1.359375 0.328125zm12.346191 -2.109375l-5.859375 0q0.078125 1.09375 0.828125 1.78125q0.765625 0.671875 1.921875 0.671875q0.65625 0 1.203125 -0.234375q0.546875 -0.234375 0.953125 -0.6875l0.53125 0.609375q-0.46875 0.5625 -1.171875 0.859375q-0.703125 0.28125 -1.53125 0.28125q-1.078125 0 -1.921875 -0.453125q-0.828125 -0.46875 -1.296875 -1.28125q-0.46875 -0.8125 -0.46875 -1.828125q0 -1.03125 0.4375 -1.84375q0.453125 -0.8125 1.234375 -1.265625q0.78125 -0.453125 1.75 -0.453125q0.984375 0 1.75 0.453125q0.78125 0.453125 1.21875 1.265625q0.4375 0.796875 0.4375 1.84375l-0.015625 0.28125zm-3.390625 -3.03125q-1.0 0 -1.6875 0.65625q-0.6875 0.640625 -0.78125 1.671875l4.96875 0q-0.09375 -1.03125 -0.78125 -1.671875q-0.6875 -0.65625 -1.71875 -0.65625z" fill-rule="nonzero"/><path fill="#d9ead3" d="m123.18372 367.163l0 0c0 -7.2566833 5.882698 -13.139374 13.139381 -13.139374l88.46141 0c3.4847717 0 6.826828 1.3843384 9.290939 3.8484192c2.4641113 2.4641113 3.8484344 5.806183 3.8484344 9.290955l0 52.55591c0 7.2566833 -5.8827057 13.139374 -13.139374 13.139374l-88.46141 0c-7.2566833 0 -13.139381 -5.8826904 -13.139381 -13.139374z" fill-rule="evenodd"/><path stroke="#595959" stroke-width="2.0" stroke-linejoin="round" stroke-linecap="butt" d="m123.18372 367.163l0 0c0 -7.2566833 5.882698 -13.139374 13.139381 -13.139374l88.46141 0c3.4847717 0 6.826828 1.3843384 9.290939 3.8484192c2.4641113 2.4641113 3.8484344 5.806183 3.8484344 9.290955l0 52.55591c0 7.2566833 -5.8827057 13.139374 -13.139374 13.139374l-88.46141 0c-7.2566833 0 -13.139381 -5.8826904 -13.139381 -13.139374z" fill-rule="evenodd"/><path fill="#000000" d="m155.04668 365.75656l-3.28125 0l0 -0.84375l7.546875 0l0 0.84375l-3.28125 0l0 8.484375l-0.984375 0l0 -8.484375zm9.212814 1.421875q1.3125 0 2.09375 0.765625q0.78125 0.765625 0.78125 2.234375l0 4.0625l-0.9375 0l0 -3.96875q0 -1.09375 -0.546875 -1.65625q-0.546875 -0.578125 -1.5625 -0.578125q-1.140625 0 -1.796875 0.671875q-0.65625 0.671875 -0.65625 1.859375l0 3.671875l-0.953125 0l0 -9.890625l0.953125 0l0 4.109375q0.390625 -0.609375 1.0625 -0.9375q0.6875 -0.34375 1.5625 -0.34375zm11.581024 3.84375l-5.859375 0q0.078125 1.09375 0.828125 1.78125q0.765625 0.671875 1.921875 0.671875q0.65625 0 1.203125 -0.234375q0.546875 -0.234375 0.953125 -0.6875l0.53125 0.609375q-0.46875 0.5625 -1.171875 0.859375q-0.703125 0.28125 -1.53125 0.28125q-1.078125 0 -1.921875 -0.453125q-0.828125 -0.46875 -1.296875 -1.28125q-0.46875 -0.8125 -0.46875 -1.828125q0 -1.03125 0.4375 -1.84375q0.453125 -0.8125 1.234375 -1.265625q0.78125 -0.453125 1.75 -0.453125q0.984375 0 1.75 0.453125q0.78125 0.453125 1.21875 1.265625q0.4375 0.796875 0.4375 1.84375l-0.015625 0.28125zm-3.390625 -3.03125q-1.0 0 -1.6875 0.65625q-0.6875 0.640625 -0.78125 1.671875l4.96875 0q-0.09375 -1.03125 -0.78125 -1.671875q-0.6875 -0.65625 -1.71875 -0.65625zm12.401489 -0.8125q1.3125 0 2.09375 0.765625q0.78125 0.765625 0.78125 2.234375l0 4.0625l-0.9375 0l0 -3.96875q0 -1.09375 -0.546875 -1.65625q-0.546875 -0.578125 -1.5625 -0.578125q-1.140625 0 -1.796875 0.671875q-0.65625 0.671875 -0.65625 1.859375l0 3.671875l-0.953125 0l0 -7.015625l0.90625 0l0 1.296875q0.390625 -0.640625 1.078125 -0.984375q0.6875 -0.359375 1.59375 -0.359375zm11.581024 3.84375l-5.859375 0q0.078125 1.09375 0.828125 1.78125q0.765625 0.671875 1.921875 0.671875q0.65625 0 1.203125 -0.234375q0.546875 -0.234375 0.953125 -0.6875l0.53125 0.609375q-0.46875 0.5625 -1.171875 0.859375q-0.703125 0.28125 -1.53125 0.28125q-1.078125 0 -1.921875 -0.453125q-0.828125 -0.46875 -1.296875 -1.28125q-0.46875 -0.8125 -0.46875 -1.828125q0 -1.03125 0.4375 -1.84375q0.453125 -0.8125 1.234375 -1.265625q0.78125 -0.453125 1.75 -0.453125q0.984375 0 1.75 0.453125q0.78125 0.453125 1.21875 1.265625q0.4375 0.796875 0.4375 1.84375l-0.015625 0.28125zm-3.390625 -3.03125q-1.0 0 -1.6875 0.65625q-0.6875 0.640625 -0.78125 1.671875l4.96875 0q-0.09375 -1.03125 -0.78125 -1.671875q-0.6875 -0.65625 -1.71875 -0.65625zm9.600159 6.25l-2.21875 -2.9375l-2.25 2.9375l-1.0625 0l2.78125 -3.59375l-2.640625 -3.421875l1.0625 0l2.109375 2.75l2.109375 -2.75l1.03125 0l-2.640625 3.421875l2.796875 3.59375l-1.078125 0zm6.3515625 -0.421875q-0.265625 0.234375 -0.671875 0.359375q-0.390625 0.125 -0.8125 0.125q-0.984375 0 -1.515625 -0.53125q-0.53125 -0.53125 -0.53125 -1.5l0 -4.234375l-1.25 0l0 -0.8125l1.25 0l0 -1.53125l0.9375 0l0 1.53125l2.140625 0l0 0.8125l-2.140625 0l0 4.171875q0 0.625 0.3125 0.953125q0.3125 0.328125 0.90625 0.328125q0.296875 0 0.5625 -0.09375q0.28125 -0.09375 0.46875 -0.265625l0.34375 0.6875z" fill-rule="nonzero"/><path fill="#000000" d="m146.02005 383.17844q0.984375 0 1.78125 0.453125q0.796875 0.4375 1.25 1.25q0.453125 0.8125 0.453125 1.859375q0 1.046875 -0.453125 1.859375q-0.453125 0.8125 -1.25 1.265625q-0.78125 0.4375 -1.78125 0.4375q-0.859375 0 -1.546875 -0.34375q-0.6875 -0.359375 -1.125 -1.03125l0 3.890625l-0.953125 0l0 -9.59375l0.90625 0l0 1.390625q0.4375 -0.6875 1.125 -1.0625q0.703125 -0.375 1.59375 -0.375zm-0.078125 6.296875q0.734375 0 1.328125 -0.34375q0.609375 -0.34375 0.953125 -0.96875q0.34375 -0.625 0.34375 -1.421875q0 -0.8125 -0.34375 -1.421875q-0.34375 -0.625 -0.953125 -0.96875q-0.59375 -0.34375 -1.328125 -0.34375q-0.734375 0 -1.328125 0.34375q-0.59375 0.34375 -0.9375 0.96875q-0.34375 0.609375 -0.34375 1.421875q0 0.796875 0.34375 1.421875q0.34375 0.625 0.9375 0.96875q0.59375 0.34375 1.328125 0.34375zm7.9026947 -6.296875q1.375 0 2.109375 0.6875q0.734375 0.6875 0.734375 2.03125l0 4.34375l-0.90625 0l0 -1.09375q-0.3125 0.546875 -0.9375 0.859375q-0.625 0.296875 -1.46875 0.296875q-1.171875 0 -1.875 -0.546875q-0.6875 -0.5625 -0.6875 -1.484375q0 -0.890625 0.640625 -1.4375q0.65625 -0.546875 2.0625 -0.546875l2.234375 0l0 -0.4375q0 -0.90625 -0.515625 -1.375q-0.5 -0.46875 -1.484375 -0.46875q-0.65625 0 -1.28125 0.21875q-0.609375 0.21875 -1.046875 0.609375l-0.421875 -0.71875q0.53125 -0.453125 1.28125 -0.6875q0.75 -0.25 1.5625 -0.25zm-0.328125 6.375q0.796875 0 1.375 -0.359375q0.578125 -0.359375 0.859375 -1.0625l0 -1.140625l-2.203125 0q-1.796875 0 -1.796875 1.25q0 0.609375 0.453125 0.96875q0.46875 0.34375 1.3125 0.34375zm9.441696 0.265625q-0.265625 0.234375 -0.671875 0.359375q-0.390625 0.125 -0.8125 0.125q-0.984375 0 -1.515625 -0.53125q-0.53125 -0.53125 -0.53125 -1.5l0 -4.234375l-1.25 0l0 -0.8125l1.25 0l0 -1.53125l0.9375 0l0 1.53125l2.140625 0l0 0.8125l-2.140625 0l0 4.171875q0 0.625 0.3125 0.953125q0.3125 0.328125 0.90625 0.328125q0.296875 0 0.5625 -0.09375q0.28125 -0.09375 0.46875 -0.265625l0.34375 0.6875zm5.286194 -6.640625q1.3125 0 2.09375 0.765625q0.78125 0.765625 0.78125 2.234375l0 4.0625l-0.9375 0l0 -3.96875q0 -1.09375 -0.546875 -1.65625q-0.546875 -0.578125 -1.5625 -0.578125q-1.140625 0 -1.796875 0.671875q-0.65625 0.671875 -0.65625 1.859375l0 3.671875l-0.953125 0l0 -9.890625l0.953125 0l0 4.109375q0.390625 -0.609375 1.0625 -0.9375q0.6875 -0.34375 1.5625 -0.34375zm7.335602 7.125q-0.859375 0 -1.640625 -0.234375q-0.78125 -0.25 -1.21875 -0.625l0.421875 -0.75q0.453125 0.34375 1.109375 0.5625q0.671875 0.21875 1.390625 0.21875q0.953125 0 1.40625 -0.296875q0.46875 -0.296875 0.46875 -0.84375q0 -0.390625 -0.25 -0.609375q-0.25 -0.21875 -0.640625 -0.328125q-0.390625 -0.109375 -1.03125 -0.21875q-0.84375 -0.15625 -1.375 -0.328125q-0.515625 -0.171875 -0.890625 -0.5625q-0.359375 -0.40625 -0.359375 -1.109375q0 -0.875 0.734375 -1.4375q0.734375 -0.5625 2.046875 -0.5625q0.671875 0 1.34375 0.1875q0.6875 0.171875 1.125 0.46875l-0.40625 0.75q-0.859375 -0.59375 -2.0625 -0.59375q-0.90625 0 -1.375 0.328125q-0.453125 0.3125 -0.453125 0.828125q0 0.40625 0.25 0.640625q0.265625 0.234375 0.65625 0.359375q0.390625 0.109375 1.0625 0.234375q0.84375 0.15625 1.34375 0.3125q0.515625 0.15625 0.875 0.546875q0.359375 0.390625 0.359375 1.0625q0 0.921875 -0.765625 1.46875q-0.765625 0.53125 -2.125 0.53125zm9.743759 2.515625q-0.75 -1.21875 -1.15625 -2.8125q-0.390625 -1.59375 -0.390625 -3.421875q0 -1.828125 0.390625 -3.421875q0.40625 -1.609375 1.15625 -2.8125l0.90625 0q-0.796875 1.34375 -1.171875 2.890625q-0.359375 1.546875 -0.359375 3.34375q0 1.796875 0.359375 3.34375q0.375 1.546875 1.171875 2.890625l-0.90625 0zm5.0880585 -11.734375q-0.609375 0 -0.921875 0.34375q-0.3125 0.328125 -0.3125 0.96875l0 0.828125l2.15625 0l0 0.8125l-2.140625 0l0 6.203125l-0.9375 0l0 -6.203125l-1.25 0l0 -0.8125l1.25 0l0 -0.859375q0 -0.96875 0.546875 -1.515625q0.546875 -0.5625 1.5625 -0.5625q0.40625 0 0.78125 0.109375q0.375 0.109375 0.625 0.328125l-0.328125 0.703125q-0.40625 -0.34375 -1.03125 -0.34375zm4.1630096 3.515625q0.34375 -0.703125 1.0 -1.0625q0.65625 -0.359375 1.625 -0.359375l0 0.921875l-0.21875 -0.015625q-1.109375 0 -1.734375 0.6875q-0.625 0.671875 -0.625 1.890625l0 3.578125l-0.953125 0l0 -7.015625l0.90625 0l0 1.375zm7.139969 5.703125q-1.015625 0 -1.828125 -0.453125q-0.8125 -0.46875 -1.28125 -1.28125q-0.46875 -0.8125 -0.46875 -1.828125q0 -1.03125 0.46875 -1.84375q0.46875 -0.8125 1.28125 -1.265625q0.8125 -0.453125 1.828125 -0.453125q1.015625 0 1.828125 0.453125q0.8125 0.453125 1.265625 1.265625q0.46875 0.8125 0.46875 1.84375q0 1.015625 -0.46875 1.828125q-0.453125 0.8125 -1.265625 1.28125q-0.8125 0.453125 -1.828125 0.453125zm0 -0.828125q0.75 0 1.34375 -0.34375q0.59375 -0.34375 0.921875 -0.96875q0.328125 -0.625 0.328125 -1.421875q0 -0.8125 -0.328125 -1.4375q-0.328125 -0.625 -0.921875 -0.953125q-0.59375 -0.34375 -1.34375 -0.34375q-0.75 0 -1.34375 0.34375q-0.59375 0.328125 -0.9375 0.953125q-0.328125 0.625 -0.328125 1.4375q0 0.796875 0.328125 1.421875q0.34375 0.625 0.9375 0.96875q0.59375 0.34375 1.34375 0.34375zm14.231705 -6.296875q1.3125 0 2.0625 0.765625q0.765625 0.75 0.765625 2.234375l0 4.0625l-0.953125 0l0 -3.96875q0 -1.09375 -0.53125 -1.65625q-0.515625 -0.578125 -1.484375 -0.578125q-1.078125 0 -1.71875 0.671875q-0.625 0.671875 -0.625 1.859375l0 3.671875l-0.9375 0l0 -3.96875q0 -1.09375 -0.53125 -1.65625q-0.53125 -0.578125 -1.5 -0.578125q-1.078125 0 -1.71875 0.671875q-0.625 0.671875 -0.625 1.859375l0 3.671875l-0.953125 0l0 -7.015625l0.90625 0l0 1.28125q0.375 -0.640625 1.046875 -0.984375q0.671875 -0.34375 1.53125 -0.34375q0.875 0 1.515625 0.375q0.65625 0.375 0.984375 1.109375q0.375 -0.703125 1.09375 -1.09375q0.734375 -0.390625 1.671875 -0.390625z" fill-rule="nonzero"/><path fill="#000000" d="m147.88437 405.81906q-0.265625 0.234375 -0.671875 0.359375q-0.390625 0.125 -0.8125 0.125q-0.984375 0 -1.515625 -0.53125q-0.53125 -0.53125 -0.53125 -1.5l0 -4.234375l-1.25 0l0 -0.8125l1.25 0l0 -1.53125l0.9375 0l0 1.53125l2.140625 0l0 0.8125l-2.140625 0l0 4.171875q0 0.625 0.3125 0.953125q0.3125 0.328125 0.90625 0.328125q0.296875 0 0.5625 -0.09375q0.28125 -0.09375 0.46875 -0.265625l0.34375 0.6875zm5.286194 -6.640625q1.3125 0 2.09375 0.765625q0.78125 0.765625 0.78125 2.234375l0 4.0625l-0.9375 0l0 -3.96875q0 -1.09375 -0.546875 -1.65625q-0.546875 -0.578125 -1.5625 -0.578125q-1.140625 0 -1.796875 0.671875q-0.65625 0.671875 -0.65625 1.859375l0 3.671875l-0.953125 0l0 -9.890625l0.953125 0l0 4.109375q0.390625 -0.609375 1.0625 -0.9375q0.6875 -0.34375 1.5625 -0.34375zm11.581024 3.84375l-5.859375 0q0.078125 1.09375 0.828125 1.78125q0.765625 0.671875 1.921875 0.671875q0.65625 0 1.203125 -0.234375q0.546875 -0.234375 0.953125 -0.6875l0.53125 0.609375q-0.46875 0.5625 -1.171875 0.859375q-0.703125 0.28125 -1.53125 0.28125q-1.078125 0 -1.921875 -0.453125q-0.828125 -0.46875 -1.296875 -1.28125q-0.46875 -0.8125 -0.46875 -1.828125q0 -1.03125 0.4375 -1.84375q0.453125 -0.8125 1.234375 -1.265625q0.78125 -0.453125 1.75 -0.453125q0.984375 0 1.75 0.453125q0.78125 0.453125 1.21875 1.265625q0.4375 0.796875 0.4375 1.84375l-0.015625 0.28125zm-3.390625 -3.03125q-1.0 0 -1.6875 0.65625q-0.6875 0.640625 -0.78125 1.671875l4.96875 0q-0.09375 -1.03125 -0.78125 -1.671875q-0.6875 -0.65625 -1.71875 -0.65625zm11.729614 6.3125q-1.03125 0 -1.859375 -0.453125q-0.8125 -0.453125 -1.28125 -1.265625q-0.46875 -0.828125 -0.46875 -1.84375q0 -1.03125 0.46875 -1.84375q0.46875 -0.8125 1.28125 -1.265625q0.828125 -0.453125 1.859375 -0.453125q0.90625 0 1.625 0.359375q0.71875 0.34375 1.125 1.03125l-0.703125 0.46875q-0.34375 -0.515625 -0.890625 -0.765625q-0.53125 -0.265625 -1.15625 -0.265625q-0.75 0 -1.359375 0.34375q-0.609375 0.328125 -0.953125 0.953125q-0.328125 0.625 -0.328125 1.4375q0 0.8125 0.328125 1.4375q0.34375 0.609375 0.953125 0.953125q0.609375 0.34375 1.359375 0.34375q0.625 0 1.15625 -0.25q0.546875 -0.265625 0.890625 -0.78125l0.703125 0.484375q-0.40625 0.671875 -1.125 1.03125q-0.71875 0.34375 -1.625 0.34375zm10.925583 -7.078125l0 7.015625l-0.90625 0l0 -1.28125q-0.375 0.640625 -1.03125 1.0q-0.65625 0.34375 -1.484375 0.34375q-1.375 0 -2.171875 -0.765625q-0.796875 -0.765625 -0.796875 -2.25l0 -4.0625l0.953125 0l0 3.984375q0 1.09375 0.546875 1.671875q0.546875 0.578125 1.5625 0.578125q1.09375 0 1.734375 -0.671875q0.640625 -0.671875 0.640625 -1.875l0 -3.6875l0.953125 0zm3.5479126 1.375q0.34375 -0.703125 1.0 -1.0625q0.65625 -0.359375 1.625 -0.359375l0 0.921875l-0.21875 -0.015625q-1.109375 0 -1.734375 0.6875q-0.625 0.671875 -0.625 1.890625l0 3.578125l-0.953125 0l0 -7.015625l0.90625 0l0 1.375zm5.2378845 0q0.34375 -0.703125 1.0 -1.0625q0.65625 -0.359375 1.625 -0.359375l0 0.921875l-0.21875 -0.015625q-1.109375 0 -1.734375 0.6875q-0.625 0.671875 -0.625 1.890625l0 3.578125l-0.953125 0l0 -7.015625l0.90625 0l0 1.375zm10.374344 2.421875l-5.859375 0q0.078125 1.09375 0.828125 1.78125q0.765625 0.671875 1.921875 0.671875q0.65625 0 1.203125 -0.234375q0.546875 -0.234375 0.953125 -0.6875l0.53125 0.609375q-0.46875 0.5625 -1.171875 0.859375q-0.703125 0.28125 -1.53125 0.28125q-1.078125 0 -1.921875 -0.453125q-0.828125 -0.46875 -1.296875 -1.28125q-0.46875 -0.8125 -0.46875 -1.828125q0 -1.03125 0.4375 -1.84375q0.453125 -0.8125 1.234375 -1.265625q0.78125 -0.453125 1.75 -0.453125q0.984375 0 1.75 0.453125q0.78125 0.453125 1.21875 1.265625q0.4375 0.796875 0.4375 1.84375l-0.015625 0.28125zm-3.390625 -3.03125q-1.0 0 -1.6875 0.65625q-0.6875 0.640625 -0.78125 1.671875l4.96875 0q-0.09375 -1.03125 -0.78125 -1.671875q-0.6875 -0.65625 -1.71875 -0.65625zm8.909531 -0.8125q1.3125 0 2.09375 0.765625q0.78125 0.765625 0.78125 2.234375l0 4.0625l-0.9375 0l0 -3.96875q0 -1.09375 -0.546875 -1.65625q-0.546875 -0.578125 -1.5625 -0.578125q-1.140625 0 -1.796875 0.671875q-0.65625 0.671875 -0.65625 1.859375l0 3.671875l-0.953125 0l0 -7.015625l0.90625 0l0 1.296875q0.390625 -0.640625 1.078125 -0.984375q0.6875 -0.359375 1.59375 -0.359375zm9.148102 6.640625q-0.265625 0.234375 -0.671875 0.359375q-0.390625 0.125 -0.8125 0.125q-0.984375 0 -1.515625 -0.53125q-0.53125 -0.53125 -0.53125 -1.5l0 -4.234375l-1.25 0l0 -0.8125l1.25 0l0 -1.53125l0.9375 0l0 1.53125l2.140625 0l0 0.8125l-2.140625 0l0 4.171875q0 0.625 0.3125 0.953125q0.3125 0.328125 0.90625 0.328125q0.296875 0 0.5625 -0.09375q0.28125 -0.09375 0.46875 -0.265625l0.34375 0.6875z" fill-rule="nonzero"/><path fill="#000000" d="m166.00543 415.17844q1.3125 0 2.09375 0.765625q0.78125 0.765625 0.78125 2.234375l0 4.0625l-0.9375 0l0 -3.96875q0 -1.09375 -0.546875 -1.65625q-0.546875 -0.578125 -1.5625 -0.578125q-1.140625 0 -1.796875 0.671875q-0.65625 0.671875 -0.65625 1.859375l0 3.671875l-0.953125 0l0 -7.015625l0.90625 0l0 1.296875q0.390625 -0.640625 1.078125 -0.984375q0.6875 -0.359375 1.59375 -0.359375zm8.346649 7.125q-1.015625 0 -1.828125 -0.453125q-0.8125 -0.46875 -1.28125 -1.28125q-0.46875 -0.8125 -0.46875 -1.828125q0 -1.03125 0.46875 -1.84375q0.46875 -0.8125 1.28125 -1.265625q0.8125 -0.453125 1.828125 -0.453125q1.015625 0 1.828125 0.453125q0.8125 0.453125 1.265625 1.265625q0.46875 0.8125 0.46875 1.84375q0 1.015625 -0.46875 1.828125q-0.453125 0.8125 -1.265625 1.28125q-0.8125 0.453125 -1.828125 0.453125zm0 -0.828125q0.75 0 1.34375 -0.34375q0.59375 -0.34375 0.921875 -0.96875q0.328125 -0.625 0.328125 -1.421875q0 -0.8125 -0.328125 -1.4375q-0.328125 -0.625 -0.921875 -0.953125q-0.59375 -0.34375 -1.34375 -0.34375q-0.75 0 -1.34375 0.34375q-0.59375 0.328125 -0.9375 0.953125q-0.328125 0.625 -0.328125 1.4375q0 0.796875 0.328125 1.421875q0.34375 0.625 0.9375 0.96875q0.59375 0.34375 1.34375 0.34375zm11.887955 -9.125l0 9.890625l-0.90625 0l0 -1.390625q-0.421875 0.703125 -1.125 1.078125q-0.703125 0.375 -1.578125 0.375q-0.984375 0 -1.796875 -0.453125q-0.796875 -0.453125 -1.25 -1.265625q-0.453125 -0.8125 -0.453125 -1.84375q0 -1.046875 0.453125 -1.859375q0.453125 -0.8125 1.25 -1.25q0.8125 -0.453125 1.796875 -0.453125q0.84375 0 1.53125 0.359375q0.6875 0.34375 1.125 1.03125l0 -4.21875l0.953125 0zm-3.53125 9.125q0.734375 0 1.328125 -0.34375q0.59375 -0.34375 0.921875 -0.96875q0.34375 -0.625 0.34375 -1.421875q0 -0.8125 -0.34375 -1.4375q-0.328125 -0.625 -0.921875 -0.953125q-0.59375 -0.34375 -1.328125 -0.34375q-0.75 0 -1.34375 0.34375q-0.59375 0.328125 -0.9375 0.953125q-0.328125 0.625 -0.328125 1.4375q0 0.796875 0.328125 1.421875q0.34375 0.625 0.9375 0.96875q0.59375 0.34375 1.34375 0.34375zm12.270813 -2.453125l-5.859375 0q0.078125 1.09375 0.828125 1.78125q0.765625 0.671875 1.921875 0.671875q0.65625 0 1.203125 -0.234375q0.546875 -0.234375 0.953125 -0.6875l0.53125 0.609375q-0.46875 0.5625 -1.171875 0.859375q-0.703125 0.28125 -1.53125 0.28125q-1.078125 0 -1.921875 -0.453125q-0.828125 -0.46875 -1.296875 -1.28125q-0.46875 -0.8125 -0.46875 -1.828125q0 -1.03125 0.4375 -1.84375q0.453125 -0.8125 1.234375 -1.265625q0.78125 -0.453125 1.75 -0.453125q0.984375 0 1.75 0.453125q0.78125 0.453125 1.21875 1.265625q0.4375 0.796875 0.4375 1.84375l-0.015625 0.28125zm-3.390625 -3.03125q-1.0 0 -1.6875 0.65625q-0.6875 0.640625 -0.78125 1.671875l4.96875 0q-0.09375 -1.03125 -0.78125 -1.671875q-0.6875 -0.65625 -1.71875 -0.65625zm4.5501556 8.828125q0.78125 -1.34375 1.15625 -2.875q0.375 -1.546875 0.375 -3.359375q0 -1.8125 -0.375 -3.34375q-0.375 -1.546875 -1.15625 -2.890625l0.90625 0q0.75 1.203125 1.15625 2.8125q0.40625 1.59375 0.40625 3.421875q0 1.828125 -0.40625 3.4375q-0.390625 1.59375 -1.15625 2.796875l-0.90625 0z" fill-rule="nonzero"/><path fill="#d9ead3" d="m123.18372 260.4844l0 0c0 -4.5053253 3.6523056 -8.157639 8.157646 -8.157639l98.424866 0c2.1635437 0 4.2384796 0.85946655 5.768326 2.389328c1.5298615 1.5298462 2.389328 3.6047668 2.389328 5.7683105l0 32.62961c0 4.5053406 -3.6523132 8.157654 -8.157654 8.157654l-98.424866 0c-4.5053406 0 -8.157646 -3.6523132 -8.157646 -8.157654z" fill-rule="evenodd"/><path stroke="#595959" stroke-width="2.0" stroke-linejoin="round" stroke-linecap="butt" d="m123.18372 260.4844l0 0c0 -4.5053253 3.6523056 -8.157639 8.157646 -8.157639l98.424866 0c2.1635437 0 4.2384796 0.85946655 5.768326 2.389328c1.5298615 1.5298462 2.389328 3.6047668 2.389328 5.7683105l0 32.62961c0 4.5053406 -3.6523132 8.157654 -8.157654 8.157654l-98.424866 0c-4.5053406 0 -8.157646 -3.6523132 -8.157646 -8.157654z" fill-rule="evenodd"/><path fill="#000000" d="m145.46535 264.2711q1.78125 0 2.796875 0.859375q1.015625 0.84375 1.015625 2.34375q0 1.484375 -1.015625 2.328125q-1.015625 0.84375 -2.796875 0.84375l-2.515625 0l0 2.953125l-0.984375 0l0 -9.328125l3.5 0zm-0.03125 5.515625q1.390625 0 2.125 -0.609375q0.734375 -0.609375 0.734375 -1.703125q0 -1.140625 -0.734375 -1.75q-0.734375 -0.609375 -2.125 -0.609375l-2.484375 0l0 4.671875l2.484375 0zm8.150818 -3.25q1.375 0 2.109375 0.6875q0.734375 0.6875 0.734375 2.03125l0 4.34375l-0.90625 0l0 -1.09375q-0.3125 0.546875 -0.9375 0.859375q-0.625 0.296875 -1.46875 0.296875q-1.171875 0 -1.875 -0.546875q-0.6875 -0.5625 -0.6875 -1.484375q0 -0.890625 0.640625 -1.4375q0.65625 -0.546875 2.0625 -0.546875l2.234375 0l0 -0.4375q0 -0.90625 -0.515625 -1.375q-0.5 -0.46875 -1.484375 -0.46875q-0.65625 0 -1.28125 0.21875q-0.609375 0.21875 -1.046875 0.609375l-0.421875 -0.71875q0.53125 -0.453125 1.28125 -0.6875q0.75 -0.25 1.5625 -0.25zm-0.328125 6.375q0.796875 0 1.375 -0.359375q0.578125 -0.359375 0.859375 -1.0625l0 -1.140625l-2.203125 0q-1.796875 0 -1.796875 1.25q0 0.609375 0.453125 0.96875q0.46875 0.34375 1.3125 0.34375zm9.441696 0.265625q-0.265625 0.234375 -0.671875 0.359375q-0.390625 0.125 -0.8125 0.125q-0.984375 0 -1.515625 -0.53125q-0.53125 -0.53125 -0.53125 -1.5l0 -4.234375l-1.25 0l0 -0.8125l1.25 0l0 -1.53125l0.9375 0l0 1.53125l2.140625 0l0 0.8125l-2.140625 0l0 4.171875q0 0.625 0.3125 0.953125q0.3125 0.328125 0.90625 0.328125q0.296875 0 0.5625 -0.09375q0.28125 -0.09375 0.46875 -0.265625l0.34375 0.6875zm5.286194 -6.640625q1.3125 0 2.09375 0.765625q0.78125 0.765625 0.78125 2.234375l0 4.0625l-0.9375 0l0 -3.96875q0 -1.09375 -0.546875 -1.65625q-0.546875 -0.578125 -1.5625 -0.578125q-1.140625 0 -1.796875 0.671875q-0.65625 0.671875 -0.65625 1.859375l0 3.671875l-0.953125 0l0 -9.890625l0.953125 0l0 4.109375q0.390625 -0.609375 1.0625 -0.9375q0.6875 -0.34375 1.5625 -0.34375zm10.95256 -1.421875l-3.28125 0l0 -0.84375l7.546875 0l0 0.84375l-3.28125 0l0 8.484375l-0.984375 0l0 -8.484375zm6.3542786 2.84375q0.34375 -0.703125 1.0 -1.0625q0.65625 -0.359375 1.625 -0.359375l0 0.921875l-0.21875 -0.015625q-1.109375 0 -1.734375 0.6875q-0.625 0.671875 -0.625 1.890625l0 3.578125l-0.953125 0l0 -7.015625l0.90625 0l0 1.375zm6.7714386 -1.421875q1.375 0 2.109375 0.6875q0.734375 0.6875 0.734375 2.03125l0 4.34375l-0.90625 0l0 -1.09375q-0.3125 0.546875 -0.9375 0.859375q-0.625 0.296875 -1.46875 0.296875q-1.171875 0 -1.875 -0.546875q-0.6875 -0.5625 -0.6875 -1.484375q0 -0.890625 0.640625 -1.4375q0.65625 -0.546875 2.0625 -0.546875l2.234375 0l0 -0.4375q0 -0.90625 -0.515625 -1.375q-0.5 -0.46875 -1.484375 -0.46875q-0.65625 0 -1.28125 0.21875q-0.609375 0.21875 -1.046875 0.609375l-0.421875 -0.71875q0.53125 -0.453125 1.28125 -0.6875q0.75 -0.25 1.5625 -0.25zm-0.328125 6.375q0.796875 0 1.375 -0.359375q0.578125 -0.359375 0.859375 -1.0625l0 -1.140625l-2.203125 0q-1.796875 0 -1.796875 1.25q0 0.609375 0.453125 0.96875q0.46875 0.34375 1.3125 0.34375zm8.671494 0.75q-1.03125 0 -1.859375 -0.453125q-0.8125 -0.453125 -1.28125 -1.265625q-0.46875 -0.828125 -0.46875 -1.84375q0 -1.03125 0.46875 -1.84375q0.46875 -0.8125 1.28125 -1.265625q0.828125 -0.453125 1.859375 -0.453125q0.90625 0 1.625 0.359375q0.71875 0.34375 1.125 1.03125l-0.703125 0.46875q-0.34375 -0.515625 -0.890625 -0.765625q-0.53125 -0.265625 -1.15625 -0.265625q-0.75 0 -1.359375 0.34375q-0.609375 0.328125 -0.953125 0.953125q-0.328125 0.625 -0.328125 1.4375q0 0.8125 0.328125 1.4375q0.34375 0.609375 0.953125 0.953125q0.609375 0.34375 1.359375 0.34375q0.625 0 1.15625 -0.25q0.546875 -0.265625 0.890625 -0.78125l0.703125 0.484375q-0.40625 0.671875 -1.125 1.03125q-0.71875 0.34375 -1.625 0.34375zm10.586838 -3.28125l-5.859375 0q0.078125 1.09375 0.828125 1.78125q0.765625 0.671875 1.921875 0.671875q0.65625 0 1.203125 -0.234375q0.546875 -0.234375 0.953125 -0.6875l0.53125 0.609375q-0.46875 0.5625 -1.171875 0.859375q-0.703125 0.28125 -1.53125 0.28125q-1.078125 0 -1.921875 -0.453125q-0.828125 -0.46875 -1.296875 -1.28125q-0.46875 -0.8125 -0.46875 -1.828125q0 -1.03125 0.4375 -1.84375q0.453125 -0.8125 1.234375 -1.265625q0.78125 -0.453125 1.75 -0.453125q0.984375 0 1.75 0.453125q0.78125 0.453125 1.21875 1.265625q0.4375 0.796875 0.4375 1.84375l-0.015625 0.28125zm-3.390625 -3.03125q-1.0 0 -1.6875 0.65625q-0.6875 0.640625 -0.78125 1.671875l4.96875 0q-0.09375 -1.03125 -0.78125 -1.671875q-0.6875 -0.65625 -1.71875 -0.65625zm11.737656 -3.640625l0 9.890625l-0.90625 0l0 -1.390625q-0.421875 0.703125 -1.125 1.078125q-0.703125 0.375 -1.578125 0.375q-0.984375 0 -1.796875 -0.453125q-0.796875 -0.453125 -1.25 -1.265625q-0.453125 -0.8125 -0.453125 -1.84375q0 -1.046875 0.453125 -1.859375q0.453125 -0.8125 1.25 -1.25q0.8125 -0.453125 1.796875 -0.453125q0.84375 0 1.53125 0.359375q0.6875 0.34375 1.125 1.03125l0 -4.21875l0.953125 0zm-3.53125 9.125q0.734375 0 1.328125 -0.34375q0.59375 -0.34375 0.921875 -0.96875q0.34375 -0.625 0.34375 -1.421875q0 -0.8125 -0.34375 -1.4375q-0.328125 -0.625 -0.921875 -0.953125q-0.59375 -0.34375 -1.328125 -0.34375q-0.75 0 -1.34375 0.34375q-0.59375 0.328125 -0.9375 0.953125q-0.328125 0.625 -0.328125 1.4375q0 0.796875 0.328125 1.421875q0.34375 0.625 0.9375 0.96875q0.59375 0.34375 1.34375 0.34375z" fill-rule="nonzero"/><path fill="#000000" d="m165.77737 289.6617q-0.859375 0 -1.640625 -0.234375q-0.78125 -0.25 -1.21875 -0.625l0.421875 -0.75q0.453125 0.34375 1.109375 0.5625q0.671875 0.21875 1.390625 0.21875q0.953125 0 1.40625 -0.296875q0.46875 -0.296875 0.46875 -0.84375q0 -0.390625 -0.25 -0.609375q-0.25 -0.21875 -0.640625 -0.328125q-0.390625 -0.109375 -1.03125 -0.21875q-0.84375 -0.15625 -1.375 -0.328125q-0.515625 -0.171875 -0.890625 -0.5625q-0.359375 -0.40625 -0.359375 -1.109375q0 -0.875 0.734375 -1.4375q0.734375 -0.5625 2.046875 -0.5625q0.671875 0 1.34375 0.1875q0.6875 0.171875 1.125 0.46875l-0.40625 0.75q-0.859375 -0.59375 -2.0625 -0.59375q-0.90625 0 -1.375 0.328125q-0.453125 0.3125 -0.453125 0.828125q0 0.40625 0.25 0.640625q0.265625 0.234375 0.65625 0.359375q0.390625 0.109375 1.0625 0.234375q0.84375 0.15625 1.34375 0.3125q0.515625 0.15625 0.875 0.546875q0.359375 0.390625 0.359375 1.0625q0 0.921875 -0.765625 1.46875q-0.765625 0.53125 -2.125 0.53125zm7.5018005 0q-1.015625 0 -1.828125 -0.453125q-0.8125 -0.46875 -1.28125 -1.28125q-0.46875 -0.8125 -0.46875 -1.828125q0 -1.03125 0.46875 -1.84375q0.46875 -0.8125 1.28125 -1.265625q0.8125 -0.453125 1.828125 -0.453125q1.015625 0 1.828125 0.453125q0.8125 0.453125 1.265625 1.265625q0.46875 0.8125 0.46875 1.84375q0 1.015625 -0.46875 1.828125q-0.453125 0.8125 -1.265625 1.28125q-0.8125 0.453125 -1.828125 0.453125zm0 -0.828125q0.75 0 1.34375 -0.34375q0.59375 -0.34375 0.921875 -0.96875q0.328125 -0.625 0.328125 -1.421875q0 -0.8125 -0.328125 -1.4375q-0.328125 -0.625 -0.921875 -0.953125q-0.59375 -0.34375 -1.34375 -0.34375q-0.75 0 -1.34375 0.34375q-0.59375 0.328125 -0.9375 0.953125q-0.328125 0.625 -0.328125 1.4375q0 0.796875 0.328125 1.421875q0.34375 0.625 0.9375 0.96875q0.59375 0.34375 1.34375 0.34375zm11.301788 -8.390625q-0.609375 0 -0.921875 0.34375q-0.3125 0.328125 -0.3125 0.96875l0 0.828125l2.15625 0l0 0.8125l-2.140625 0l0 6.203125l-0.9375 0l0 -6.203125l-1.25 0l0 -0.8125l1.25 0l0 -0.859375q0 -0.96875 0.546875 -1.515625q0.546875 -0.5625 1.5625 -0.5625q0.40625 0 0.78125 0.109375q0.375 0.109375 0.625 0.328125l-0.328125 0.703125q-0.40625 -0.34375 -1.03125 -0.34375zm4.5098877 2.09375q1.375 0 2.109375 0.6875q0.734375 0.6875 0.734375 2.03125l0 4.34375l-0.90625 0l0 -1.09375q-0.3125 0.546875 -0.9375 0.859375q-0.625 0.296875 -1.46875 0.296875q-1.171875 0 -1.875 -0.546875q-0.6875 -0.5625 -0.6875 -1.484375q0 -0.890625 0.640625 -1.4375q0.65625 -0.546875 2.0625 -0.546875l2.234375 0l0 -0.4375q0 -0.90625 -0.515625 -1.375q-0.5 -0.46875 -1.484375 -0.46875q-0.65625 0 -1.28125 0.21875q-0.609375 0.21875 -1.046875 0.609375l-0.421875 -0.71875q0.53125 -0.453125 1.28125 -0.6875q0.75 -0.25 1.5625 -0.25zm-0.328125 6.375q0.796875 0 1.375 -0.359375q0.578125 -0.359375 0.859375 -1.0625l0 -1.140625l-2.203125 0q-1.796875 0 -1.796875 1.25q0 0.609375 0.453125 0.96875q0.46875 0.34375 1.3125 0.34375zm6.644821 -4.953125q0.34375 -0.703125 1.0 -1.0625q0.65625 -0.359375 1.625 -0.359375l0 0.921875l-0.21875 -0.015625q-1.109375 0 -1.734375 0.6875q-0.625 0.671875 -0.625 1.890625l0 3.578125l-0.953125 0l0 -7.015625l0.90625 0l0 1.375z" fill-rule="nonzero"/><path fill="#000000" fill-opacity="0.0" d="m237.92389 175.10236l91.02362 0" fill-rule="evenodd"/><path stroke="#595959" stroke-width="1.0" stroke-linejoin="round" stroke-linecap="butt" d="m237.92389 175.10236l85.02362 0" fill-rule="evenodd"/><path fill="#595959" stroke="#595959" stroke-width="1.0" stroke-linecap="butt" d="m322.9475 176.75409l4.538086 -1.6517334l-4.538086 -1.6517334z" fill-rule="evenodd"/><path fill="#000000" fill-opacity="0.0" d="m237.92389 276.80054l91.02362 0" fill-rule="evenodd"/><path stroke="#595959" stroke-width="1.0" stroke-linejoin="round" stroke-linecap="butt" d="m237.92389 276.80054l85.02362 0" fill-rule="evenodd"/><path fill="#595959" stroke="#595959" stroke-width="1.0" stroke-linecap="butt" d="m322.9475 278.45227l4.538086 -1.6517334l-4.538086 -1.6517334z" fill-rule="evenodd"/><path fill="#000000" fill-opacity="0.0" d="m237.92389 393.44095l91.02362 0" fill-rule="evenodd"/><path stroke="#595959" stroke-width="1.0" stroke-linejoin="round" stroke-linecap="butt" d="m237.92389 393.44095l85.02362 0" fill-rule="evenodd"/><path fill="#595959" stroke="#595959" stroke-width="1.0" stroke-linecap="butt" d="m322.9475 395.09268l4.538086 -1.6517334l-4.538086 -1.6517334z" fill-rule="evenodd"/><path fill="#000000" fill-opacity="0.0" d="m338.11285 129.979l45.13385 0l0 329.66928l-45.13385 0z" fill-rule="evenodd"/><path stroke="#595959" stroke-width="1.0" stroke-linejoin="round" stroke-linecap="butt" d="m338.11285 129.979l45.13385 0l0 329.66928l-45.13385 0z" fill-rule="evenodd"/><path fill="#000000" d="m365.79865 157.54614l0 1.1875l-9.234375 0l0 -13.0625l8.953125 0l0 1.203125l-7.578125 0l0 4.640625l6.765625 0l0 1.171875l-6.765625 0l0 4.859375l7.859375 0z" fill-rule="nonzero"/><path fill="#000000" d="m366.14288 167.67114l0 13.0625l-1.140625 0l-8.40625 -10.59375l0 10.59375l-1.375 0l0 -13.0625l1.140625 0l8.40625 10.59375l0 -10.59375l1.375 0z" fill-rule="nonzero"/><path fill="#000000" d="m361.76974 202.84302q-1.9375 0 -3.5 -0.859375q-1.546875 -0.859375 -2.4375 -2.375q-0.890625 -1.515625 -0.890625 -3.40625q0 -1.875 0.890625 -3.390625q0.890625 -1.53125 2.453125 -2.390625q1.5625 -0.859375 3.5 -0.859375q1.453125 0 2.6875 0.484375q1.234375 0.484375 2.09375 1.421875l-0.875 0.875q-1.53125 -1.546875 -3.859375 -1.546875q-1.546875 0 -2.828125 0.71875q-1.265625 0.703125 -1.984375 1.9375q-0.71875 1.21875 -0.71875 2.75q0 1.53125 0.71875 2.765625q0.71875 1.234375 1.984375 1.9375q1.28125 0.703125 2.828125 0.703125q2.34375 0 3.859375 -1.5625l0.875 0.875q-0.859375 0.9375 -2.109375 1.4375q-1.234375 0.484375 -2.6875 0.484375z" fill-rule="nonzero"/><path fill="#000000" d="m360.6816 224.84302q-1.9375 0 -3.515625 -0.859375q-1.5625 -0.875 -2.453125 -2.375q-0.890625 -1.515625 -0.890625 -3.40625q0 -1.875 0.890625 -3.390625q0.890625 -1.515625 2.453125 -2.375q1.578125 -0.875 3.515625 -0.875q1.953125 0 3.5 0.859375q1.5625 0.859375 2.453125 2.390625q0.90625 1.515625 0.90625 3.390625q0 1.890625 -0.90625 3.40625q-0.890625 1.515625 -2.453125 2.375q-1.546875 0.859375 -3.5 0.859375zm0 -1.234375q1.5625 0 2.8125 -0.6875q1.25 -0.703125 1.953125 -1.9375q0.703125 -1.25 0.703125 -2.78125q0 -1.53125 -0.703125 -2.765625q-0.703125 -1.25 -1.953125 -1.9375q-1.25 -0.703125 -2.8125 -0.703125q-1.546875 0 -2.8125 0.703125q-1.25 0.6875 -1.96875 1.9375q-0.71875 1.234375 -0.71875 2.765625q0 1.53125 0.71875 2.78125q0.71875 1.234375 1.96875 1.9375q1.265625 0.6875 2.8125 0.6875z" fill-rule="nonzero"/><path fill="#000000" d="m355.09976 233.67114l5.3125 0q2.078125 0 3.65625 0.828125q1.59375 0.828125 2.46875 2.3125q0.875 1.484375 0.875 3.390625q0 1.90625 -0.875 3.390625q-0.875 1.484375 -2.46875 2.3125q-1.578125 0.828125 -3.65625 0.828125l-5.3125 0l0 -13.0625zm5.25 11.875q1.703125 0 2.984375 -0.6875q1.296875 -0.6875 2.0 -1.890625q0.71875 -1.203125 0.71875 -2.765625q0 -1.5625 -0.71875 -2.765625q-0.703125 -1.203125 -2.0 -1.875q-1.28125 -0.6875 -2.984375 -0.6875l-3.875 0l0 10.671875l3.875 0z" fill-rule="nonzero"/><path fill="#000000" d="m365.79865 267.54614l0 1.1875l-9.234375 0l0 -13.0625l8.953125 0l0 1.203125l-7.578125 0l0 4.640625l6.765625 0l0 1.171875l-6.765625 0l0 4.859375l7.859375 0z" fill-rule="nonzero"/><path fill="#000000" d="m364.98242 290.73364l-2.984375 -4.203125q-0.5 0.0625 -1.046875 0.0625l-3.515625 0l0 4.140625l-1.375 0l0 -13.0625l4.890625 0q2.5 0 3.90625 1.203125q1.421875 1.1875 1.421875 3.28125q0 1.53125 -0.78125 2.59375q-0.765625 1.046875 -2.203125 1.5l3.203125 4.484375l-1.515625 0zm-4.0625 -5.3125q1.9375 0 2.953125 -0.859375q1.03125 -0.859375 1.03125 -2.40625q0 -1.59375 -1.03125 -2.4375q-1.015625 -0.84375 -2.953125 -0.84375l-3.484375 0l0 6.546875l3.484375 0z" fill-rule="nonzero"/><path fill="#000000" d="m357.31052 321.67114l1.375 0l0 11.875l7.328125 0l0 1.1875l-8.703125 0l0 -13.0625z" fill-rule="nonzero"/><path fill="#000000" d="m364.30402 353.24927l-7.265625 0l-1.578125 3.484375l-1.4375 0l5.96875 -13.0625l1.375 0l5.96875 13.0625l-1.453125 0l-1.578125 -3.484375zm-0.5 -1.125l-3.140625 -7.015625l-3.125 7.015625l6.265625 0z" fill-rule="nonzero"/><path fill="#000000" d="m361.3658 374.21802l0 4.515625l-1.359375 0l0 -4.515625l-5.234375 -8.546875l1.484375 0l4.46875 7.328125l4.484375 -7.328125l1.375 0l-5.21875 8.546875z" fill-rule="nonzero"/><path fill="#000000" d="m365.79865 399.54614l0 1.1875l-9.234375 0l0 -13.0625l8.953125 0l0 1.203125l-7.578125 0l0 4.640625l6.765625 0l0 1.171875l-6.765625 0l0 4.859375l7.859375 0z" fill-rule="nonzero"/><path fill="#000000" d="m364.98242 422.73364l-2.984375 -4.203125q-0.5 0.0625 -1.046875 0.0625l-3.515625 0l0 4.140625l-1.375 0l0 -13.0625l4.890625 0q2.5 0 3.90625 1.203125q1.421875 1.1875 1.421875 3.28125q0 1.53125 -0.78125 2.59375q-0.765625 1.046875 -2.203125 1.5l3.203125 4.484375l-1.515625 0zm-4.0625 -5.3125q1.9375 0 2.953125 -0.859375q1.03125 -0.859375 1.03125 -2.40625q0 -1.59375 -1.03125 -2.4375q-1.015625 -0.84375 -2.953125 -0.84375l-3.484375 0l0 6.546875l3.484375 0z" fill-rule="nonzero"/><path fill="#000000" fill-opacity="0.0" d="m383.2467 294.81366l33.637817 0" fill-rule="evenodd"/><path stroke="#595959" stroke-width="1.0" stroke-linejoin="round" stroke-linecap="butt" d="m383.2467 294.81366l27.637817 0" fill-rule="evenodd"/><path fill="#595959" stroke="#595959" stroke-width="1.0" stroke-linecap="butt" d="m410.88452 296.4654l4.538086 -1.6517334l-4.538086 -1.6517334z" fill-rule="evenodd"/><path fill="#ead1dc" d="m422.24933 243.94489l127.74805 0l0 110.078735l-127.74805 0z" fill-rule="evenodd"/><path stroke="#595959" stroke-width="2.0" stroke-linejoin="round" stroke-linecap="butt" d="m422.24933 243.94489l127.74805 0l0 110.078735l-127.74805 0z" fill-rule="evenodd"/><path fill="#000000" d="m464.4789 281.84177l0 13.0625l-1.375 0l0 -6.03125l-8.171875 0l0 6.03125l-1.375 0l0 -13.0625l1.375 0l0 5.828125l8.171875 0l0 -5.828125l1.375 0zm3.9644165 3.25l1.328125 0l0 9.8125l-1.328125 0l0 -9.8125zm0.671875 -2.140625q-0.40625 0 -0.6875 -0.28125q-0.28125 -0.28125 -0.28125 -0.671875q0 -0.375 0.28125 -0.65625q0.28125 -0.28125 0.6875 -0.28125q0.40625 0 0.6875 0.28125q0.28125 0.265625 0.28125 0.640625q0 0.40625 -0.28125 0.6875q-0.28125 0.28125 -0.6875 0.28125zm13.299805 -1.890625l0 13.84375l-1.265625 0l0 -1.9375q-0.59375 0.984375 -1.578125 1.515625q-0.96875 0.515625 -2.203125 0.515625q-1.390625 0 -2.515625 -0.625q-1.109375 -0.640625 -1.75 -1.78125q-0.625 -1.140625 -0.625 -2.59375q0 -1.453125 0.625 -2.59375q0.640625 -1.140625 1.75 -1.765625q1.125 -0.625 2.515625 -0.625q1.1875 0 2.140625 0.5q0.96875 0.484375 1.59375 1.4375l0 -5.890625l1.3125 0zm-4.9375 12.765625q1.03125 0 1.859375 -0.46875q0.828125 -0.484375 1.296875 -1.359375q0.484375 -0.875 0.484375 -2.0q0 -1.125 -0.484375 -2.0q-0.46875 -0.875 -1.296875 -1.34375q-0.828125 -0.484375 -1.859375 -0.484375q-1.046875 0 -1.875 0.484375q-0.828125 0.46875 -1.3125 1.34375q-0.46875 0.875 -0.46875 2.0q0 1.125 0.46875 2.0q0.484375 0.875 1.3125 1.359375q0.828125 0.46875 1.875 0.46875zm17.586426 -12.765625l0 13.84375l-1.265625 0l0 -1.9375q-0.59375 0.984375 -1.578125 1.515625q-0.96875 0.515625 -2.203125 0.515625q-1.390625 0 -2.515625 -0.625q-1.109375 -0.640625 -1.75 -1.78125q-0.625 -1.140625 -0.625 -2.59375q0 -1.453125 0.625 -2.59375q0.640625 -1.140625 1.75 -1.765625q1.125 -0.625 2.515625 -0.625q1.1875 0 2.140625 0.5q0.96875 0.484375 1.59375 1.4375l0 -5.890625l1.3125 0zm-4.9375 12.765625q1.03125 0 1.859375 -0.46875q0.828125 -0.484375 1.296875 -1.359375q0.484375 -0.875 0.484375 -2.0q0 -1.125 -0.484375 -2.0q-0.46875 -0.875 -1.296875 -1.34375q-0.828125 -0.484375 -1.859375 -0.484375q-1.046875 0 -1.875 0.484375q-0.828125 0.46875 -1.3125 1.34375q-0.46875 0.875 -0.46875 2.0q0 1.125 0.46875 2.0q0.484375 0.875 1.3125 1.359375q0.828125 0.46875 1.875 0.46875zm17.180206 -3.421875l-8.203125 0q0.109375 1.53125 1.171875 2.484375q1.0625 0.9375 2.6875 0.9375q0.90625 0 1.671875 -0.328125q0.765625 -0.328125 1.328125 -0.96875l0.75 0.859375q-0.65625 0.78125 -1.640625 1.203125q-0.96875 0.40625 -2.15625 0.40625q-1.5 0 -2.671875 -0.640625q-1.15625 -0.640625 -1.8125 -1.78125q-0.65625 -1.140625 -0.65625 -2.578125q0 -1.4375 0.625 -2.578125q0.625 -1.140625 1.71875 -1.765625q1.09375 -0.640625 2.453125 -0.640625q1.359375 0 2.4375 0.640625q1.078125 0.625 1.6875 1.765625q0.625 1.125 0.625 2.578125l-0.015625 0.40625zm-4.734375 -4.25q-1.421875 0 -2.390625 0.90625q-0.953125 0.90625 -1.078125 2.359375l6.953125 0q-0.125 -1.453125 -1.09375 -2.359375q-0.953125 -0.90625 -2.390625 -0.90625zm12.455872 -1.140625q1.84375 0 2.9375 1.078125q1.09375 1.0625 1.09375 3.125l0 5.6875l-1.328125 0l0 -5.5625q0 -1.53125 -0.765625 -2.328125q-0.765625 -0.796875 -2.171875 -0.796875q-1.59375 0 -2.515625 0.9375q-0.921875 0.9375 -0.921875 2.59375l0 5.15625l-1.328125 0l0 -9.8125l1.265625 0l0 1.8125q0.546875 -0.90625 1.5 -1.390625q0.96875 -0.5 2.234375 -0.5z" fill-rule="nonzero"/><path fill="#000000" d="m467.58606 317.0136q-1.46875 0 -2.796875 -0.46875q-1.328125 -0.46875 -2.0625 -1.21875l0.546875 -1.078125q0.703125 0.71875 1.875 1.15625q1.1875 0.4375 2.4375 0.4375q1.75 0 2.625 -0.640625q0.875 -0.640625 0.875 -1.671875q0 -0.78125 -0.484375 -1.25q-0.46875 -0.46875 -1.15625 -0.71875q-0.6875 -0.25 -1.921875 -0.546875q-1.46875 -0.375 -2.359375 -0.71875q-0.875 -0.34375 -1.5 -1.046875q-0.625 -0.71875 -0.625 -1.9375q0 -0.984375 0.515625 -1.796875q0.53125 -0.8125 1.609375 -1.296875q1.09375 -0.484375 2.6875 -0.484375q1.125 0 2.1875 0.3125q1.078125 0.296875 1.875 0.84375l-0.46875 1.109375q-0.828125 -0.546875 -1.765625 -0.8125q-0.921875 -0.28125 -1.828125 -0.28125q-1.703125 0 -2.578125 0.671875q-0.859375 0.65625 -0.859375 1.703125q0 0.78125 0.46875 1.265625q0.46875 0.46875 1.1875 0.71875q0.71875 0.25 1.9375 0.546875q1.4375 0.359375 2.3125 0.703125q0.890625 0.34375 1.5 1.046875q0.625 0.703125 0.625 1.890625q0 0.984375 -0.53125 1.796875q-0.53125 0.8125 -1.640625 1.296875q-1.09375 0.46875 -2.6875 0.46875zm12.754852 -0.703125q-0.375 0.328125 -0.921875 0.515625q-0.546875 0.171875 -1.15625 0.171875q-1.375 0 -2.125 -0.75q-0.734375 -0.75 -0.734375 -2.109375l0 -5.921875l-1.765625 0l0 -1.125l1.765625 0l0 -2.140625l1.3125 0l0 2.140625l2.984375 0l0 1.125l-2.984375 0l0 5.859375q0 0.875 0.4375 1.328125q0.4375 0.453125 1.265625 0.453125q0.40625 0 0.78125 -0.125q0.390625 -0.140625 0.671875 -0.375l0.46875 0.953125zm5.8400574 -9.296875q1.921875 0 2.9375 0.96875q1.03125 0.953125 1.03125 2.84375l0 6.078125l-1.265625 0l0 -1.53125q-0.453125 0.765625 -1.328125 1.203125q-0.859375 0.421875 -2.046875 0.421875q-1.640625 0 -2.609375 -0.78125q-0.96875 -0.78125 -0.96875 -2.078125q0 -1.25 0.890625 -2.015625q0.90625 -0.765625 2.890625 -0.765625l3.109375 0l0 -0.59375q0 -1.265625 -0.703125 -1.921875q-0.703125 -0.671875 -2.0625 -0.671875q-0.9375 0 -1.796875 0.3125q-0.859375 0.3125 -1.46875 0.84375l-0.609375 -0.984375q0.75 -0.640625 1.796875 -0.984375q1.046875 -0.34375 2.203125 -0.34375zm-0.46875 8.9375q1.125 0 1.921875 -0.515625q0.796875 -0.515625 1.1875 -1.484375l0 -1.59375l-3.078125 0q-2.515625 0 -2.515625 1.75q0 0.859375 0.65625 1.359375q0.65625 0.484375 1.828125 0.484375zm13.210297 0.359375q-0.375 0.328125 -0.921875 0.515625q-0.546875 0.171875 -1.15625 0.171875q-1.375 0 -2.125 -0.75q-0.734375 -0.75 -0.734375 -2.109375l0 -5.921875l-1.765625 0l0 -1.125l1.765625 0l0 -2.140625l1.3125 0l0 2.140625l2.984375 0l0 1.125l-2.984375 0l0 5.859375q0 0.875 0.4375 1.328125q0.4375 0.453125 1.265625 0.453125q0.40625 0 0.78125 -0.125q0.390625 -0.140625 0.671875 -0.375l0.46875 0.953125zm10.594788 -3.90625l-8.203125 0q0.109375 1.53125 1.171875 2.484375q1.0625 0.9375 2.6875 0.9375q0.90625 0 1.671875 -0.328125q0.765625 -0.328125 1.328125 -0.96875l0.75 0.859375q-0.65625 0.78125 -1.640625 1.203125q-0.96875 0.40625 -2.15625 0.40625q-1.5 0 -2.671875 -0.640625q-1.15625 -0.640625 -1.8125 -1.78125q-0.65625 -1.140625 -0.65625 -2.578125q0 -1.4375 0.625 -2.578125q0.625 -1.140625 1.71875 -1.765625q1.09375 -0.640625 2.453125 -0.640625q1.359375 0 2.4375 0.640625q1.078125 0.625 1.6875 1.765625q0.625 1.125 0.625 2.578125l-0.015625 0.40625zm-4.734375 -4.25q-1.421875 0 -2.390625 0.90625q-0.953125 0.90625 -1.078125 2.359375l6.953125 0q-0.125 -1.453125 -1.09375 -2.359375q-0.953125 -0.90625 -2.390625 -0.90625z" fill-rule="nonzero"/><path fill="#000000" fill-opacity="0.0" d="m549.9974 298.98425l48.944885 0" fill-rule="evenodd"/><path stroke="#595959" stroke-width="1.0" stroke-linejoin="round" stroke-linecap="butt" d="m549.9974 298.98425l42.944885 0" fill-rule="evenodd"/><path fill="#595959" stroke="#595959" stroke-width="1.0" stroke-linecap="butt" d="m592.94226 300.636l4.538086 -1.6517334l-4.538086 -1.6517334z" fill-rule="evenodd"/><path fill="#cfe2f3" d="m598.94226 183.48819l45.13385 0l0 230.99213l-45.13385 0z" fill-rule="evenodd"/><path stroke="#595959" stroke-width="2.0" stroke-linejoin="round" stroke-linecap="butt" d="m598.94226 183.48819l45.13385 0l0 230.99213l-45.13385 0z" fill-rule="evenodd"/><path fill="#000000" d="m628.2883 248.84175l0 13.062485l-1.328125 0l0 -10.45311l-5.125 8.79686l-0.65625 0l-5.125 -8.73436l0 10.39061l-1.328125 0l0 -13.062485l1.140625 0l5.671875 9.687485l5.609375 -9.687485l1.140625 0z" fill-rule="nonzero"/><path fill="#000000" d="m621.511 284.0136q-1.9375 0 -3.515625 -0.859375q-1.5625 -0.875 -2.453125 -2.375q-0.890625 -1.515625 -0.890625 -3.40625q0 -1.875 0.890625 -3.390625q0.890625 -1.515625 2.453125 -2.375q1.578125 -0.875 3.515625 -0.875q1.953125 0 3.5 0.859375q1.5625 0.859375 2.453125 2.390625q0.90625 1.515625 0.90625 3.390625q0 1.890625 -0.90625 3.40625q-0.890625 1.515625 -2.453125 2.375q-1.546875 0.859375 -3.5 0.859375zm0 -1.234375q1.5625 0 2.8125 -0.6875q1.25 -0.703125 1.953125 -1.9375q0.703125 -1.25 0.703125 -2.78125q0 -1.53125 -0.703125 -2.765625q-0.703125 -1.25 -1.953125 -1.9375q-1.25 -0.703125 -2.8125 -0.703125q-1.546875 0 -2.8125 0.703125q-1.25 0.6875 -1.96875 1.9375q-0.71875 1.234375 -0.71875 2.765625q0 1.53125 0.71875 2.78125q0.71875 1.234375 1.96875 1.9375q1.265625 0.6875 2.8125 0.6875z" fill-rule="nonzero"/><path fill="#000000" d="m615.92914 292.84174l5.3125 0q2.078125 0 3.65625 0.828125q1.59375 0.828125 2.46875 2.3125q0.875 1.484375 0.875 3.390625q0 1.90625 -0.875 3.390625q-0.875 1.484375 -2.46875 2.3125q-1.578125 0.828125 -3.65625 0.828125l-5.3125 0l0 -13.0625zm5.25 11.875q1.703125 0 2.984375 -0.6875q1.296875 -0.6875 2.0 -1.890625q0.71875 -1.203125 0.71875 -2.765625q0 -1.5625 -0.71875 -2.765625q-0.703125 -1.203125 -2.0 -1.875q-1.28125 -0.6875 -2.984375 -0.6875l-3.875 0l0 10.671875l3.875 0z" fill-rule="nonzero"/><path fill="#000000" d="m626.62805 326.71674l0 1.1875l-9.234375 0l0 -13.0625l8.953125 0l0 1.203125l-7.578125 0l0 4.640625l6.765625 0l0 1.171875l-6.765625 0l0 4.859375l7.859375 0z" fill-rule="nonzero"/><path fill="#000000" d="m618.1399 336.84174l1.375 0l0 11.875l7.328125 0l0 1.1875l-8.703125 0l0 -13.0625z" fill-rule="nonzero"/><path fill="#000000" fill-opacity="0.0" d="m644.0761 298.98425l42.04724 0" fill-rule="evenodd"/><path stroke="#595959" stroke-width="1.0" stroke-linejoin="round" stroke-linecap="butt" d="m644.0761 298.98425l36.04724 0" fill-rule="evenodd"/><path fill="#595959" stroke="#595959" stroke-width="1.0" stroke-linecap="butt" d="m680.12335 300.636l4.538086 -1.6517334l-4.538086 -1.6517334z" fill-rule="evenodd"/><path stroke="#9e9e9e" stroke-width="2.0" stroke-linecap="butt" d="m693.021 159.86194l0 280.36746" fill-rule="nonzero"/><path stroke="#9e9e9e" stroke-width="2.0" stroke-linecap="butt" d="m738.15485 159.86194l0 280.36746" fill-rule="nonzero"/><path stroke="#9e9e9e" stroke-width="2.0" stroke-linecap="butt" d="m692.021 160.86194l47.13385 0" fill-rule="nonzero"/><path stroke="#9e9e9e" stroke-width="2.0" stroke-linecap="butt" d="m692.021 196.05617l47.13385 0" fill-rule="nonzero"/><path stroke="#9e9e9e" stroke-width="2.0" stroke-linecap="butt" d="m692.021 231.2504l47.13385 0" fill-rule="nonzero"/><path stroke="#9e9e9e" stroke-width="2.0" stroke-linecap="butt" d="m692.021 272.8462l47.13385 0" fill-rule="nonzero"/><path stroke="#9e9e9e" stroke-width="2.0" stroke-linecap="butt" d="m692.021 314.442l47.13385 0" fill-rule="nonzero"/><path stroke="#9e9e9e" stroke-width="2.0" stroke-linecap="butt" d="m692.021 356.03778l47.13385 0" fill-rule="nonzero"/><path stroke="#9e9e9e" stroke-width="2.0" stroke-linecap="butt" d="m692.021 397.6336l47.13385 0" fill-rule="nonzero"/><path stroke="#9e9e9e" stroke-width="2.0" stroke-linecap="butt" d="m692.021 439.2294l47.13385 0" fill-rule="nonzero"/><path fill="#000000" d="m710.76105 179.92757q0 1.21875 -0.875 2.078125q-0.859375 0.859375 -2.09375 0.859375q-1.25 0 -2.125 -0.859375q-0.859375 -0.875 -0.859375 -2.078125q0 -1.21875 0.859375 -2.078125q0.875 -0.875 2.125 -0.875q1.234375 0 2.09375 0.859375q0.875 0.859375 0.875 2.09375zm-0.53125 0q0 -1.0 -0.71875 -1.703125q-0.71875 -0.703125 -1.734375 -0.703125q-1.015625 0 -1.734375 0.703125q-0.703125 0.703125 -0.703125 1.703125q0 0.984375 0.703125 1.703125q0.71875 0.703125 1.734375 0.703125q1.015625 0 1.734375 -0.703125q0.71875 -0.703125 0.71875 -1.703125zm8.33252 0q0 1.21875 -0.875 2.078125q-0.859375 0.859375 -2.09375 0.859375q-1.25 0 -2.125 -0.859375q-0.859375 -0.875 -0.859375 -2.078125q0 -1.21875 0.859375 -2.078125q0.875 -0.875 2.125 -0.875q1.234375 0 2.09375 0.859375q0.875 0.859375 0.875 2.09375zm-0.53125 0q0 -1.0 -0.71875 -1.703125q-0.71875 -0.703125 -1.734375 -0.703125q-1.015625 0 -1.734375 0.703125q-0.703125 0.703125 -0.703125 1.703125q0 0.984375 0.703125 1.703125q0.71875 0.703125 1.734375 0.703125q1.015625 0 1.734375 -0.703125q0.71875 -0.703125 0.71875 -1.703125zm4.7231445 -2.765625l0 1.34375q1.03125 -0.9375 1.546875 -1.203125q0.53125 -0.265625 0.96875 -0.265625q0.46875 0 0.875 0.328125q0.421875 0.3125 0.421875 0.46875q0 0.125 -0.09375 0.203125q-0.078125 0.078125 -0.1875 0.078125q-0.0625 0 -0.109375 -0.015625q-0.046875 -0.03125 -0.171875 -0.140625q-0.21875 -0.234375 -0.390625 -0.3125q-0.15625 -0.078125 -0.3125 -0.078125q-0.359375 0 -0.859375 0.28125q-0.484375 0.28125 -1.6875 1.359375l0 2.921875l2.359375 0q0.203125 0 0.28125 0.078125q0.078125 0.0625 0.078125 0.1875q0 0.109375 -0.078125 0.1875q-0.078125 0.078125 -0.28125 0.078125l-4.1875 0q-0.1875 0 -0.28125 -0.0625q-0.078125 -0.078125 -0.078125 -0.203125q0 -0.109375 0.078125 -0.171875q0.09375 -0.078125 0.28125 -0.078125l1.296875 0l0 -4.4375l-0.984375 0q-0.1875 0 -0.28125 -0.078125q-0.078125 -0.078125 -0.078125 -0.203125q0 -0.109375 0.078125 -0.1875q0.078125 -0.078125 0.28125 -0.078125l1.515625 0z" fill-rule="nonzero"/><path fill="#000000" d="m708.0579 209.6218l0 1.375l-0.796875 0l0 -1.375l0.796875 0zm0.015625 2.734375l0 4.96875l2.09375 0q0.1875 0 0.265625 0.078125q0.09375 0.0625 0.09375 0.1875q0 0.109375 -0.09375 0.1875q-0.078125 0.078125 -0.265625 0.078125l-4.71875 0q-0.203125 0 -0.28125 -0.078125q-0.078125 -0.078125 -0.078125 -0.1875q0 -0.125 0.078125 -0.1875q0.078125 -0.078125 0.28125 -0.078125l2.09375 0l0 -4.421875l-1.5625 0q-0.1875 0 -0.28125 -0.078125q-0.078125 -0.078125 -0.078125 -0.1875q0 -0.125 0.078125 -0.203125q0.078125 -0.078125 0.28125 -0.078125l2.09375 0zm10.48877 2.765625q0 1.21875 -0.875 2.078125q-0.859375 0.859375 -2.09375 0.859375q-1.25 0 -2.125 -0.859375q-0.859375 -0.875 -0.859375 -2.078125q0 -1.21875 0.859375 -2.078125q0.875 -0.875 2.125 -0.875q1.234375 0 2.09375 0.859375q0.875 0.859375 0.875 2.09375zm-0.53125 0q0 -1.0 -0.71875 -1.703125q-0.71875 -0.703125 -1.734375 -0.703125q-1.015625 0 -1.734375 0.703125q-0.703125 0.703125 -0.703125 1.703125q0 0.984375 0.703125 1.703125q0.71875 0.703125 1.734375 0.703125q1.015625 0 1.734375 -0.703125q0.71875 -0.703125 0.71875 -1.703125zm5.6293945 -5.234375l0 7.4375l2.09375 0q0.203125 0 0.28125 0.078125q0.078125 0.0625 0.078125 0.1875q0 0.109375 -0.078125 0.1875q-0.078125 0.078125 -0.28125 0.078125l-4.71875 0q-0.1875 0 -0.28125 -0.078125q-0.078125 -0.078125 -0.078125 -0.1875q0 -0.125 0.078125 -0.1875q0.09375 -0.078125 0.28125 -0.078125l2.09375 0l0 -6.890625l-1.546875 0q-0.1875 0 -0.28125 -0.078125q-0.078125 -0.078125 -0.078125 -0.203125q0 -0.109375 0.078125 -0.1875q0.09375 -0.078125 0.28125 -0.078125l2.078125 0z" fill-rule="nonzero"/><path fill="#000000" d="m709.5005 258.17038l0 -1.875l1.875 0l0 1.875l-1.875 0zm5.1832886 0l0 -1.875l1.875 0l0 1.875l-1.875 0zm5.1832886 0l0 -1.875l1.875 0l0 1.875l-1.875 0z" fill-rule="nonzero"/><path fill="#000000" d="m709.5005 299.7662l0 -1.875l1.875 0l0 1.875l-1.875 0zm5.1832886 0l0 -1.875l1.875 0l0 1.875l-1.875 0zm5.1832886 0l0 -1.875l1.875 0l0 1.875l-1.875 0z" fill-rule="nonzero"/><path fill="#000000" d="m709.5005 341.362l0 -1.875l1.875 0l0 1.875l-1.875 0zm5.1832886 0l0 -1.875l1.875 0l0 1.875l-1.875 0zm5.1832886 0l0 -1.875l1.875 0l0 1.875l-1.875 0z" fill-rule="nonzero"/><path fill="#000000" d="m709.5005 382.9578l0 -1.875l1.875 0l0 1.875l-1.875 0zm5.1832886 0l0 -1.875l1.875 0l0 1.875l-1.875 0zm5.1832886 0l0 -1.875l1.875 0l0 1.875l-1.875 0z" fill-rule="nonzero"/><path fill="#000000" d="m709.5005 424.5536l0 -1.875l1.875 0l0 1.875l-1.875 0zm5.1832886 0l0 -1.875l1.875 0l0 1.875l-1.875 0zm5.1832886 0l0 -1.875l1.875 0l0 1.875l-1.875 0z" fill-rule="nonzero"/><path fill="#000000" fill-opacity="0.0" d="m738.1417 299.01575l25.228333 0" fill-rule="evenodd"/><path stroke="#595959" stroke-width="1.0" stroke-linejoin="round" stroke-linecap="butt" d="m738.1417 299.01575l19.228333 0" fill-rule="evenodd"/><path fill="#595959" stroke="#595959" stroke-width="1.0" stroke-linecap="butt" d="m757.37006 300.66748l4.538147 -1.6517334l-4.538147 -1.6517334z" fill-rule="evenodd"/><path fill="#000000" fill-opacity="0.0" d="m772.5617 282.27036l64.25195 0l0 35.55905l-64.25195 0z" fill-rule="evenodd"/><path fill="#000000" d="m784.7961 296.1016l1.734375 0l0.921875 3.296875q0.015625 0.078125 0.015625 0.15625q0 0.140625 -0.109375 0.265625q-0.109375 0.109375 -0.28125 0.109375q-0.21875 0 -0.390625 -0.328125l-1.890625 -3.5zm8.73877 -0.265625l0 1.375l-0.796875 0l0 -1.375l0.796875 0zm0.015625 2.734375l0 4.96875l2.09375 0q0.1875 0 0.265625 0.078125q0.09375 0.0625 0.09375 0.1875q0 0.109375 -0.09375 0.1875q-0.078125 0.078125 -0.265625 0.078125l-4.71875 0q-0.203125 0 -0.28125 -0.078125q-0.078125 -0.078125 -0.078125 -0.1875q0 -0.125 0.078125 -0.1875q0.078125 -0.078125 0.28125 -0.078125l2.09375 0l0 -4.421875l-1.5625 0q-0.1875 0 -0.28125 -0.078125q-0.078125 -0.078125 -0.078125 -0.1875q0 -0.125 0.078125 -0.203125q0.078125 -0.078125 0.28125 -0.078125l2.09375 0zm10.48877 2.765625q0 1.21875 -0.875 2.078125q-0.859375 0.859375 -2.09375 0.859375q-1.25 0 -2.125 -0.859375q-0.859375 -0.875 -0.859375 -2.078125q0 -1.21875 0.859375 -2.078125q0.875 -0.875 2.125 -0.875q1.234375 0 2.09375 0.859375q0.875 0.859375 0.875 2.09375zm-0.53125 0q0 -1.0 -0.71875 -1.703125q-0.71875 -0.703125 -1.734375 -0.703125q-1.015625 0 -1.734375 0.703125q-0.703125 0.703125 -0.703125 1.703125q0 0.984375 0.703125 1.703125q0.71875 0.703125 1.734375 0.703125q1.015625 0 1.734375 -0.703125q0.71875 -0.703125 0.71875 -1.703125zm5.6293945 -5.234375l0 7.4375l2.09375 0q0.203125 0 0.28125 0.078125q0.078125 0.0625 0.078125 0.1875q0 0.109375 -0.078125 0.1875q-0.078125 0.078125 -0.28125 0.078125l-4.71875 0q-0.1875 0 -0.28125 -0.078125q-0.078125 -0.078125 -0.078125 -0.1875q0 -0.125 0.078125 -0.1875q0.09375 -0.078125 0.28125 -0.078125l2.09375 0l0 -6.890625l-1.546875 0q-0.1875 0 -0.28125 -0.078125q-0.078125 -0.078125 -0.078125 -0.203125q0 -0.109375 0.078125 -0.1875q0.09375 -0.078125 0.28125 -0.078125l2.078125 0zm6.4418945 0l1.71875 0l-1.875 3.5q-0.171875 0.328125 -0.421875 0.328125q-0.15625 0 -0.265625 -0.109375q-0.109375 -0.125 -0.109375 -0.28125q0 -0.0625 0.015625 -0.140625l0.9375 -3.296875z" fill-rule="nonzero"/><path fill="#000000" fill-opacity="0.0" d="m889.4969 489.57657l57.606323 0l0 41.322845l-57.606323 0z" fill-rule="evenodd"/><path fill="#595959" d="m937.39386 513.91296l0 1.125l-6.296875 0q-0.015625 -0.421875 0.140625 -0.8125q0.234375 -0.640625 0.765625 -1.265625q0.53125 -0.625 1.53125 -1.4530945q1.5625 -1.265625 2.109375 -2.015625q0.546875 -0.75 0.546875 -1.40625q0 -0.703125 -0.5 -1.171875q-0.5 -0.484375 -1.296875 -0.484375q-0.859375 0 -1.375 0.515625q-0.5 0.5 -0.5 1.390625l-1.203125 -0.109375q0.125 -1.359375 0.921875 -2.0625q0.8125 -0.703125 2.171875 -0.703125q1.375 0 2.171875 0.765625q0.8125 0.75 0.8125 1.875q0 0.578125 -0.234375 1.140625q-0.234375 0.546875 -0.78125 1.15625q-0.546875 0.609375 -1.8125 1.6718445q-1.046875 0.890625 -1.359375 1.21875q-0.296875 0.3125 -0.484375 0.625l4.671875 0z" fill-rule="nonzero"/><path fill="#000000" fill-opacity="0.0" d="m507.00656 139.5433l229.0079 0l0 51.716537l-229.0079 0z" fill-rule="evenodd"/><path fill="#000000" d="m582.8061 161.42143q-1.390625 0 -2.515625 -0.609375q-1.109375 -0.609375 -1.75 -1.6875q-0.625 -1.09375 -0.625 -2.453125q0 -1.34375 0.625 -2.421875q0.640625 -1.09375 1.765625 -1.703125q1.125 -0.609375 2.5 -0.609375q1.046875 0 1.921875 0.34375q0.890625 0.34375 1.5 1.015625l-0.625 0.625q-1.09375 -1.109375 -2.765625 -1.109375q-1.109375 0 -2.015625 0.515625q-0.90625 0.5 -1.421875 1.390625q-0.5 0.875 -0.5 1.953125q0 1.09375 0.5 1.984375q0.515625 0.875 1.421875 1.390625q0.90625 0.5 2.015625 0.5q1.6875 0 2.765625 -1.125l0.625 0.625q-0.609375 0.671875 -1.5 1.03125q-0.890625 0.34375 -1.921875 0.34375zm5.3172607 -9.96875l0.953125 0l0 9.890625l-0.953125 0l0 -9.890625zm6.038391 2.828125q1.375 0 2.109375 0.6875q0.734375 0.6875 0.734375 2.03125l0 4.34375l-0.90625 0l0 -1.09375q-0.3125 0.546875 -0.9375 0.859375q-0.625 0.296875 -1.46875 0.296875q-1.171875 0 -1.875 -0.546875q-0.6875 -0.5625 -0.6875 -1.484375q0 -0.890625 0.640625 -1.4375q0.65625 -0.546875 2.0625 -0.546875l2.234375 0l0 -0.4375q0 -0.90625 -0.515625 -1.375q-0.5 -0.46875 -1.484375 -0.46875q-0.65625 0 -1.28125 0.21875q-0.609375 0.21875 -1.046875 0.609375l-0.421875 -0.71875q0.53125 -0.453125 1.28125 -0.6875q0.75 -0.25 1.5625 -0.25zm-0.328125 6.375q0.796875 0 1.375 -0.359375q0.578125 -0.359375 0.859375 -1.0625l0 -1.140625l-2.203125 0q-1.796875 0 -1.796875 1.25q0 0.609375 0.453125 0.96875q0.46875 0.34375 1.3125 0.34375zm7.6292114 0.75q-0.859375 0 -1.640625 -0.234375q-0.78125 -0.25 -1.21875 -0.625l0.421875 -0.75q0.453125 0.34375 1.109375 0.5625q0.671875 0.21875 1.390625 0.21875q0.953125 0 1.40625 -0.296875q0.46875 -0.296875 0.46875 -0.84375q0 -0.390625 -0.25 -0.609375q-0.25 -0.21875 -0.640625 -0.328125q-0.390625 -0.109375 -1.03125 -0.21875q-0.84375 -0.15625 -1.375 -0.328125q-0.515625 -0.171875 -0.890625 -0.5625q-0.359375 -0.40625 -0.359375 -1.109375q0 -0.875 0.734375 -1.4375q0.734375 -0.5625 2.046875 -0.5625q0.671875 0 1.34375 0.1875q0.6875 0.171875 1.125 0.46875l-0.40625 0.75q-0.859375 -0.59375 -2.0625 -0.59375q-0.90625 0 -1.375 0.328125q-0.453125 0.3125 -0.453125 0.828125q0 0.40625 0.25 0.640625q0.265625 0.234375 0.65625 0.359375q0.390625 0.109375 1.0625 0.234375q0.84375 0.15625 1.34375 0.3125q0.515625 0.15625 0.875 0.546875q0.359375 0.390625 0.359375 1.0625q0 0.921875 -0.765625 1.46875q-0.765625 0.53125 -2.125 0.53125zm6.517395 0q-0.859375 0 -1.640625 -0.234375q-0.78125 -0.25 -1.21875 -0.625l0.421875 -0.75q0.453125 0.34375 1.109375 0.5625q0.671875 0.21875 1.390625 0.21875q0.953125 0 1.40625 -0.296875q0.46875 -0.296875 0.46875 -0.84375q0 -0.390625 -0.25 -0.609375q-0.25 -0.21875 -0.640625 -0.328125q-0.390625 -0.109375 -1.03125 -0.21875q-0.84375 -0.15625 -1.375 -0.328125q-0.515625 -0.171875 -0.890625 -0.5625q-0.359375 -0.40625 -0.359375 -1.109375q0 -0.875 0.734375 -1.4375q0.734375 -0.5625 2.046875 -0.5625q0.671875 0 1.34375 0.1875q0.6875 0.171875 1.125 0.46875l-0.40625 0.75q-0.859375 -0.59375 -2.0625 -0.59375q-0.90625 0 -1.375 0.328125q-0.453125 0.3125 -0.453125 0.828125q0 0.40625 0.25 0.640625q0.265625 0.234375 0.65625 0.359375q0.390625 0.109375 1.0625 0.234375q0.84375 0.15625 1.34375 0.3125q0.515625 0.15625 0.875 0.546875q0.359375 0.390625 0.359375 1.0625q0 0.921875 -0.765625 1.46875q-0.765625 0.53125 -2.125 0.53125zm4.626831 -7.078125l0.953125 0l0 7.015625l-0.953125 0l0 -7.015625zm0.484375 -1.53125q-0.296875 0 -0.5 -0.1875q-0.1875 -0.203125 -0.1875 -0.484375q0 -0.265625 0.1875 -0.46875q0.203125 -0.203125 0.5 -0.203125q0.296875 0 0.484375 0.203125q0.203125 0.1875 0.203125 0.453125q0 0.296875 -0.203125 0.5q-0.1875 0.1875 -0.484375 0.1875zm5.428955 -0.609375q-0.609375 0 -0.921875 0.34375q-0.3125 0.328125 -0.3125 0.96875l0 0.828125l2.15625 0l0 0.8125l-2.140625 0l0 6.203125l-0.9375 0l0 -6.203125l-1.25 0l0 -0.8125l1.25 0l0 -0.859375q0 -0.96875 0.546875 -1.515625q0.546875 -0.5625 1.5625 -0.5625q0.40625 0 0.78125 0.109375q0.375 0.109375 0.625 0.328125l-0.328125 0.703125q-0.40625 -0.34375 -1.03125 -0.34375zm3.25 2.140625l0.953125 0l0 7.015625l-0.953125 0l0 -7.015625zm0.484375 -1.53125q-0.296875 0 -0.5 -0.1875q-0.1875 -0.203125 -0.1875 -0.484375q0 -0.265625 0.1875 -0.46875q0.203125 -0.203125 0.5 -0.203125q0.296875 0 0.484375 0.203125q0.203125 0.1875 0.203125 0.453125q0 0.296875 -0.203125 0.5q-0.1875 0.1875 -0.484375 0.1875zm6.013489 8.609375q-1.03125 0 -1.859375 -0.453125q-0.8125 -0.453125 -1.28125 -1.265625q-0.46875 -0.828125 -0.46875 -1.84375q0 -1.03125 0.46875 -1.84375q0.46875 -0.8125 1.28125 -1.265625q0.828125 -0.453125 1.859375 -0.453125q0.90625 0 1.625 0.359375q0.71875 0.34375 1.125 1.03125l-0.703125 0.46875q-0.34375 -0.515625 -0.890625 -0.765625q-0.53125 -0.265625 -1.15625 -0.265625q-0.75 0 -1.359375 0.34375q-0.609375 0.328125 -0.953125 0.953125q-0.328125 0.625 -0.328125 1.4375q0 0.8125 0.328125 1.4375q0.34375 0.609375 0.953125 0.953125q0.609375 0.34375 1.359375 0.34375q0.625 0 1.15625 -0.25q0.546875 -0.265625 0.890625 -0.78125l0.703125 0.484375q-0.40625 0.671875 -1.125 1.03125q-0.71875 0.34375 -1.625 0.34375zm7.050598 -7.125q1.375 0 2.109375 0.6875q0.734375 0.6875 0.734375 2.03125l0 4.34375l-0.90625 0l0 -1.09375q-0.3125 0.546875 -0.9375 0.859375q-0.625 0.296875 -1.46875 0.296875q-1.171875 0 -1.875 -0.546875q-0.6875 -0.5625 -0.6875 -1.484375q0 -0.890625 0.640625 -1.4375q0.65625 -0.546875 2.0625 -0.546875l2.234375 0l0 -0.4375q0 -0.90625 -0.515625 -1.375q-0.5 -0.46875 -1.484375 -0.46875q-0.65625 0 -1.28125 0.21875q-0.609375 0.21875 -1.046875 0.609375l-0.421875 -0.71875q0.53125 -0.453125 1.28125 -0.6875q0.75 -0.25 1.5625 -0.25zm-0.328125 6.375q0.796875 0 1.375 -0.359375q0.578125 -0.359375 0.859375 -1.0625l0 -1.140625l-2.203125 0q-1.796875 0 -1.796875 1.25q0 0.609375 0.453125 0.96875q0.46875 0.34375 1.3125 0.34375zm9.441711 0.265625q-0.265625 0.234375 -0.671875 0.359375q-0.390625 0.125 -0.8125 0.125q-0.984375 0 -1.515625 -0.53125q-0.53125 -0.53125 -0.53125 -1.5l0 -4.234375l-1.25 0l0 -0.8125l1.25 0l0 -1.53125l0.9375 0l0 1.53125l2.140625 0l0 0.8125l-2.140625 0l0 4.171875q0 0.625 0.3125 0.953125q0.3125 0.328125 0.90625 0.328125q0.296875 0 0.5625 -0.09375q0.28125 -0.09375 0.46875 -0.265625l0.34375 0.6875zm1.7080688 -6.59375l0.953125 0l0 7.015625l-0.953125 0l0 -7.015625zm0.484375 -1.53125q-0.296875 0 -0.5 -0.1875q-0.1875 -0.203125 -0.1875 -0.484375q0 -0.265625 0.1875 -0.46875q0.203125 -0.203125 0.5 -0.203125q0.296875 0 0.484375 0.203125q0.203125 0.1875 0.203125 0.453125q0 0.296875 -0.203125 0.5q-0.1875 0.1875 -0.484375 0.1875zm5.97583 8.609375q-1.015625 0 -1.828125 -0.453125q-0.8125 -0.46875 -1.28125 -1.28125q-0.46875 -0.8125 -0.46875 -1.828125q0 -1.03125 0.46875 -1.84375q0.46875 -0.8125 1.28125 -1.265625q0.8125 -0.453125 1.828125 -0.453125q1.015625 0 1.828125 0.453125q0.8125 0.453125 1.265625 1.265625q0.46875 0.8125 0.46875 1.84375q0 1.015625 -0.46875 1.828125q-0.453125 0.8125 -1.265625 1.28125q-0.8125 0.453125 -1.828125 0.453125zm0 -0.828125q0.75 0 1.34375 -0.34375q0.59375 -0.34375 0.921875 -0.96875q0.328125 -0.625 0.328125 -1.421875q0 -0.8125 -0.328125 -1.4375q-0.328125 -0.625 -0.921875 -0.953125q-0.59375 -0.34375 -1.34375 -0.34375q-0.75 0 -1.34375 0.34375q-0.59375 0.328125 -0.9375 0.953125q-0.328125 0.625 -0.328125 1.4375q0 0.796875 0.328125 1.421875q0.34375 0.625 0.9375 0.96875q0.59375 0.34375 1.34375 0.34375zm9.0598755 -6.296875q1.3125 0 2.09375 0.765625q0.78125 0.765625 0.78125 2.234375l0 4.0625l-0.9375 0l0 -3.96875q0 -1.09375 -0.546875 -1.65625q-0.546875 -0.578125 -1.5625 -0.578125q-1.140625 0 -1.796875 0.671875q-0.65625 0.671875 -0.65625 1.859375l0 3.671875l-0.953125 0l0 -7.015625l0.90625 0l0 1.296875q0.390625 -0.640625 1.078125 -0.984375q0.6875 -0.359375 1.59375 -0.359375z" fill-rule="nonzero"/><path fill="#000000" d="m611.8352 168.01518l0 9.328125l-0.9375 0l0 -7.46875l-3.671875 6.28125l-0.46875 0l-3.65625 -6.234375l0 7.421875l-0.953125 0l0 -9.328125l0.8125 0l4.0625 6.921875l4.0 -6.921875l0.8125 0zm5.7127075 9.390625q-1.015625 0 -1.828125 -0.453125q-0.8125 -0.46875 -1.28125 -1.28125q-0.46875 -0.8125 -0.46875 -1.828125q0 -1.03125 0.46875 -1.84375q0.46875 -0.8125 1.28125 -1.265625q0.8125 -0.453125 1.828125 -0.453125q1.015625 0 1.828125 0.453125q0.8125 0.453125 1.265625 1.265625q0.46875 0.8125 0.46875 1.84375q0 1.015625 -0.46875 1.828125q-0.453125 0.8125 -1.265625 1.28125q-0.8125 0.453125 -1.828125 0.453125zm0 -0.828125q0.75 0 1.34375 -0.34375q0.59375 -0.34375 0.921875 -0.96875q0.328125 -0.625 0.328125 -1.421875q0 -0.8125 -0.328125 -1.4375q-0.328125 -0.625 -0.921875 -0.953125q-0.59375 -0.34375 -1.34375 -0.34375q-0.75 0 -1.34375 0.34375q-0.59375 0.328125 -0.9375 0.953125q-0.328125 0.625 -0.328125 1.4375q0 0.796875 0.328125 1.421875q0.34375 0.625 0.9375 0.96875q0.59375 0.34375 1.34375 0.34375zm11.887939 -9.125l0 9.890625l-0.90625 0l0 -1.390625q-0.421875 0.703125 -1.125 1.078125q-0.703125 0.375 -1.578125 0.375q-0.984375 0 -1.796875 -0.453125q-0.796875 -0.453125 -1.25 -1.265625q-0.453125 -0.8125 -0.453125 -1.84375q0 -1.046875 0.453125 -1.859375q0.453125 -0.8125 1.25 -1.25q0.8125 -0.453125 1.796875 -0.453125q0.84375 0 1.53125 0.359375q0.6875 0.34375 1.125 1.03125l0 -4.21875l0.953125 0zm-3.53125 9.125q0.734375 0 1.328125 -0.34375q0.59375 -0.34375 0.921875 -0.96875q0.34375 -0.625 0.34375 -1.421875q0 -0.8125 -0.34375 -1.4375q-0.328125 -0.625 -0.921875 -0.953125q-0.59375 -0.34375 -1.328125 -0.34375q-0.75 0 -1.34375 0.34375q-0.59375 0.328125 -0.9375 0.953125q-0.328125 0.625 -0.328125 1.4375q0 0.796875 0.328125 1.421875q0.34375 0.625 0.9375 0.96875q0.59375 0.34375 1.34375 0.34375zm12.270813 -2.453125l-5.859375 0q0.078125 1.09375 0.828125 1.78125q0.765625 0.671875 1.921875 0.671875q0.65625 0 1.203125 -0.234375q0.546875 -0.234375 0.953125 -0.6875l0.53125 0.609375q-0.46875 0.5625 -1.171875 0.859375q-0.703125 0.28125 -1.53125 0.28125q-1.078125 0 -1.921875 -0.453125q-0.828125 -0.46875 -1.296875 -1.28125q-0.46875 -0.8125 -0.46875 -1.828125q0 -1.03125 0.4375 -1.84375q0.453125 -0.8125 1.234375 -1.265625q0.78125 -0.453125 1.75 -0.453125q0.984375 0 1.75 0.453125q0.78125 0.453125 1.21875 1.265625q0.4375 0.796875 0.4375 1.84375l-0.015625 0.28125zm-3.390625 -3.03125q-1.0 0 -1.6875 0.65625q-0.6875 0.640625 -0.78125 1.671875l4.96875 0q-0.09375 -1.03125 -0.78125 -1.671875q-0.6875 -0.65625 -1.71875 -0.65625zm5.331421 -3.640625l0.953125 0l0 9.890625l-0.953125 0l0 -9.890625z" fill-rule="nonzero"/><path fill="#000000" fill-opacity="0.0" d="m693.9829 195.1181l45.13391 0l0 35.559067l-45.13391 0z" fill-rule="evenodd"/><path stroke="#ff0000" stroke-width="3.0" stroke-linejoin="round" stroke-linecap="butt" d="m693.9829 195.1181l45.13391 0l0 35.559067l-45.13391 0z" fill-rule="evenodd"/><path fill="#000000" fill-opacity="0.0" d="m392.11023 27.779528l175.77954 0l0 58.173233l-175.77954 0z" fill-rule="evenodd"/><path stroke="#000000" stroke-width="1.0" stroke-linejoin="round" stroke-linecap="butt" d="m392.11023 27.779528l175.77954 0l0 58.173233l-175.77954 0z" fill-rule="evenodd"/><path fill="#000000" d="m430.5629 45.019527l-4.15625 0l-0.890625 2.0l-0.828125 0l3.421875 -7.453125l0.765625 0l3.421875 7.453125l-0.84375 0l-0.890625 -2.0zm-0.28125 -0.625l-1.796875 -4.015625l-1.78125 4.015625l3.578125 0zm8.14978 -5.28125l0 7.90625l-0.71875 0l0 -1.109375q-0.34375 0.5625 -0.90625 0.859375q-0.5625 0.296875 -1.265625 0.296875q-0.78125 0 -1.421875 -0.359375q-0.640625 -0.359375 -1.015625 -1.0q-0.359375 -0.65625 -0.359375 -1.484375q0 -0.84375 0.359375 -1.484375q0.375 -0.65625 1.015625 -1.0q0.640625 -0.359375 1.421875 -0.359375q0.6875 0 1.234375 0.28125q0.546875 0.28125 0.890625 0.8125l0 -3.359375l0.765625 0zm-2.828125 7.28125q0.59375 0 1.0625 -0.265625q0.46875 -0.265625 0.734375 -0.765625q0.28125 -0.5 0.28125 -1.140625q0 -0.640625 -0.28125 -1.140625q-0.265625 -0.5 -0.734375 -0.765625q-0.46875 -0.28125 -1.0625 -0.28125q-0.59375 0 -1.078125 0.28125q-0.46875 0.265625 -0.75 0.765625q-0.265625 0.5 -0.265625 1.140625q0 0.640625 0.265625 1.140625q0.28125 0.5 0.75 0.765625q0.484375 0.265625 1.078125 0.265625zm4.100006 2.75q-0.34375 0 -0.65625 -0.09375q-0.3125 -0.09375 -0.515625 -0.265625l0.265625 -0.578125q0.328125 0.28125 0.875 0.28125q0.4375 0 0.671875 -0.265625q0.25 -0.265625 0.25 -0.78125l0 -6.03125l0.75 0l0 6.03125q0 0.78125 -0.421875 1.234375q-0.421875 0.46875 -1.21875 0.46875zm1.265625 -8.96875q-0.234375 0 -0.390625 -0.15625q-0.15625 -0.171875 -0.15625 -0.390625q0 -0.21875 0.15625 -0.375q0.15625 -0.15625 0.390625 -0.15625q0.234375 0 0.390625 0.15625q0.171875 0.15625 0.171875 0.359375q0 0.234375 -0.171875 0.40625q-0.15625 0.15625 -0.390625 0.15625zm4.451111 1.203125q1.09375 0 1.671875 0.546875q0.59375 0.546875 0.59375 1.625l0 3.46875l-0.71875 0l0 -0.875q-0.25 0.4375 -0.75 0.6875q-0.5 0.234375 -1.1875 0.234375q-0.9375 0 -1.484375 -0.4375q-0.546875 -0.453125 -0.546875 -1.1875q0 -0.71875 0.515625 -1.15625q0.515625 -0.4375 1.640625 -0.4375l1.78125 0l0 -0.328125q0 -0.734375 -0.40625 -1.109375q-0.40625 -0.375 -1.1875 -0.375q-0.53125 0 -1.03125 0.171875q-0.484375 0.171875 -0.828125 0.484375l-0.34375 -0.5625q0.421875 -0.359375 1.015625 -0.546875q0.609375 -0.203125 1.265625 -0.203125zm-0.265625 5.09375q0.640625 0 1.09375 -0.28125q0.46875 -0.296875 0.6875 -0.859375l0 -0.90625l-1.765625 0q-1.4375 0 -1.4375 1.0q0 0.484375 0.375 0.765625q0.375 0.28125 1.046875 0.28125zm6.933563 0.59375q-0.828125 0 -1.484375 -0.359375q-0.65625 -0.359375 -1.03125 -1.015625q-0.375 -0.65625 -0.375 -1.46875q0 -0.828125 0.375 -1.46875q0.375 -0.65625 1.03125 -1.015625q0.65625 -0.359375 1.484375 -0.359375q0.734375 0 1.296875 0.28125q0.578125 0.28125 0.90625 0.8125l-0.5625 0.390625q-0.28125 -0.421875 -0.71875 -0.625q-0.421875 -0.203125 -0.921875 -0.203125q-0.609375 0 -1.09375 0.28125q-0.484375 0.265625 -0.765625 0.765625q-0.265625 0.5 -0.265625 1.140625q0 0.640625 0.265625 1.140625q0.28125 0.5 0.765625 0.765625q0.484375 0.265625 1.09375 0.265625q0.5 0 0.921875 -0.1875q0.4375 -0.203125 0.71875 -0.625l0.5625 0.375q-0.328125 0.546875 -0.90625 0.828125q-0.578125 0.28125 -1.296875 0.28125zm8.466034 -2.609375l-4.6875 0q0.0625 0.875 0.671875 1.40625q0.609375 0.53125 1.53125 0.53125q0.515625 0 0.953125 -0.171875q0.4375 -0.1875 0.765625 -0.5625l0.421875 0.5q-0.375 0.4375 -0.9375 0.671875q-0.546875 0.234375 -1.21875 0.234375q-0.875 0 -1.546875 -0.359375q-0.65625 -0.375 -1.03125 -1.015625q-0.375 -0.65625 -0.375 -1.46875q0 -0.828125 0.359375 -1.46875q0.359375 -0.65625 0.984375 -1.015625q0.625 -0.359375 1.40625 -0.359375q0.765625 0 1.390625 0.359375q0.625 0.359375 0.96875 1.0q0.359375 0.640625 0.359375 1.484375l-0.015625 0.234375zm-2.703125 -2.4375q-0.8125 0 -1.359375 0.515625q-0.546875 0.515625 -0.625 1.34375l3.96875 0q-0.078125 -0.828125 -0.625 -1.34375q-0.546875 -0.515625 -1.359375 -0.515625zm7.1083374 -0.640625q1.0625 0 1.6875 0.609375q0.625 0.609375 0.625 1.78125l0 3.25l-0.765625 0l0 -3.171875q0 -0.875 -0.4375 -1.328125q-0.4375 -0.46875 -1.25 -0.46875q-0.90625 0 -1.4375 0.546875q-0.515625 0.53125 -0.515625 1.484375l0 2.9375l-0.75 0l0 -5.609375l0.71875 0l0 1.03125q0.3125 -0.5 0.859375 -0.78125q0.546875 -0.28125 1.265625 -0.28125zm6.7044373 5.6875q-0.828125 0 -1.484375 -0.359375q-0.65625 -0.359375 -1.03125 -1.015625q-0.375 -0.65625 -0.375 -1.46875q0 -0.828125 0.375 -1.46875q0.375 -0.65625 1.03125 -1.015625q0.65625 -0.359375 1.484375 -0.359375q0.734375 0 1.296875 0.28125q0.578125 0.28125 0.90625 0.8125l-0.5625 0.390625q-0.28125 -0.421875 -0.71875 -0.625q-0.421875 -0.203125 -0.921875 -0.203125q-0.609375 0 -1.09375 0.28125q-0.484375 0.265625 -0.765625 0.765625q-0.265625 0.5 -0.265625 1.140625q0 0.640625 0.265625 1.140625q0.28125 0.5 0.765625 0.765625q0.484375 0.265625 1.09375 0.265625q0.5 0 0.921875 -0.1875q0.4375 -0.203125 0.71875 -0.625l0.5625 0.375q-0.328125 0.546875 -0.90625 0.828125q-0.578125 0.28125 -1.296875 0.28125zm8.30481 -5.65625l-2.796875 6.28125q-0.34375 0.78125 -0.796875 1.109375q-0.453125 0.34375 -1.078125 0.34375q-0.40625 0 -0.765625 -0.140625q-0.34375 -0.125 -0.59375 -0.375l0.34375 -0.5625q0.4375 0.421875 1.03125 0.421875q0.375 0 0.640625 -0.21875q0.28125 -0.203125 0.515625 -0.71875l0.25 -0.546875l-2.5 -5.59375l0.78125 0l2.109375 4.765625l2.109375 -4.765625l0.75 0zm4.0208435 -1.84375l0.78125 0l0 6.765625l4.1875 0l0 0.6875l-4.96875 0l0 -7.453125zm6.120331 1.84375l0.75 0l0 5.609375l-0.75 0l0 -5.609375zm0.375 -1.21875q-0.234375 0 -0.390625 -0.15625q-0.15625 -0.171875 -0.15625 -0.390625q0 -0.21875 0.15625 -0.375q0.15625 -0.15625 0.390625 -0.15625q0.234375 0 0.390625 0.15625q0.171875 0.15625 0.171875 0.359375q0 0.234375 -0.171875 0.40625q-0.15625 0.15625 -0.390625 0.15625zm3.9915771 6.875q-0.6875 0 -1.3125 -0.1875q-0.625 -0.203125 -0.96875 -0.5l0.34375 -0.59375q0.34375 0.28125 0.875 0.453125q0.53125 0.171875 1.109375 0.171875q0.765625 0 1.125 -0.234375q0.375 -0.25 0.375 -0.6875q0 -0.296875 -0.203125 -0.46875q-0.203125 -0.1875 -0.515625 -0.265625q-0.296875 -0.09375 -0.8125 -0.1875q-0.6875 -0.125 -1.109375 -0.25q-0.40625 -0.140625 -0.703125 -0.453125q-0.28125 -0.328125 -0.28125 -0.890625q0 -0.703125 0.578125 -1.140625q0.59375 -0.453125 1.640625 -0.453125q0.53125 0 1.078125 0.140625q0.546875 0.140625 0.890625 0.375l-0.328125 0.609375q-0.6875 -0.484375 -1.640625 -0.484375q-0.734375 0 -1.109375 0.265625q-0.359375 0.25 -0.359375 0.65625q0 0.328125 0.203125 0.515625q0.21875 0.1875 0.515625 0.28125q0.3125 0.09375 0.859375 0.1875q0.671875 0.125 1.078125 0.265625q0.40625 0.125 0.6875 0.4375q0.296875 0.296875 0.296875 0.84375q0 0.734375 -0.625 1.171875q-0.609375 0.421875 -1.6875 0.421875zm6.6484375 -0.390625q-0.203125 0.1875 -0.515625 0.296875q-0.3125 0.09375 -0.65625 0.09375q-0.796875 0 -1.21875 -0.421875q-0.421875 -0.421875 -0.421875 -1.203125l0 -3.390625l-1.0 0l0 -0.640625l1.0 0l0 -1.21875l0.75 0l0 1.21875l1.703125 0l0 0.640625l-1.703125 0l0 3.34375q0 0.5 0.25 0.765625q0.25 0.265625 0.71875 0.265625q0.234375 0 0.453125 -0.078125q0.21875 -0.078125 0.375 -0.21875l0.265625 0.546875zm6.4621887 0.390625q-0.8125 0 -1.46875 -0.359375q-0.640625 -0.375 -1.015625 -1.015625q-0.375 -0.65625 -0.375 -1.46875q0 -0.828125 0.375 -1.46875q0.375 -0.65625 1.015625 -1.015625q0.65625 -0.359375 1.46875 -0.359375q0.8125 0 1.453125 0.359375q0.65625 0.359375 1.015625 1.015625q0.375 0.640625 0.375 1.46875q0 0.8125 -0.375 1.46875q-0.359375 0.640625 -1.015625 1.015625q-0.640625 0.359375 -1.453125 0.359375zm0 -0.671875q0.59375 0 1.0625 -0.265625q0.484375 -0.265625 0.75 -0.765625q0.265625 -0.5 0.265625 -1.140625q0 -0.640625 -0.265625 -1.140625q-0.265625 -0.5 -0.75 -0.765625q-0.46875 -0.28125 -1.0625 -0.28125q-0.59375 0 -1.078125 0.28125q-0.46875 0.265625 -0.75 0.765625q-0.265625 0.5 -0.265625 1.140625q0 0.640625 0.265625 1.140625q0.28125 0.5 0.75 0.765625q0.484375 0.265625 1.078125 0.265625zm6.2440186 -6.703125q-0.484375 0 -0.734375 0.28125q-0.25 0.265625 -0.25 0.78125l0 0.65625l1.71875 0l0 0.640625l-1.703125 0l0 4.96875l-0.75 0l0 -4.96875l-0.9999695 0l0 -0.640625l0.9999695 0l0 -0.6875q0 -0.765625 0.4375 -1.203125q0.4375 -0.453125 1.25 -0.453125q0.328125 0 0.625 0.09375q0.296875 0.078125 0.5 0.25l-0.265625 0.5625q-0.328125 -0.28125 -0.828125 -0.28125zm7.49823 6.984375q-0.203125 0.1875 -0.515625 0.296875q-0.3125 0.09375 -0.65625 0.09375q-0.796875 0 -1.21875 -0.421875q-0.421875 -0.421875 -0.421875 -1.203125l0 -3.390625l-1.0 0l0 -0.640625l1.0 0l0 -1.21875l0.75 0l0 1.21875l1.703125 0l0 0.640625l-1.703125 0l0 3.34375q0 0.5 0.25 0.765625q0.25 0.265625 0.71875 0.265625q0.234375 0 0.453125 -0.078125q0.21875 -0.078125 0.375 -0.21875l0.265625 0.546875zm4.232727 -5.296875q1.0625 0 1.6875 0.609375q0.625 0.609375 0.625 1.78125l0 3.25l-0.765625 0l0 -3.171875q0 -0.875 -0.4375 -1.328125q-0.4375 -0.46875 -1.25 -0.46875q-0.90625 0 -1.4375 0.546875q-0.515625 0.53125 -0.515625 1.484375l0 2.9375l-0.75 0l0 -7.90625l0.75 0l0 3.28125q0.3125 -0.484375 0.84375 -0.75q0.546875 -0.265625 1.25 -0.265625zm9.266968 3.078125l-4.6875 0q0.0625 0.875 0.671875 1.40625q0.609375 0.53125 1.53125 0.53125q0.515625 0 0.953125 -0.171875q0.4375 -0.1875 0.765625 -0.5625l0.421875 0.5q-0.375 0.4375 -0.9375 0.671875q-0.546875 0.234375 -1.21875 0.234375q-0.875 0 -1.546875 -0.359375q-0.65625 -0.375 -1.03125 -1.015625q-0.375 -0.65625 -0.375 -1.46875q0 -0.828125 0.359375 -1.46875q0.359375 -0.65625 0.984375 -1.015625q0.625 -0.359375 1.40625 -0.359375q0.765625 0 1.390625 0.359375q0.625 0.359375 0.96875 1.0q0.359375 0.640625 0.359375 1.484375l-0.015625 0.234375zm-2.703125 -2.4375q-0.8125 0 -1.359375 0.515625q-0.546875 0.515625 -0.625 1.34375l3.96875 0q-0.078125 -0.828125 -0.625 -1.34375q-0.546875 -0.515625 -1.359375 -0.515625z" fill-rule="nonzero"/><path fill="#000000" d="m425.8148 55.975777q0.734375 0.15625 1.125 0.640625q0.40625 0.46875 0.40625 1.203125q0 0.96875 -0.71875 1.484375q-0.703125 0.515625 -2.09375 0.515625l-3.421875 0l0 -7.453125l3.21875 0q1.25 0 1.921875 0.5q0.6875 0.5 0.6875 1.40625q0 0.625 -0.296875 1.0625q-0.296875 0.421875 -0.828125 0.640625zm-3.921875 -2.96875l0 2.703125l2.375 0q0.90625 0 1.390625 -0.34375q0.5 -0.34375 0.5 -1.0q0 -0.65625 -0.5 -1.0q-0.484375 -0.359375 -1.390625 -0.359375l-2.375 0zm2.640625 6.15625q1.0 0 1.5 -0.328125q0.515625 -0.34375 0.515625 -1.078125q0 -1.390625 -2.015625 -1.390625l-2.640625 0l0 2.796875l2.640625 0zm9.331787 -1.90625l-4.6875 0q0.0625 0.875 0.671875 1.40625q0.609375 0.53125 1.53125 0.53125q0.515625 0 0.953125 -0.171875q0.4375 -0.1875 0.765625 -0.5625l0.421875 0.5q-0.375 0.4375 -0.9375 0.671875q-0.546875 0.234375 -1.21875 0.234375q-0.875 0 -1.546875 -0.359375q-0.65625 -0.375 -1.03125 -1.015625q-0.375 -0.65625 -0.375 -1.46875q0 -0.828125 0.359375 -1.46875q0.359375 -0.65625 0.984375 -1.015625q0.625 -0.359375 1.40625 -0.359375q0.765625 0 1.390625 0.359375q0.625 0.359375 0.96875 1.0q0.359375 0.640625 0.359375 1.484375l-0.015625 0.234375zm-2.703125 -2.4375q-0.8125 0 -1.359375 0.515625q-0.546875 0.515625 -0.625 1.34375l3.96875 0q-0.078125 -0.828125 -0.625 -1.34375q-0.546875 -0.515625 -1.359375 -0.515625zm7.108307 -0.640625q1.0625 0 1.6875 0.609375q0.625 0.609375 0.625 1.78125l0 3.25l-0.765625 0l0 -3.171875q0 -0.875 -0.4375 -1.328125q-0.4375 -0.46875 -1.25 -0.46875q-0.90625 0 -1.4375 0.546875q-0.515625 0.53125 -0.515625 1.484375l0 2.9375l-0.75 0l0 -7.90625l0.75 0l0 3.28125q0.3125 -0.484375 0.84375 -0.75q0.546875 -0.265625 1.25 -0.265625zm6.3237305 0q1.09375 0 1.671875 0.546875q0.59375 0.546875 0.59375 1.625l0 3.46875l-0.71875 0l0 -0.875q-0.25 0.4375 -0.75 0.6875q-0.5 0.234375 -1.1875 0.234375q-0.9375 0 -1.484375 -0.4375q-0.546875 -0.453125 -0.546875 -1.1875q0 -0.71875 0.515625 -1.15625q0.515625 -0.4375 1.640625 -0.4375l1.78125 0l0 -0.328125q0 -0.734375 -0.40625 -1.109375q-0.40625 -0.375 -1.1875 -0.375q-0.53125 0 -1.03125 0.171875q-0.484375 0.171875 -0.828125 0.484375l-0.34375 -0.5625q0.421875 -0.359375 1.015625 -0.546875q0.609375 -0.203125 1.265625 -0.203125zm-0.265625 5.09375q0.640625 0 1.09375 -0.28125q0.46875 -0.296875 0.6875 -0.859375l0 -0.90625l-1.765625 0q-1.4375 0 -1.4375 1.0q0 0.484375 0.375 0.765625q0.375 0.28125 1.046875 0.28125zm9.1961975 -5.0625l-2.5 5.609375l-0.765625 0l-2.484375 -5.609375l0.78125 0l2.109375 4.78125l2.109375 -4.78125l0.75 0zm1.0726318 0l0.75 0l0 5.609375l-0.75 0l0 -5.609375zm0.375 -1.21875q-0.234375 0 -0.390625 -0.15625q-0.15625 -0.171875 -0.15625 -0.390625q0 -0.21875 0.15625 -0.375q0.15625 -0.15625 0.390625 -0.15625q0.234375 0 0.390625 0.15625q0.171875 0.15625 0.171875 0.359375q0 0.234375 -0.171875 0.40625q-0.15625 0.15625 -0.390625 0.15625zm4.7727966 6.875q-0.8125 0 -1.46875 -0.359375q-0.640625 -0.375 -1.015625 -1.015625q-0.375 -0.65625 -0.375 -1.46875q0 -0.828125 0.375 -1.46875q0.375 -0.65625 1.015625 -1.015625q0.65625 -0.359375 1.46875 -0.359375q0.8125 0 1.453125 0.359375q0.65625 0.359375 1.015625 1.015625q0.375 0.640625 0.375 1.46875q0 0.8125 -0.375 1.46875q-0.359375 0.640625 -1.015625 1.015625q-0.640625 0.359375 -1.453125 0.359375zm0 -0.671875q0.59375 0 1.0625 -0.265625q0.484375 -0.265625 0.75 -0.765625q0.265625 -0.5 0.265625 -1.140625q0 -0.640625 -0.265625 -1.140625q-0.265625 -0.5 -0.75 -0.765625q-0.46875 -0.28125 -1.0625 -0.28125q-0.59375 0 -1.078125 0.28125q-0.46875 0.265625 -0.75 0.765625q-0.265625 0.5 -0.265625 1.140625q0 0.640625 0.265625 1.140625q0.28125 0.5 0.75 0.765625q0.484375 0.265625 1.078125 0.265625zm5.119049 -3.875q0.265625 -0.578125 0.78125 -0.859375q0.53125 -0.28125 1.3125 -0.28125l0 0.734375l-0.171875 -0.015625q-0.890625 0 -1.390625 0.546875q-0.5 0.53125 -0.5 1.515625l0 2.859375l-0.75 0l0 -5.609375l0.71875 0l0 1.109375zm5.41156 -1.140625q1.09375 0 1.671875 0.546875q0.59375 0.546875 0.59375 1.625l0 3.46875l-0.71875 0l0 -0.875q-0.25 0.4375 -0.75 0.6875q-0.5 0.234375 -1.1875 0.234375q-0.9375 0 -1.484375 -0.4375q-0.546875 -0.453125 -0.546875 -1.1875q0 -0.71875 0.515625 -1.15625q0.515625 -0.4375 1.640625 -0.4375l1.78125 0l0 -0.328125q0 -0.734375 -0.40625 -1.109375q-0.40625 -0.375 -1.1875 -0.375q-0.53125 0 -1.03125 0.171875q-0.484375 0.171875 -0.828125 0.484375l-0.34375 -0.5625q0.421875 -0.359375 1.015625 -0.546875q0.609375 -0.203125 1.265625 -0.203125zm-0.265625 5.09375q0.640625 0 1.09375 -0.28125q0.46875 -0.296875 0.6875 -0.859375l0 -0.90625l-1.765625 0q-1.4375 0 -1.4375 1.0q0 0.484375 0.375 0.765625q0.375 0.28125 1.046875 0.28125zm4.599762 -7.359375l0.75 0l0 7.90625l-0.75 0l0 -7.90625zm13.564758 0.453125l0 7.453125l-0.765625 0l0 -5.96875l-2.921875 5.015625l-0.375 0l-2.9375 -4.984375l0 5.9375l-0.75 0l0 -7.453125l0.640625 0l3.25 5.53125l3.203125 -5.53125l0.65625 0zm4.223694 1.8125q1.09375 0 1.671875 0.546875q0.59375 0.546875 0.59375 1.625l0 3.46875l-0.71875 0l0 -0.875q-0.25 0.4375 -0.75 0.6875q-0.5 0.234375 -1.1875 0.234375q-0.9375 0 -1.484375 -0.4375q-0.546875 -0.453125 -0.546875 -1.1875q0 -0.71875 0.515625 -1.15625q0.515625 -0.4375 1.640625 -0.4375l1.78125 0l0 -0.328125q0 -0.734375 -0.40625 -1.109375q-0.40625 -0.375 -1.1875 -0.375q-0.53125 0 -1.03125 0.171875q-0.484375 0.171875 -0.828125 0.484375l-0.34375 -0.5625q0.421875 -0.359375 1.015625 -0.546875q0.609375 -0.203125 1.265625 -0.203125zm-0.265625 5.09375q0.640625 0 1.09375 -0.28125q0.46875 -0.296875 0.6875 -0.859375l0 -0.90625l-1.765625 0q-1.4375 0 -1.4375 1.0q0 0.484375 0.375 0.765625q0.375 0.28125 1.046875 0.28125zm7.474762 -5.09375q0.796875 0 1.4375 0.359375q0.640625 0.34375 1.0 1.0q0.359375 0.640625 0.359375 1.484375q0 0.84375 -0.359375 1.5q-0.359375 0.640625 -1.0 1.0q-0.640625 0.34375 -1.4375 0.34375q-0.671875 0 -1.234375 -0.28125q-0.546875 -0.28125 -0.890625 -0.828125l0 3.125l-0.75 0l0 -7.671875l0.71875 0l0 1.109375q0.34375 -0.546875 0.890625 -0.84375q0.5625 -0.296875 1.265625 -0.296875zm-0.046875 5.015625q0.578125 0 1.0625 -0.265625q0.484375 -0.265625 0.75 -0.765625q0.28125 -0.5 0.28125 -1.140625q0 -0.640625 -0.28125 -1.140625q-0.265625 -0.5 -0.75 -0.765625q-0.484375 -0.28125 -1.0625 -0.28125q-0.59375 0 -1.078125 0.28125q-0.46875 0.265625 -0.75 0.765625q-0.265625 0.5 -0.265625 1.140625q0 0.640625 0.265625 1.140625q0.28125 0.5 0.75 0.765625q0.484375 0.265625 1.078125 0.265625zm15.407562 -4.984375l-2.125 5.609375l-0.703125 0l-1.7812195 -4.59375l-1.765625 4.59375l-0.71875 0l-2.109375 -5.609375l0.734375 0l1.75 4.765625l1.8125 -4.765625l0.640625 0l1.7968445 4.765625l1.78125 -4.765625l0.6875 0zm1.1481934 0l0.75 0l0 5.609375l-0.75 0l0 -5.609375zm0.375 -1.21875q-0.234375 0 -0.390625 -0.15625q-0.15625 -0.171875 -0.15625 -0.390625q0 -0.21875 0.15625 -0.375q0.15625 -0.15625 0.390625 -0.15625q0.234375 0 0.390625 0.15625q0.171875 0.15625 0.171875 0.359375q0 0.234375 -0.171875 0.40625q-0.15625 0.15625 -0.390625 0.15625zm2.4915771 -1.078125l0.75 0l0 7.90625l-0.75 0l0 -7.90625zm2.8665771 0l0.75 0l0 7.90625l-0.75 0l0 -7.90625zm8.533508 2.265625q0.796875 0 1.4375 0.359375q0.640625 0.34375 1.0 1.0q0.359375 0.640625 0.359375 1.484375q0 0.828125 -0.359375 1.484375q-0.359375 0.640625 -1.0 1.0q-0.640625 0.359375 -1.4375 0.359375q-0.703125 0 -1.265625 -0.296875q-0.546875 -0.296875 -0.890625 -0.859375l0 1.109375l-0.71875 0l0 -7.90625l0.75 0l0 3.359375q0.34375 -0.53125 0.890625 -0.8125q0.5625 -0.28125 1.234375 -0.28125zm-0.046875 5.015625q0.578125 0 1.0625 -0.265625q0.484375 -0.265625 0.75 -0.765625q0.28125 -0.5 0.28125 -1.140625q0 -0.640625 -0.28125 -1.140625q-0.265625 -0.5 -0.75 -0.765625q-0.484375 -0.28125 -1.0625 -0.28125q-0.59375 0 -1.078125 0.28125q-0.46875 0.265625 -0.75 0.765625q-0.265625 0.5 -0.265625 1.140625q0 0.640625 0.265625 1.140625q0.28125 0.5 0.75 0.765625q0.484375 0.265625 1.078125 0.265625zm9.271912 -1.9375l-4.6875 0q0.0625 0.875 0.671875 1.40625q0.609375 0.53125 1.53125 0.53125q0.515625 0 0.953125 -0.171875q0.4375 -0.1875 0.765625 -0.5625l0.421875 0.5q-0.375 0.4375 -0.9375 0.671875q-0.546875 0.234375 -1.21875 0.234375q-0.875 0 -1.546875 -0.359375q-0.65625 -0.375 -1.03125 -1.015625q-0.375 -0.65625 -0.375 -1.46875q0 -0.828125 0.359375 -1.46875q0.359375 -0.65625 0.984375 -1.015625q0.625 -0.359375 1.40625 -0.359375q0.765625 0 1.390625 0.359375q0.625 0.359375 0.96875 1.0q0.359375 0.640625 0.359375 1.484375l-0.015625 0.234375zm-2.703125 -2.4375q-0.8125 0 -1.359375 0.515625q-0.546875 0.515625 -0.625 1.34375l3.96875 0q-0.078125 -0.828125 -0.625 -1.34375q-0.546875 -0.515625 -1.359375 -0.515625z" fill-rule="nonzero"/><path fill="#000000" d="m459.705 66.9789q1.09375 0 1.671875 0.546875q0.59375 0.546875 0.59375 1.625l0 3.46875l-0.71875 0l0 -0.875q-0.25 0.4375 -0.75 0.6875q-0.5 0.234375 -1.1875 0.234375q-0.9375 0 -1.484375 -0.4375q-0.546875 -0.453125 -0.546875 -1.1875q0 -0.71875 0.515625 -1.15625q0.515625 -0.4375 1.640625 -0.4375l1.78125 0l0 -0.328125q0 -0.734375 -0.40625 -1.109375q-0.40625 -0.375 -1.1875 -0.375q-0.53125 0 -1.03125 0.171875q-0.484375 0.171875 -0.828125 0.484375l-0.34375 -0.5625q0.421875 -0.359375 1.015625 -0.546875q0.609375 -0.203125 1.265625 -0.203125zm-0.265625 5.09375q0.640625 0 1.09375 -0.28125q0.46875 -0.296875 0.6875 -0.859375l0 -0.90625l-1.765625 0q-1.4375 0 -1.4375 1.0q0 0.484375 0.375 0.765625q0.375 0.28125 1.046875 0.28125zm9.1961975 -5.0625l-2.5 5.609375l-0.765625 0l-2.484375 -5.609375l0.78125 0l2.109375 4.78125l2.109375 -4.78125l0.75 0zm2.855072 -0.03125q1.09375 0 1.671875 0.546875q0.59375 0.546875 0.59375 1.625l0 3.46875l-0.71875 0l0 -0.875q-0.25 0.4375 -0.75 0.6875q-0.5 0.234375 -1.1875 0.234375q-0.9375 0 -1.484375 -0.4375q-0.546875 -0.453125 -0.546875 -1.1875q0 -0.71875 0.515625 -1.15625q0.515625 -0.4375 1.640625 -0.4375l1.78125 0l0 -0.328125q0 -0.734375 -0.40625 -1.109375q-0.40625 -0.375 -1.1875 -0.375q-0.53125 0 -1.03125 0.171875q-0.484375 0.171875 -0.828125 0.484375l-0.34375 -0.5625q0.421875 -0.359375 1.015625 -0.546875q0.609375 -0.203125 1.265625 -0.203125zm-0.265625 5.09375q0.640625 0 1.09375 -0.28125q0.46875 -0.296875 0.6875 -0.859375l0 -0.90625l-1.765625 0q-1.4375 0 -1.4375 1.0q0 0.484375 0.375 0.765625q0.375 0.28125 1.046875 0.28125zm4.5997314 -5.0625l0.75 0l0 5.609375l-0.75 0l0 -5.609375zm0.375 -1.21875q-0.234375 0 -0.390625 -0.15625q-0.15625 -0.171875 -0.15625 -0.390625q0 -0.21875 0.15625 -0.375q0.15625 -0.15625 0.390625 -0.15625q0.234375 0 0.390625 0.15625q0.171875 0.15625 0.171875 0.359375q0 0.234375 -0.171875 0.40625q-0.15625 0.15625 -0.390625 0.15625zm2.4915771 -1.078125l0.75 0l0 7.90625l-0.75 0l0 -7.90625zm4.8196716 2.265625q1.09375 0 1.671875 0.546875q0.59375 0.546875 0.59375 1.625l0 3.46875l-0.71875 0l0 -0.875q-0.25 0.4375 -0.75 0.6875q-0.5 0.234375 -1.1875 0.234375q-0.9375 0 -1.484375 -0.4375q-0.546875 -0.453125 -0.546875 -1.1875q0 -0.71875 0.515625 -1.15625q0.515625 -0.4375 1.640625 -0.4375l1.78125 0l0 -0.328125q0 -0.734375 -0.40625 -1.109375q-0.40625 -0.375 -1.1875 -0.375q-0.53125 0 -1.03125 0.171875q-0.484375 0.171875 -0.828125 0.484375l-0.34375 -0.5625q0.421875 -0.359375 1.015625 -0.546875q0.609375 -0.203125 1.265625 -0.203125zm-0.265625 5.09375q0.640625 0 1.09375 -0.28125q0.46875 -0.296875 0.6875 -0.859375l0 -0.90625l-1.765625 0q-1.4375 0 -1.4375 1.0q0 0.484375 0.375 0.765625q0.375 0.28125 1.046875 0.28125zm7.474762 -5.09375q0.796875 0 1.4375 0.359375q0.640625 0.34375 1.0 1.0q0.359375 0.640625 0.359375 1.484375q0 0.828125 -0.359375 1.484375q-0.359375 0.640625 -1.0 1.0q-0.640625 0.359375 -1.4375 0.359375q-0.703125 0 -1.265625 -0.296875q-0.546875 -0.296875 -0.890625 -0.859375l0 1.109375l-0.71875 0l0 -7.90625l0.75 0l0 3.359375q0.34375 -0.53125 0.890625 -0.8125q0.5625 -0.28125 1.234375 -0.28125zm-0.046875 5.015625q0.578125 0 1.0625 -0.265625q0.484375 -0.265625 0.75 -0.765625q0.28125 -0.5 0.28125 -1.140625q0 -0.640625 -0.28125 -1.140625q-0.265625 -0.5 -0.75 -0.765625q-0.484375 -0.28125 -1.0625 -0.28125q-0.59375 0 -1.078125 0.28125q-0.46875 0.265625 -0.75 0.765625q-0.265625 0.5 -0.265625 1.140625q0 0.640625 0.265625 1.140625q0.28125 0.5 0.75 0.765625q0.484375 0.265625 1.078125 0.265625zm4.396881 -7.28125l0.75 0l0 7.90625l-0.75 0l0 -7.90625zm7.7415466 5.34375l-4.6875 0q0.0625 0.875 0.671875 1.40625q0.609375 0.53125 1.53125 0.53125q0.515625 0 0.953125 -0.171875q0.4375 -0.1875 0.765625 -0.5625l0.421875 0.5q-0.375 0.4375 -0.9375 0.671875q-0.546875 0.234375 -1.21875 0.234375q-0.875 0 -1.546875 -0.359375q-0.65625 -0.375 -1.03125 -1.015625q-0.375 -0.65625 -0.375 -1.46875q0 -0.828125 0.359375 -1.46875q0.359375 -0.65625 0.984375 -1.015625q0.625 -0.359375 1.40625 -0.359375q0.765625 0 1.390625 0.359375q0.625 0.359375 0.96875 1.0q0.359375 0.640625 0.359375 1.484375l-0.015625 0.234375zm-2.703125 -2.4375q-0.8125 0 -1.359375 0.515625q-0.546875 0.515625 -0.625 1.34375l3.96875 0q-0.078125 -0.828125 -0.625 -1.34375q-0.546875 -0.515625 -1.359375 -0.515625z" fill-rule="nonzero"/></g></svg>