<svg version="1.1" viewBox="0.0 0.0 960.0 540.0" fill="none" stroke="none" stroke-linecap="square" stroke-miterlimit="10" xmlns:xlink="http://www.w3.org/1999/xlink" xmlns="http://www.w3.org/2000/svg"><clipPath id="gfcf40c8a0e_0_1103.0"><path d="m0 0l960.0 0l0 540.0l-960.0 0l0 -540.0z" clip-rule="nonzero"/></clipPath><g clip-path="url(#gfcf40c8a0e_0_1103.0)"><path fill="#ffffff" d="m0 0l960.0 0l0 540.0l-960.0 0z" fill-rule="evenodd"/><path fill="#d9ead3" d="m141.48819 144.92136l0 0c0 -2.8209076 2.2868042 -5.107712 5.107712 -5.107712l53.69008 0c1.35466 0 2.6538239 0.5381317 3.6117096 1.4960175c0.95788574 0.95788574 1.4960175 2.2570496 1.4960175 3.6116943l0 20.430252c0 2.8209076 -2.2868042 5.107712 -5.107727 5.107712l-53.69008 0c-2.8209076 0 -5.107712 -2.2868042 -5.107712 -5.107712z" fill-rule="evenodd"/><path stroke="#595959" stroke-width="2.0" stroke-linejoin="round" stroke-linecap="butt" d="m141.48819 144.92136l0 0c0 -2.8209076 2.2868042 -5.107712 5.107712 -5.107712l53.69008 0c1.35466 0 2.6538239 0.5381317 3.6117096 1.4960175c0.95788574 0.95788574 1.4960175 2.2570496 1.4960175 3.6116943l0 20.430252c0 2.8209076 -2.2868042 5.107712 -5.107727 5.107712l-53.69008 0c-2.8209076 0 -5.107712 -2.2868042 -5.107712 -5.107712z" fill-rule="evenodd"/><path fill="#000000" d="m164.10289 147.22273l0 5.59375l-0.484375 0l-3.609375 -4.546875l0 4.546875l-0.59375 0l0 -5.59375l0.5 0l3.609375 4.53125l0 -4.53125l0.578125 0zm3.1757965 1.359375q0.828125 0 1.265625 0.40625q0.4375 0.40625 0.4375 1.21875l0 2.609375l-0.546875 0l0 -0.65625q-0.1875 0.328125 -0.5625 0.515625q-0.375 0.1875 -0.890625 0.1875q-0.703125 0 -1.125 -0.328125q-0.40625 -0.34375 -0.40625 -0.90625q0 -0.53125 0.390625 -0.859375q0.390625 -0.328125 1.234375 -0.328125l1.34375 0l0 -0.25q0 -0.546875 -0.3125 -0.828125q-0.296875 -0.296875 -0.890625 -0.296875q-0.390625 0 -0.765625 0.140625q-0.359375 0.125 -0.625 0.359375l-0.265625 -0.421875q0.328125 -0.265625 0.765625 -0.40625q0.453125 -0.15625 0.953125 -0.15625zm-0.203125 3.828125q0.484375 0 0.828125 -0.21875q0.34375 -0.21875 0.515625 -0.640625l0 -0.6875l-1.328125 0q-1.078125 0 -1.078125 0.75q0 0.375 0.28125 0.59375q0.28125 0.203125 0.78125 0.203125zm5.673065 0.15625q-0.171875 0.140625 -0.40625 0.21875q-0.234375 0.078125 -0.484375 0.078125q-0.59375 0 -0.921875 -0.3125q-0.3125 -0.328125 -0.3125 -0.921875l0 -2.546875l-0.75 0l0 -0.46875l0.75 0l0 -0.921875l0.5625 0l0 0.921875l1.28125 0l0 0.46875l-1.28125 0l0 2.515625q0 0.375 0.1875 0.578125q0.1875 0.1875 0.546875 0.1875q0.171875 0 0.328125 -0.046875q0.171875 -0.0625 0.296875 -0.15625l0.203125 0.40625zm4.8104553 -3.953125l0 4.203125l-0.53125 0l0 -0.765625q-0.234375 0.375 -0.625 0.59375q-0.390625 0.21875 -0.890625 0.21875q-0.828125 0 -1.3125 -0.453125q-0.46875 -0.46875 -0.46875 -1.359375l0 -2.4375l0.5625 0l0 2.375q0 0.671875 0.328125 1.015625q0.328125 0.34375 0.9375 0.34375q0.671875 0 1.046875 -0.40625q0.390625 -0.40625 0.390625 -1.125l0 -2.203125l0.5625 0zm2.1495514 0.8125q0.1875 -0.421875 0.578125 -0.625q0.40625 -0.21875 0.984375 -0.21875l0 0.546875l-0.125 -0.015625q-0.671875 0 -1.046875 0.421875q-0.375 0.40625 -0.375 1.140625l0 2.140625l-0.5625 0l0 -4.203125l0.546875 0l0 0.8125zm4.057831 -0.84375q0.828125 0 1.265625 0.40625q0.4375 0.40625 0.4375 1.21875l0 2.609375l-0.546875 0l0 -0.65625q-0.1875 0.328125 -0.5625 0.515625q-0.375 0.1875 -0.890625 0.1875q-0.703125 0 -1.125 -0.328125q-0.40625 -0.34375 -0.40625 -0.90625q0 -0.53125 0.390625 -0.859375q0.390625 -0.328125 1.234375 -0.328125l1.34375 0l0 -0.25q0 -0.546875 -0.3125 -0.828125q-0.296875 -0.296875 -0.890625 -0.296875q-0.390625 0 -0.765625 0.140625q-0.359375 0.125 -0.625 0.359375l-0.265625 -0.421875q0.328125 -0.265625 0.765625 -0.40625q0.453125 -0.15625 0.953125 -0.15625zm-0.203125 3.828125q0.484375 0 0.828125 -0.21875q0.34375 -0.21875 0.515625 -0.640625l0 -0.6875l-1.328125 0q-1.078125 0 -1.078125 0.75q0 0.375 0.28125 0.59375q0.28125 0.203125 0.78125 0.203125zm3.4543152 -5.53125l0.5625 0l0 5.9375l-0.5625 0l0 -5.9375z" fill-rule="nonzero"/><path fill="#000000" d="m153.94345 157.22273l0.59375 0l0 5.078125l3.140625 0l0 0.515625l-3.734375 0l0 -5.59375zm6.087326 1.359375q0.828125 0 1.265625 0.40625q0.4375 0.40625 0.4375 1.21875l0 2.609375l-0.546875 0l0 -0.65625q-0.1875 0.328125 -0.5625 0.515625q-0.375 0.1875 -0.890625 0.1875q-0.703125 0 -1.125 -0.328125q-0.40625 -0.34375 -0.40625 -0.90625q0 -0.53125 0.390625 -0.859375q0.390625 -0.328125 1.234375 -0.328125l1.34375 0l0 -0.25q0 -0.546875 -0.3125 -0.828125q-0.296875 -0.296875 -0.890625 -0.296875q-0.390625 0 -0.765625 0.140625q-0.359375 0.125 -0.625 0.359375l-0.265625 -0.421875q0.328125 -0.265625 0.765625 -0.40625q0.453125 -0.15625 0.953125 -0.15625zm-0.203125 3.828125q0.484375 0 0.828125 -0.21875q0.34375 -0.21875 0.515625 -0.640625l0 -0.6875l-1.328125 0q-1.078125 0 -1.078125 0.75q0 0.375 0.28125 0.59375q0.28125 0.203125 0.78125 0.203125zm5.59494 -3.828125q0.796875 0 1.25 0.46875q0.46875 0.453125 0.46875 1.328125l0 2.4375l-0.5625 0l0 -2.390625q0 -0.65625 -0.328125 -1.0q-0.328125 -0.34375 -0.9375 -0.34375q-0.671875 0 -1.078125 0.40625q-0.390625 0.40625 -0.390625 1.125l0 2.203125l-0.5625 0l0 -4.203125l0.546875 0l0 0.765625q0.21875 -0.375 0.625 -0.578125q0.421875 -0.21875 0.96875 -0.21875zm7.1819305 0.03125l0 3.6875q0 1.078125 -0.53125 1.59375q-0.515625 0.515625 -1.578125 0.515625q-0.578125 0 -1.109375 -0.171875q-0.515625 -0.171875 -0.84375 -0.484375l0.28125 -0.421875q0.3125 0.265625 0.75 0.421875q0.4375 0.15625 0.90625 0.15625q0.8125 0 1.1875 -0.375q0.375 -0.375 0.375 -1.15625l0 -0.53125q-0.265625 0.390625 -0.703125 0.609375q-0.421875 0.203125 -0.9375 0.203125q-0.59375 0 -1.078125 -0.265625q-0.484375 -0.265625 -0.765625 -0.71875q-0.265625 -0.46875 -0.265625 -1.0625q0 -0.59375 0.265625 -1.0625q0.28125 -0.46875 0.75 -0.71875q0.484375 -0.25 1.09375 -0.25q0.53125 0 0.953125 0.21875q0.4375 0.203125 0.703125 0.609375l0 -0.796875l0.546875 0zm-2.15625 3.546875q0.453125 0 0.828125 -0.203125q0.375 -0.203125 0.578125 -0.546875q0.203125 -0.359375 0.203125 -0.796875q0 -0.453125 -0.203125 -0.796875q-0.203125 -0.359375 -0.578125 -0.546875q-0.359375 -0.203125 -0.828125 -0.203125q-0.453125 0 -0.8125 0.203125q-0.359375 0.1875 -0.578125 0.546875q-0.203125 0.34375 -0.203125 0.796875q0 0.4375 0.203125 0.796875q0.21875 0.34375 0.578125 0.546875q0.359375 0.203125 0.8125 0.203125zm7.5348053 -3.546875l0 4.203125l-0.53125 0l0 -0.765625q-0.234375 0.375 -0.625 0.59375q-0.390625 0.21875 -0.890625 0.21875q-0.828125 0 -1.3125 -0.453125q-0.46875 -0.46875 -0.46875 -1.359375l0 -2.4375l0.5625 0l0 2.375q0 0.671875 0.328125 1.015625q0.328125 0.34375 0.9375 0.34375q0.671875 0 1.046875 -0.40625q0.390625 -0.40625 0.390625 -1.125l0 -2.203125l0.5625 0zm3.0714264 -0.03125q0.828125 0 1.265625 0.40625q0.4375 0.40625 0.4375 1.21875l0 2.609375l-0.546875 0l0 -0.65625q-0.1875 0.328125 -0.5625 0.515625q-0.375 0.1875 -0.890625 0.1875q-0.703125 0 -1.125 -0.328125q-0.40625 -0.34375 -0.40625 -0.90625q0 -0.53125 0.390625 -0.859375q0.390625 -0.328125 1.234375 -0.328125l1.34375 0l0 -0.25q0 -0.546875 -0.3125 -0.828125q-0.296875 -0.296875 -0.890625 -0.296875q-0.390625 0 -0.765625 0.140625q-0.359375 0.125 -0.625 0.359375l-0.265625 -0.421875q0.328125 -0.265625 0.765625 -0.40625q0.453125 -0.15625 0.953125 -0.15625zm-0.203125 3.828125q0.484375 0 0.828125 -0.21875q0.34375 -0.21875 0.515625 -0.640625l0 -0.6875l-1.328125 0q-1.078125 0 -1.078125 0.75q0 0.375 0.28125 0.59375q0.28125 0.203125 0.78125 0.203125zm7.3609467 -3.796875l0 3.6875q0 1.078125 -0.53125 1.59375q-0.515625 0.515625 -1.578125 0.515625q-0.578125 0 -1.109375 -0.171875q-0.515625 -0.171875 -0.84375 -0.484375l0.28125 -0.421875q0.3125 0.265625 0.75 0.421875q0.4375 0.15625 0.90625 0.15625q0.8125 0 1.1875 -0.375q0.375 -0.375 0.375 -1.15625l0 -0.53125q-0.265625 0.390625 -0.703125 0.609375q-0.421875 0.203125 -0.9375 0.203125q-0.59375 0 -1.078125 -0.265625q-0.484375 -0.265625 -0.765625 -0.71875q-0.265625 -0.46875 -0.265625 -1.0625q0 -0.59375 0.265625 -1.0625q0.28125 -0.46875 0.75 -0.71875q0.484375 -0.25 1.09375 -0.25q0.53125 0 0.953125 0.21875q0.4375 0.203125 0.703125 0.609375l0 -0.796875l0.546875 0zm-2.15625 3.546875q0.453125 0 0.828125 -0.203125q0.375 -0.203125 0.578125 -0.546875q0.203125 -0.359375 0.203125 -0.796875q0 -0.453125 -0.203125 -0.796875q-0.203125 -0.359375 -0.578125 -0.546875q-0.359375 -0.203125 -0.828125 -0.203125q-0.453125 0 -0.8125 0.203125q-0.359375 0.1875 -0.578125 0.546875q-0.203125 0.34375 -0.203125 0.796875q0 0.4375 0.203125 0.796875q0.21875 0.34375 0.578125 0.546875q0.359375 0.203125 0.8125 0.203125zm7.4098053 -1.265625l-3.515625 0q0.046875 0.65625 0.5 1.0625q0.453125 0.390625 1.15625 0.390625q0.390625 0 0.71875 -0.140625q0.328125 -0.140625 0.5625 -0.40625l0.328125 0.375q-0.28125 0.328125 -0.703125 0.515625q-0.421875 0.171875 -0.921875 0.171875q-0.65625 0 -1.15625 -0.28125q-0.5 -0.28125 -0.78125 -0.765625q-0.265625 -0.484375 -0.265625 -1.109375q0 -0.609375 0.265625 -1.09375q0.265625 -0.5 0.734375 -0.765625q0.46875 -0.265625 1.046875 -0.265625q0.59375 0 1.046875 0.265625q0.46875 0.265625 0.734375 0.75q0.265625 0.484375 0.265625 1.109375l-0.015625 0.1875zm-2.03125 -1.828125q-0.609375 0 -1.03125 0.390625q-0.40625 0.390625 -0.453125 1.0l2.984375 0q-0.0625 -0.609375 -0.46875 -1.0q-0.40625 -0.390625 -1.03125 -0.390625z" fill-rule="nonzero"/><path fill="#d9ead3" d="m141.48819 275.36182l0 0c0 -4.54303 3.6828613 -8.225891 8.225891 -8.225891l47.453735 0c2.1816406 0 4.273926 0.8666382 5.816574 2.4093018c1.5426636 1.5426636 2.409317 3.6349487 2.409317 5.8165894l0 32.902557c0 4.54303 -3.6828613 8.225891 -8.225891 8.225891l-47.453735 0l0 0c-4.54303 0 -8.225891 -3.6828613 -8.225891 -8.225891z" fill-rule="evenodd"/><path stroke="#595959" stroke-width="2.0" stroke-linejoin="round" stroke-linecap="butt" d="m141.48819 275.36182l0 0c0 -4.54303 3.6828613 -8.225891 8.225891 -8.225891l47.453735 0c2.1816406 0 4.273926 0.8666382 5.816574 2.4093018c1.5426636 1.5426636 2.409317 3.6349487 2.409317 5.8165894l0 32.902557c0 4.54303 -3.6828613 8.225891 -8.225891 8.225891l-47.453735 0l0 0c-4.54303 0 -8.225891 -3.6828613 -8.225891 -8.225891z" fill-rule="evenodd"/><path fill="#000000" d="m160.69662 277.9787l-1.625 0l0 -0.421875l3.765625 0l0 0.421875l-1.640625 0l0 4.234375l-0.5 0l0 -4.234375zm4.601898 0.703125q0.671875 0 1.046875 0.390625q0.390625 0.375 0.390625 1.109375l0 2.03125l-0.46875 0l0 -1.984375q0 -0.546875 -0.28125 -0.828125q-0.265625 -0.296875 -0.765625 -0.296875q-0.5625 0 -0.90625 0.34375q-0.328125 0.34375 -0.328125 0.921875l0 1.84375l-0.46875 0l0 -4.9375l0.46875 0l0 2.046875q0.203125 -0.296875 0.53125 -0.46875q0.34375 -0.171875 0.78125 -0.171875zm5.785187 1.921875l-2.921875 0q0.03125 0.546875 0.40625 0.890625q0.390625 0.328125 0.96875 0.328125q0.328125 0 0.59375 -0.109375q0.28125 -0.125 0.484375 -0.34375l0.265625 0.296875q-0.234375 0.28125 -0.59375 0.4375q-0.34375 0.140625 -0.765625 0.140625q-0.53125 0 -0.953125 -0.21875q-0.421875 -0.234375 -0.65625 -0.640625q-0.21875 -0.40625 -0.21875 -0.921875q0 -0.515625 0.21875 -0.921875q0.21875 -0.40625 0.609375 -0.625q0.390625 -0.234375 0.875 -0.234375q0.484375 0 0.875 0.234375q0.390625 0.21875 0.609375 0.625q0.21875 0.40625 0.21875 0.921875l-0.015625 0.140625zm-1.6875 -1.515625q-0.5 0 -0.84375 0.328125q-0.34375 0.328125 -0.390625 0.84375l2.484375 0q-0.046875 -0.515625 -0.390625 -0.84375q-0.34375 -0.328125 -0.859375 -0.328125zm6.1861115 -0.40625q0.671875 0 1.046875 0.390625q0.390625 0.375 0.390625 1.109375l0 2.03125l-0.46875 0l0 -1.984375q0 -0.546875 -0.28125 -0.828125q-0.265625 -0.296875 -0.765625 -0.296875q-0.5625 0 -0.90625 0.34375q-0.328125 0.34375 -0.328125 0.921875l0 1.84375l-0.46875 0l0 -3.5l0.453125 0l0 0.640625q0.1875 -0.3125 0.53125 -0.484375q0.34375 -0.1875 0.796875 -0.1875zm5.785187 1.921875l-2.921875 0q0.03125 0.546875 0.40625 0.890625q0.390625 0.328125 0.96875 0.328125q0.328125 0 0.59375 -0.109375q0.28125 -0.125 0.484375 -0.34375l0.265625 0.296875q-0.234375 0.28125 -0.59375 0.4375q-0.34375 0.140625 -0.765625 0.140625q-0.53125 0 -0.953125 -0.21875q-0.421875 -0.234375 -0.65625 -0.640625q-0.21875 -0.40625 -0.21875 -0.921875q0 -0.515625 0.21875 -0.921875q0.21875 -0.40625 0.609375 -0.625q0.390625 -0.234375 0.875 -0.234375q0.484375 0 0.875 0.234375q0.390625 0.21875 0.609375 0.625q0.21875 0.40625 0.21875 0.921875l-0.015625 0.140625zm-1.6875 -1.515625q-0.5 0 -0.84375 0.328125q-0.34375 0.328125 -0.390625 0.84375l2.484375 0q-0.046875 -0.515625 -0.390625 -0.84375q-0.34375 -0.328125 -0.859375 -0.328125zm4.7953186 3.125l-1.109375 -1.46875l-1.125 1.46875l-0.53125 0l1.390625 -1.796875l-1.328125 -1.703125l0.53125 0l1.0625 1.375l1.046875 -1.375l0.515625 0l-1.3125 1.703125l1.390625 1.796875l-0.53125 0zm3.1637726 -0.21875q-0.125 0.125 -0.328125 0.1875q-0.1875 0.0625 -0.40625 0.0625q-0.5 0 -0.765625 -0.265625q-0.265625 -0.265625 -0.265625 -0.75l0 -2.125l-0.625 0l0 -0.390625l0.625 0l0 -0.765625l0.484375 0l0 0.765625l1.0625 0l0 0.390625l-1.0625 0l0 2.09375q0 0.3125 0.15625 0.484375q0.15625 0.15625 0.4375 0.15625q0.15625 0 0.28125 -0.046875q0.140625 -0.046875 0.25 -0.125l0.15625 0.328125z" fill-rule="nonzero"/><path fill="#000000" d="m156.19713 286.68182q0.484375 0 0.875 0.234375q0.40625 0.21875 0.625 0.625q0.234375 0.40625 0.234375 0.921875q0 0.53125 -0.234375 0.9375q-0.21875 0.40625 -0.609375 0.625q-0.390625 0.21875 -0.890625 0.21875q-0.4375 0 -0.78125 -0.171875q-0.34375 -0.171875 -0.5625 -0.515625l0 1.953125l-0.46875 0l0 -4.796875l0.453125 0l0 0.6875q0.21875 -0.34375 0.5625 -0.53125q0.359375 -0.1875 0.796875 -0.1875zm-0.046875 3.140625q0.375 0 0.671875 -0.15625q0.296875 -0.171875 0.46875 -0.484375q0.171875 -0.3125 0.171875 -0.71875q0 -0.40625 -0.171875 -0.703125q-0.171875 -0.3125 -0.46875 -0.484375q-0.296875 -0.171875 -0.671875 -0.171875q-0.359375 0 -0.65625 0.171875q-0.296875 0.171875 -0.46875 0.484375q-0.171875 0.296875 -0.171875 0.703125q0 0.40625 0.171875 0.71875q0.171875 0.3125 0.46875 0.484375q0.296875 0.15625 0.65625 0.15625zm3.9616241 -3.140625q0.671875 0 1.03125 0.34375q0.375 0.34375 0.375 1.015625l0 2.171875l-0.453125 0l0 -0.546875q-0.15625 0.28125 -0.46875 0.4375q-0.3125 0.140625 -0.734375 0.140625q-0.578125 0 -0.9375 -0.28125q-0.34375 -0.28125 -0.34375 -0.734375q0 -0.453125 0.328125 -0.71875q0.328125 -0.28125 1.03125 -0.28125l1.109375 0l0 -0.203125q0 -0.453125 -0.25 -0.6875q-0.25 -0.234375 -0.734375 -0.234375q-0.34375 0 -0.65625 0.109375q-0.296875 0.109375 -0.515625 0.296875l-0.21875 -0.359375q0.265625 -0.21875 0.640625 -0.34375q0.375 -0.125 0.796875 -0.125zm-0.171875 3.1875q0.390625 0 0.671875 -0.171875q0.296875 -0.1875 0.4375 -0.53125l0 -0.578125l-1.09375 0q-0.90625 0 -0.90625 0.625q0 0.3125 0.234375 0.484375q0.234375 0.171875 0.65625 0.171875zm4.7083893 0.125q-0.125 0.125 -0.328125 0.1875q-0.1875 0.0625 -0.40625 0.0625q-0.5 0 -0.765625 -0.265625q-0.265625 -0.265625 -0.265625 -0.75l0 -2.125l-0.625 0l0 -0.390625l0.625 0l0 -0.765625l0.484375 0l0 0.765625l1.0625 0l0 0.390625l-1.0625 0l0 2.09375q0 0.3125 0.15625 0.484375q0.15625 0.15625 0.4375 0.15625q0.15625 0 0.28125 -0.046875q0.140625 -0.046875 0.25 -0.125l0.15625 0.328125zm2.6399078 -3.3125q0.671875 0 1.046875 0.390625q0.390625 0.375 0.390625 1.109375l0 2.03125l-0.46875 0l0 -1.984375q0 -0.546875 -0.28125 -0.828125q-0.265625 -0.296875 -0.765625 -0.296875q-0.5625 0 -0.90625 0.34375q-0.328125 0.34375 -0.328125 0.921875l0 1.84375l-0.46875 0l0 -4.9375l0.46875 0l0 2.046875q0.203125 -0.296875 0.53125 -0.46875q0.34375 -0.171875 0.78125 -0.171875zm3.6624756 3.5625q-0.421875 0 -0.8125 -0.125q-0.390625 -0.125 -0.609375 -0.3125l0.21875 -0.359375q0.21875 0.171875 0.546875 0.28125q0.328125 0.109375 0.6875 0.109375q0.484375 0 0.703125 -0.140625q0.234375 -0.15625 0.234375 -0.4375q0 -0.1875 -0.125 -0.296875q-0.125 -0.109375 -0.3125 -0.171875q-0.1875 -0.0625 -0.515625 -0.109375q-0.421875 -0.078125 -0.6875 -0.15625q-0.25 -0.09375 -0.4375 -0.28125q-0.1875 -0.203125 -0.1875 -0.5625q0 -0.4375 0.359375 -0.71875q0.375 -0.28125 1.03125 -0.28125q0.34375 0 0.671875 0.09375q0.34375 0.09375 0.5625 0.234375l-0.203125 0.375q-0.4375 -0.296875 -1.03125 -0.296875q-0.453125 0 -0.6875 0.171875q-0.234375 0.15625 -0.234375 0.40625q0 0.203125 0.125 0.328125q0.140625 0.109375 0.328125 0.171875q0.203125 0.0625 0.53125 0.109375q0.421875 0.09375 0.671875 0.171875q0.265625 0.078125 0.4375 0.28125q0.1875 0.1875 0.1875 0.515625q0 0.46875 -0.390625 0.734375q-0.375 0.265625 -1.0625 0.265625zm4.8737793 1.265625q-0.375 -0.625 -0.578125 -1.40625q-0.203125 -0.796875 -0.203125 -1.71875q0 -0.90625 0.203125 -1.703125q0.203125 -0.8125 0.578125 -1.40625l0.453125 0q-0.390625 0.671875 -0.578125 1.453125q-0.1875 0.765625 -0.1875 1.65625q0 0.90625 0.1875 1.6875q0.1875 0.765625 0.578125 1.4375l-0.453125 0zm2.5336304 -5.875q-0.296875 0 -0.453125 0.171875q-0.15625 0.171875 -0.15625 0.5l0 0.40625l1.078125 0l0 0.390625l-1.0625 0l0 3.109375l-0.484375 0l0 -3.109375l-0.625 0l0 -0.390625l0.625 0l0 -0.4375q0 -0.46875 0.28125 -0.75q0.28125 -0.28125 0.78125 -0.28125q0.203125 0 0.390625 0.0625q0.1875 0.046875 0.3125 0.15625l-0.15625 0.34375q-0.21875 -0.171875 -0.53125 -0.171875zm2.0866394 1.765625q0.171875 -0.359375 0.5 -0.53125q0.328125 -0.1875 0.8125 -0.1875l0 0.46875l-0.109375 -0.015625q-0.5625 0 -0.875 0.34375q-0.3125 0.34375 -0.3125 0.953125l0 1.78125l-0.46875 0l0 -3.5l0.453125 0l0 0.6875zm3.5668335 2.84375q-0.515625 0 -0.921875 -0.21875q-0.40625 -0.234375 -0.640625 -0.640625q-0.21875 -0.40625 -0.21875 -0.921875q0 -0.515625 0.21875 -0.921875q0.234375 -0.40625 0.640625 -0.625q0.40625 -0.234375 0.921875 -0.234375q0.5 0 0.90625 0.234375q0.40625 0.21875 0.640625 0.625q0.234375 0.40625 0.234375 0.921875q0 0.515625 -0.234375 0.921875q-0.234375 0.40625 -0.640625 0.640625q-0.40625 0.21875 -0.90625 0.21875zm0 -0.421875q0.375 0 0.671875 -0.15625q0.296875 -0.171875 0.453125 -0.484375q0.171875 -0.3125 0.171875 -0.71875q0 -0.40625 -0.171875 -0.71875q-0.15625 -0.3125 -0.453125 -0.46875q-0.296875 -0.171875 -0.671875 -0.171875q-0.375 0 -0.671875 0.171875q-0.296875 0.15625 -0.46875 0.46875q-0.171875 0.3125 -0.171875 0.71875q0 0.40625 0.171875 0.71875q0.171875 0.3125 0.46875 0.484375q0.296875 0.15625 0.671875 0.15625zm7.110916 -3.140625q0.65625 0 1.03125 0.390625q0.375 0.375 0.375 1.109375l0 2.03125l-0.46875 0l0 -1.984375q0 -0.546875 -0.265625 -0.828125q-0.265625 -0.296875 -0.75 -0.296875q-0.546875 0 -0.859375 0.34375q-0.3125 0.34375 -0.3125 0.921875l0 1.84375l-0.46875 0l0 -1.984375q0 -0.546875 -0.265625 -0.828125q-0.265625 -0.296875 -0.75 -0.296875q-0.53125 0 -0.859375 0.34375q-0.3125 0.34375 -0.3125 0.921875l0 1.84375l-0.46875 0l0 -3.5l0.453125 0l0 0.640625q0.1875 -0.328125 0.515625 -0.5q0.34375 -0.171875 0.765625 -0.171875q0.4375 0 0.765625 0.1875q0.328125 0.1875 0.484375 0.5625q0.1875 -0.359375 0.546875 -0.546875q0.375 -0.203125 0.84375 -0.203125z" fill-rule="nonzero"/><path fill="#000000" d="m157.12073 297.99432q-0.125 0.125 -0.328125 0.1875q-0.1875 0.0625 -0.40625 0.0625q-0.5 0 -0.765625 -0.265625q-0.265625 -0.265625 -0.265625 -0.75l0 -2.125l-0.625 0l0 -0.390625l0.625 0l0 -0.765625l0.484375 0l0 0.765625l1.0625 0l0 0.390625l-1.0625 0l0 2.09375q0 0.3125 0.15625 0.484375q0.15625 0.15625 0.4375 0.15625q0.15625 0 0.28125 -0.046875q0.140625 -0.046875 0.25 -0.125l0.15625 0.328125zm2.6399078 -3.3125q0.671875 0 1.046875 0.390625q0.390625 0.375 0.390625 1.109375l0 2.03125l-0.46875 0l0 -1.984375q0 -0.546875 -0.28125 -0.828125q-0.265625 -0.296875 -0.765625 -0.296875q-0.5625 0 -0.90625 0.34375q-0.328125 0.34375 -0.328125 0.921875l0 1.84375l-0.46875 0l0 -4.9375l0.46875 0l0 2.046875q0.203125 -0.296875 0.53125 -0.46875q0.34375 -0.171875 0.78125 -0.171875zm5.785187 1.921875l-2.921875 0q0.03125 0.546875 0.40625 0.890625q0.390625 0.328125 0.96875 0.328125q0.328125 0 0.59375 -0.109375q0.28125 -0.125 0.484375 -0.34375l0.265625 0.296875q-0.234375 0.28125 -0.59375 0.4375q-0.34375 0.140625 -0.765625 0.140625q-0.53125 0 -0.953125 -0.21875q-0.421875 -0.234375 -0.65625 -0.640625q-0.21875 -0.40625 -0.21875 -0.921875q0 -0.515625 0.21875 -0.921875q0.21875 -0.40625 0.609375 -0.625q0.390625 -0.234375 0.875 -0.234375q0.484375 0 0.875 0.234375q0.390625 0.21875 0.609375 0.625q0.21875 0.40625 0.21875 0.921875l-0.015625 0.140625zm-1.6875 -1.515625q-0.5 0 -0.84375 0.328125q-0.34375 0.328125 -0.390625 0.84375l2.484375 0q-0.046875 -0.515625 -0.390625 -0.84375q-0.34375 -0.328125 -0.859375 -0.328125zm5.8579865 3.15625q-0.515625 0 -0.9375 -0.21875q-0.40625 -0.234375 -0.640625 -0.640625q-0.21875 -0.40625 -0.21875 -0.921875q0 -0.515625 0.21875 -0.921875q0.234375 -0.40625 0.640625 -0.625q0.421875 -0.234375 0.9375 -0.234375q0.453125 0 0.8125 0.1875q0.359375 0.171875 0.5625 0.515625l-0.359375 0.234375q-0.171875 -0.265625 -0.4375 -0.390625q-0.265625 -0.125 -0.578125 -0.125q-0.375 0 -0.6875 0.171875q-0.296875 0.15625 -0.46875 0.46875q-0.171875 0.3125 -0.171875 0.71875q0 0.40625 0.171875 0.71875q0.171875 0.3125 0.46875 0.484375q0.3125 0.15625 0.6875 0.15625q0.3125 0 0.578125 -0.125q0.265625 -0.125 0.4375 -0.390625l0.359375 0.25q-0.203125 0.34375 -0.5625 0.515625q-0.359375 0.171875 -0.8125 0.171875zm5.4505463 -3.53125l0 3.5l-0.453125 0l0 -0.640625q-0.1875 0.328125 -0.515625 0.5q-0.328125 0.171875 -0.734375 0.171875q-0.6875 0 -1.09375 -0.375q-0.390625 -0.390625 -0.390625 -1.125l0 -2.03125l0.46875 0l0 1.984375q0 0.546875 0.265625 0.84375q0.28125 0.28125 0.796875 0.28125q0.546875 0 0.859375 -0.328125q0.328125 -0.34375 0.328125 -0.9375l0 -1.84375l0.46875 0zm1.776474 0.6875q0.171875 -0.359375 0.5 -0.53125q0.328125 -0.1875 0.8125 -0.1875l0 0.46875l-0.109375 -0.015625q-0.5625 0 -0.875 0.34375q-0.3125 0.34375 -0.3125 0.953125l0 1.78125l-0.46875 0l0 -3.5l0.453125 0l0 0.6875zm2.615799 0q0.171875 -0.359375 0.5 -0.53125q0.328125 -0.1875 0.8125 -0.1875l0 0.46875l-0.109375 -0.015625q-0.5625 0 -0.875 0.34375q-0.3125 0.34375 -0.3125 0.953125l0 1.78125l-0.46875 0l0 -3.5l0.453125 0l0 0.6875zm5.1762085 1.203125l-2.921875 0q0.03125 0.546875 0.40625 0.890625q0.390625 0.328125 0.96875 0.328125q0.328125 0 0.59375 -0.109375q0.28125 -0.125 0.484375 -0.34375l0.265625 0.296875q-0.234375 0.28125 -0.59375 0.4375q-0.34375 0.140625 -0.765625 0.140625q-0.53125 0 -0.953125 -0.21875q-0.421875 -0.234375 -0.65625 -0.640625q-0.21875 -0.40625 -0.21875 -0.921875q0 -0.515625 0.21875 -0.921875q0.21875 -0.40625 0.609375 -0.625q0.390625 -0.234375 0.875 -0.234375q0.484375 0 0.875 0.234375q0.390625 0.21875 0.609375 0.625q0.21875 0.40625 0.21875 0.921875l-0.015625 0.140625zm-1.6875 -1.515625q-0.5 0 -0.84375 0.328125q-0.34375 0.328125 -0.390625 0.84375l2.484375 0q-0.046875 -0.515625 -0.390625 -0.84375q-0.34375 -0.328125 -0.859375 -0.328125zm4.4421997 -0.40625q0.671875 0 1.046875 0.390625q0.390625 0.375 0.390625 1.109375l0 2.03125l-0.46875 0l0 -1.984375q0 -0.546875 -0.28125 -0.828125q-0.265625 -0.296875 -0.765625 -0.296875q-0.5625 0 -0.90625 0.34375q-0.328125 0.34375 -0.328125 0.921875l0 1.84375l-0.46875 0l0 -3.5l0.453125 0l0 0.640625q0.1875 -0.3125 0.53125 -0.484375q0.34375 -0.1875 0.796875 -0.1875zm4.5687256 3.3125q-0.125 0.125 -0.328125 0.1875q-0.1875 0.0625 -0.40625 0.0625q-0.5 0 -0.765625 -0.265625q-0.265625 -0.265625 -0.265625 -0.75l0 -2.125l-0.625 0l0 -0.390625l0.625 0l0 -0.765625l0.484375 0l0 0.765625l1.0625 0l0 0.390625l-1.0625 0l0 2.09375q0 0.3125 0.15625 0.484375q0.15625 0.15625 0.4375 0.15625q0.15625 0 0.28125 -0.046875q0.140625 -0.046875 0.25 -0.125l0.15625 0.328125z" fill-rule="nonzero"/><path fill="#000000" d="m166.17041 302.68182q0.671875 0 1.046875 0.390625q0.390625 0.375 0.390625 1.109375l0 2.03125l-0.46875 0l0 -1.984375q0 -0.546875 -0.28125 -0.828125q-0.265625 -0.296875 -0.765625 -0.296875q-0.5625 0 -0.90625 0.34375q-0.328125 0.34375 -0.328125 0.921875l0 1.84375l-0.46875 0l0 -3.5l0.453125 0l0 0.640625q0.1875 -0.3125 0.53125 -0.484375q0.34375 -0.1875 0.796875 -0.1875zm4.175812 3.5625q-0.515625 0 -0.921875 -0.21875q-0.40625 -0.234375 -0.640625 -0.640625q-0.21875 -0.40625 -0.21875 -0.921875q0 -0.515625 0.21875 -0.921875q0.234375 -0.40625 0.640625 -0.625q0.40625 -0.234375 0.921875 -0.234375q0.5 0 0.90625 0.234375q0.40625 0.21875 0.640625 0.625q0.234375 0.40625 0.234375 0.921875q0 0.515625 -0.234375 0.921875q-0.234375 0.40625 -0.640625 0.640625q-0.40625 0.21875 -0.90625 0.21875zm0 -0.421875q0.375 0 0.671875 -0.15625q0.296875 -0.171875 0.453125 -0.484375q0.171875 -0.3125 0.171875 -0.71875q0 -0.40625 -0.171875 -0.71875q-0.15625 -0.3125 -0.453125 -0.46875q-0.296875 -0.171875 -0.671875 -0.171875q-0.375 0 -0.671875 0.171875q-0.296875 0.15625 -0.46875 0.46875q-0.171875 0.3125 -0.171875 0.71875q0 0.40625 0.171875 0.71875q0.171875 0.3125 0.46875 0.484375q0.296875 0.15625 0.671875 0.15625zm5.939041 -4.546875l0 4.9375l-0.453125 0l0 -0.6875q-0.21875 0.34375 -0.578125 0.53125q-0.34375 0.1875 -0.78125 0.1875q-0.484375 0 -0.890625 -0.21875q-0.390625 -0.234375 -0.625 -0.640625q-0.21875 -0.40625 -0.21875 -0.921875q0 -0.515625 0.21875 -0.921875q0.234375 -0.40625 0.625 -0.625q0.40625 -0.234375 0.890625 -0.234375q0.421875 0 0.765625 0.1875q0.34375 0.171875 0.5625 0.515625l0 -2.109375l0.484375 0zm-1.765625 4.546875q0.359375 0 0.65625 -0.15625q0.296875 -0.171875 0.46875 -0.484375q0.171875 -0.3125 0.171875 -0.71875q0 -0.40625 -0.171875 -0.71875q-0.171875 -0.3125 -0.46875 -0.46875q-0.296875 -0.171875 -0.65625 -0.171875q-0.375 0 -0.671875 0.171875q-0.296875 0.15625 -0.46875 0.46875q-0.171875 0.3125 -0.171875 0.71875q0 0.40625 0.171875 0.71875q0.171875 0.3125 0.46875 0.484375q0.296875 0.15625 0.671875 0.15625zm6.1222534 -1.21875l-2.921875 0q0.03125 0.546875 0.40625 0.890625q0.390625 0.328125 0.96875 0.328125q0.328125 0 0.59375 -0.109375q0.28125 -0.125 0.484375 -0.34375l0.265625 0.296875q-0.234375 0.28125 -0.59375 0.4375q-0.34375 0.140625 -0.765625 0.140625q-0.53125 0 -0.953125 -0.21875q-0.421875 -0.234375 -0.65625 -0.640625q-0.21875 -0.40625 -0.21875 -0.921875q0 -0.515625 0.21875 -0.921875q0.21875 -0.40625 0.609375 -0.625q0.390625 -0.234375 0.875 -0.234375q0.484375 0 0.875 0.234375q0.390625 0.21875 0.609375 0.625q0.21875 0.40625 0.21875 0.921875l-0.015625 0.140625zm-1.6875 -1.515625q-0.5 0 -0.84375 0.328125q-0.34375 0.328125 -0.390625 0.84375l2.484375 0q-0.046875 -0.515625 -0.390625 -0.84375q-0.34375 -0.328125 -0.859375 -0.328125zm2.2703247 4.421875q0.390625 -0.671875 0.578125 -1.4375q0.1875 -0.78125 0.1875 -1.6875q0 -0.90625 -0.1875 -1.671875q-0.1875 -0.765625 -0.578125 -1.4375l0.453125 0q0.375 0.59375 0.578125 1.40625q0.203125 0.796875 0.203125 1.703125q0 0.921875 -0.203125 1.71875q-0.203125 0.796875 -0.578125 1.40625l-0.453125 0z" fill-rule="nonzero"/><path fill="#d9ead3" d="m141.14174 210.57242l0 0c0 -3.9197083 3.177536 -7.0972595 7.0972443 -7.0972595l50.057465 0c1.882309 0 3.6875153 0.7477417 5.018509 2.0787354c1.3309937 1.3309937 2.0787506 3.1362152 2.0787506 5.018524l0 28.388168c0 3.9197083 -3.1775513 7.0972595 -7.0972595 7.0972595l-50.057465 0c-3.9197083 0 -7.0972443 -3.1775513 -7.0972443 -7.0972595z" fill-rule="evenodd"/><path stroke="#595959" stroke-width="2.0" stroke-linejoin="round" stroke-linecap="butt" d="m141.14174 210.57242l0 0c0 -3.9197083 3.177536 -7.0972595 7.0972443 -7.0972595l50.057465 0c1.882309 0 3.6875153 0.7477417 5.018509 2.0787354c1.3309937 1.3309937 2.0787506 3.1362152 2.0787506 5.018524l0 28.388168c0 3.9197083 -3.1775513 7.0972595 -7.0972595 7.0972595l-50.057465 0c-3.9197083 0 -7.0972443 -3.1775513 -7.0972443 -7.0972595z" fill-rule="evenodd"/><path fill="#000000" d="m166.77946 211.85275q1.0625 0 1.671875 0.515625q0.609375 0.5 0.609375 1.390625q0 0.90625 -0.609375 1.421875q-0.609375 0.5 -1.671875 0.5l-1.515625 0l0 1.765625l-0.59375 0l0 -5.59375l2.109375 0zm-0.03125 3.3125q0.84375 0 1.28125 -0.359375q0.4375 -0.375 0.4375 -1.046875q0 -0.671875 -0.4375 -1.03125q-0.4375 -0.375 -1.28125 -0.375l-1.484375 0l0 2.8125l1.484375 0zm4.905182 -1.953125q0.828125 0 1.265625 0.40625q0.4375 0.40625 0.4375 1.21875l0 2.609375l-0.546875 0l0 -0.65625q-0.1875 0.328125 -0.5625 0.515625q-0.375 0.1875 -0.890625 0.1875q-0.703125 0 -1.125 -0.328125q-0.40625 -0.34375 -0.40625 -0.90625q0 -0.53125 0.390625 -0.859375q0.390625 -0.328125 1.234375 -0.328125l1.34375 0l0 -0.25q0 -0.546875 -0.3125 -0.828125q-0.296875 -0.296875 -0.890625 -0.296875q-0.390625 0 -0.765625 0.140625q-0.359375 0.125 -0.625 0.359375l-0.265625 -0.421875q0.328125 -0.265625 0.765625 -0.40625q0.453125 -0.15625 0.953125 -0.15625zm-0.203125 3.828125q0.484375 0 0.828125 -0.21875q0.34375 -0.21875 0.515625 -0.640625l0 -0.6875l-1.328125 0q-1.078125 0 -1.078125 0.75q0 0.375 0.28125 0.59375q0.28125 0.203125 0.78125 0.203125zm5.673065 0.15625q-0.171875 0.140625 -0.40625 0.21875q-0.234375 0.078125 -0.484375 0.078125q-0.59375 0 -0.921875 -0.3125q-0.3125 -0.328125 -0.3125 -0.921875l0 -2.546875l-0.75 0l0 -0.46875l0.75 0l0 -0.921875l0.5625 0l0 0.921875l1.28125 0l0 0.46875l-1.28125 0l0 2.515625q0 0.375 0.1875 0.578125q0.1875 0.1875 0.546875 0.1875q0.171875 0 0.328125 -0.046875q0.171875 -0.0625 0.296875 -0.15625l0.203125 0.40625zm3.1698303 -3.984375q0.796875 0 1.25 0.46875q0.46875 0.453125 0.46875 1.328125l0 2.4375l-0.5625 0l0 -2.390625q0 -0.65625 -0.328125 -1.0q-0.328125 -0.34375 -0.9375 -0.34375q-0.671875 0 -1.078125 0.40625q-0.390625 0.40625 -0.390625 1.125l0 2.203125l-0.5625 0l0 -5.9375l0.5625 0l0 2.46875q0.234375 -0.375 0.640625 -0.5625q0.40625 -0.203125 0.9375 -0.203125z" fill-rule="nonzero"/><path fill="#000000" d="m156.23596 222.35275l-1.96875 0l0 -0.5l4.53125 0l0 0.5l-1.96875 0l0 5.09375l-0.59375 0l0 -5.09375zm3.8236847 1.703125q0.1875 -0.421875 0.578125 -0.625q0.40625 -0.21875 0.984375 -0.21875l0 0.546875l-0.125 -0.015625q-0.671875 0 -1.046875 0.421875q-0.375 0.40625 -0.375 1.140625l0 2.140625l-0.5625 0l0 -4.203125l0.546875 0l0 0.8125zm4.057831 -0.84375q0.828125 0 1.265625 0.40625q0.4375 0.40625 0.4375 1.21875l0 2.609375l-0.546875 0l0 -0.65625q-0.1875 0.328125 -0.5625 0.515625q-0.375 0.1875 -0.890625 0.1875q-0.703125 0 -1.125 -0.328125q-0.40625 -0.34375 -0.40625 -0.90625q0 -0.53125 0.390625 -0.859375q0.390625 -0.328125 1.234375 -0.328125l1.34375 0l0 -0.25q0 -0.546875 -0.3125 -0.828125q-0.296875 -0.296875 -0.890625 -0.296875q-0.390625 0 -0.765625 0.140625q-0.359375 0.125 -0.625 0.359375l-0.265625 -0.421875q0.328125 -0.265625 0.765625 -0.40625q0.453125 -0.15625 0.953125 -0.15625zm-0.203125 3.828125q0.484375 0 0.828125 -0.21875q0.34375 -0.21875 0.515625 -0.640625l0 -0.6875l-1.328125 0q-1.078125 0 -1.078125 0.75q0 0.375 0.28125 0.59375q0.28125 0.203125 0.78125 0.203125zm5.2046967 0.453125q-0.625 0 -1.125 -0.265625q-0.484375 -0.28125 -0.765625 -0.765625q-0.265625 -0.5 -0.265625 -1.125q0 -0.609375 0.265625 -1.09375q0.28125 -0.5 0.765625 -0.765625q0.5 -0.265625 1.125 -0.265625q0.546875 0 0.96875 0.21875q0.4375 0.203125 0.6875 0.609375l-0.421875 0.28125q-0.21875 -0.3125 -0.546875 -0.46875q-0.3125 -0.15625 -0.6875 -0.15625q-0.453125 0 -0.8125 0.203125q-0.359375 0.203125 -0.578125 0.59375q-0.203125 0.375 -0.203125 0.84375q0 0.5 0.203125 0.875q0.21875 0.359375 0.578125 0.5625q0.359375 0.203125 0.8125 0.203125q0.375 0 0.6875 -0.140625q0.328125 -0.15625 0.546875 -0.46875l0.421875 0.28125q-0.25 0.40625 -0.6875 0.625q-0.421875 0.21875 -0.96875 0.21875zm6.3538055 -1.96875l-3.515625 0q0.046875 0.65625 0.5 1.0625q0.453125 0.390625 1.15625 0.390625q0.390625 0 0.71875 -0.140625q0.328125 -0.140625 0.5625 -0.40625l0.328125 0.375q-0.28125 0.328125 -0.703125 0.515625q-0.421875 0.171875 -0.921875 0.171875q-0.65625 0 -1.15625 -0.28125q-0.5 -0.28125 -0.78125 -0.765625q-0.265625 -0.484375 -0.265625 -1.109375q0 -0.609375 0.265625 -1.09375q0.265625 -0.5 0.734375 -0.765625q0.46875 -0.265625 1.046875 -0.265625q0.59375 0 1.046875 0.265625q0.46875 0.265625 0.734375 0.75q0.265625 0.484375 0.265625 1.109375l-0.015625 0.1875zm-2.03125 -1.828125q-0.609375 0 -1.03125 0.390625q-0.40625 0.390625 -0.453125 1.0l2.984375 0q-0.0625 -0.609375 -0.46875 -1.0q-0.40625 -0.390625 -1.03125 -0.390625zm7.0350647 -2.1875l0 5.9375l-0.53125 0l0 -0.828125q-0.265625 0.421875 -0.6875 0.65625q-0.421875 0.21875 -0.9375 0.21875q-0.59375 0 -1.078125 -0.265625q-0.484375 -0.28125 -0.75 -0.765625q-0.265625 -0.5 -0.265625 -1.125q0 -0.625 0.265625 -1.109375q0.265625 -0.484375 0.75 -0.75q0.484375 -0.265625 1.078125 -0.265625q0.5 0 0.90625 0.21875q0.421875 0.203125 0.6875 0.609375l0 -2.53125l0.5625 0zm-2.109375 5.46875q0.4375 0 0.78125 -0.203125q0.359375 -0.203125 0.5625 -0.578125q0.21875 -0.375 0.21875 -0.859375q0 -0.46875 -0.21875 -0.84375q-0.203125 -0.390625 -0.5625 -0.59375q-0.34375 -0.203125 -0.78125 -0.203125q-0.453125 0 -0.8125 0.203125q-0.34375 0.203125 -0.5625 0.59375q-0.203125 0.375 -0.203125 0.84375q0 0.484375 0.203125 0.859375q0.21875 0.375 0.5625 0.578125q0.359375 0.203125 0.8125 0.203125zm6.9261627 0.515625q-0.515625 0 -0.984375 -0.140625q-0.46875 -0.15625 -0.734375 -0.390625l0.265625 -0.4375q0.265625 0.203125 0.65625 0.34375q0.40625 0.125 0.828125 0.125q0.578125 0 0.859375 -0.171875q0.28125 -0.1875 0.28125 -0.515625q0 -0.234375 -0.15625 -0.359375q-0.15625 -0.140625 -0.390625 -0.203125q-0.234375 -0.078125 -0.609375 -0.140625q-0.515625 -0.09375 -0.828125 -0.1875q-0.3125 -0.109375 -0.53125 -0.34375q-0.21875 -0.234375 -0.21875 -0.671875q0 -0.515625 0.4375 -0.84375q0.4375 -0.34375 1.234375 -0.34375q0.40625 0 0.8125 0.109375q0.40625 0.09375 0.671875 0.28125l-0.25 0.453125q-0.515625 -0.359375 -1.234375 -0.359375q-0.546875 0 -0.828125 0.1875q-0.28125 0.1875 -0.28125 0.5q0 0.25 0.15625 0.390625q0.15625 0.140625 0.390625 0.21875q0.234375 0.0625 0.640625 0.140625q0.5 0.09375 0.796875 0.1875q0.3125 0.09375 0.53125 0.328125q0.21875 0.234375 0.21875 0.640625q0 0.546875 -0.46875 0.875q-0.453125 0.328125 -1.265625 0.328125zm4.505707 0q-0.609375 0 -1.109375 -0.28125q-0.484375 -0.28125 -0.765625 -0.765625q-0.265625 -0.484375 -0.265625 -1.109375q0 -0.609375 0.265625 -1.09375q0.28125 -0.5 0.765625 -0.765625q0.5 -0.265625 1.109375 -0.265625q0.609375 0 1.09375 0.265625q0.484375 0.265625 0.75 0.765625q0.28125 0.484375 0.28125 1.09375q0 0.625 -0.28125 1.109375q-0.265625 0.484375 -0.75 0.765625q-0.484375 0.28125 -1.09375 0.28125zm0 -0.515625q0.4375 0 0.796875 -0.203125q0.359375 -0.203125 0.5625 -0.578125q0.203125 -0.375 0.203125 -0.859375q0 -0.46875 -0.203125 -0.84375q-0.203125 -0.390625 -0.5625 -0.59375q-0.359375 -0.203125 -0.796875 -0.203125q-0.453125 0 -0.8125 0.203125q-0.34375 0.203125 -0.5625 0.59375q-0.203125 0.375 -0.203125 0.84375q0 0.484375 0.203125 0.859375q0.21875 0.375 0.5625 0.578125q0.359375 0.203125 0.8125 0.203125z" fill-rule="nonzero"/><path fill="#000000" d="m170.1753 231.9465q-0.375 0 -0.5625 0.203125q-0.1875 0.203125 -0.1875 0.59375l0 0.5l1.296875 0l0 0.46875l-1.28125 0l0 3.734375l-0.5625 0l0 -3.734375l-0.75 0l0 -0.46875l0.75 0l0 -0.53125q0 -0.5625 0.328125 -0.890625q0.328125 -0.34375 0.9375 -0.34375q0.25 0 0.46875 0.0625q0.21875 0.0625 0.375 0.1875l-0.1875 0.4375q-0.25 -0.21875 -0.625 -0.21875zm2.710083 1.265625q0.828125 0 1.265625 0.40625q0.4375 0.40625 0.4375 1.21875l0 2.609375l-0.546875 0l0 -0.65625q-0.1875 0.328125 -0.5625 0.515625q-0.375 0.1875 -0.890625 0.1875q-0.703125 0 -1.125 -0.328125q-0.40625 -0.34375 -0.40625 -0.90625q0 -0.53125 0.390625 -0.859375q0.390625 -0.328125 1.234375 -0.328125l1.34375 0l0 -0.25q0 -0.546875 -0.3125 -0.828125q-0.296875 -0.296875 -0.890625 -0.296875q-0.390625 0 -0.765625 0.140625q-0.359375 0.125 -0.625 0.359375l-0.265625 -0.421875q0.328125 -0.265625 0.765625 -0.40625q0.453125 -0.15625 0.953125 -0.15625zm-0.203125 3.828125q0.484375 0 0.828125 -0.21875q0.34375 -0.21875 0.515625 -0.640625l0 -0.6875l-1.328125 0q-1.078125 0 -1.078125 0.75q0 0.375 0.28125 0.59375q0.28125 0.203125 0.78125 0.203125zm4.00119 -2.984375q0.1875 -0.421875 0.578125 -0.625q0.40625 -0.21875 0.984375 -0.21875l0 0.546875l-0.125 -0.015625q-0.671875 0 -1.046875 0.421875q-0.375 0.40625 -0.375 1.140625l0 2.140625l-0.5625 0l0 -4.203125l0.546875 0l0 0.8125z" fill-rule="nonzero"/><path fill="#000000" fill-opacity="0.0" d="m205.3937 155.13649l50.70865 0" fill-rule="evenodd"/><path stroke="#595959" stroke-width="1.0" stroke-linejoin="round" stroke-linecap="butt" d="m205.3937 155.13649l44.70865 0" fill-rule="evenodd"/><path fill="#595959" stroke="#595959" stroke-width="1.0" stroke-linecap="butt" d="m250.10236 156.78821l4.538101 -1.6517181l-4.538101 -1.6517334z" fill-rule="evenodd"/><path fill="#000000" fill-opacity="0.0" d="m205.40494 218.79509l50.70865 0" fill-rule="evenodd"/><path stroke="#595959" stroke-width="1.0" stroke-linejoin="round" stroke-linecap="butt" d="m205.40494 218.79509l44.708664 0" fill-rule="evenodd"/><path fill="#595959" stroke="#595959" stroke-width="1.0" stroke-linecap="butt" d="m250.1136 220.44682l4.538101 -1.6517334l-4.538101 -1.6517334z" fill-rule="evenodd"/><path fill="#000000" fill-opacity="0.0" d="m205.40494 291.81073l50.70865 0" fill-rule="evenodd"/><path stroke="#595959" stroke-width="1.0" stroke-linejoin="round" stroke-linecap="butt" d="m205.40494 291.81073l44.708664 0" fill-rule="evenodd"/><path fill="#595959" stroke="#595959" stroke-width="1.0" stroke-linecap="butt" d="m250.1136 293.46246l4.538101 -1.6517334l-4.538101 -1.6517334z" fill-rule="evenodd"/><path fill="#cfe2f3" d="m264.89502 111.48819l45.13385 0l0 230.99213l-45.13385 0z" fill-rule="evenodd"/><path stroke="#595959" stroke-width="2.0" stroke-linejoin="round" stroke-linecap="butt" d="m264.89502 111.48819l45.13385 0l0 230.99213l-45.13385 0z" fill-rule="evenodd"/><path fill="#000000" d="m294.2411 176.84175l0 13.0625l-1.328125 0l0 -10.453125l-5.125 8.796875l-0.65625 0l-5.125 -8.734375l0 10.390625l-1.328125 0l0 -13.0625l1.140625 0l5.671875 9.6875l5.609375 -9.6875l1.140625 0z" fill-rule="nonzero"/><path fill="#000000" d="m287.46378 212.01363q-1.9375 0 -3.515625 -0.859375q-1.5625 -0.875 -2.453125 -2.375q-0.890625 -1.515625 -0.890625 -3.40625q0 -1.875 0.890625 -3.390625q0.890625 -1.515625 2.453125 -2.375q1.578125 -0.875 3.515625 -0.875q1.953125 0 3.5 0.859375q1.5625 0.859375 2.453125 2.390625q0.90625 1.515625 0.90625 3.390625q0 1.890625 -0.90625 3.40625q-0.890625 1.515625 -2.453125 2.375q-1.546875 0.859375 -3.5 0.859375zm0 -1.234375q1.5625 0 2.8125 -0.6875q1.25 -0.703125 1.953125 -1.9375q0.703125 -1.25 0.703125 -2.78125q0 -1.53125 -0.703125 -2.765625q-0.703125 -1.25 -1.953125 -1.9375q-1.25 -0.703125 -2.8125 -0.703125q-1.546875 0 -2.8125 0.703125q-1.25 0.6875 -1.96875 1.9375q-0.71875 1.234375 -0.71875 2.765625q0 1.53125 0.71875 2.78125q0.71875 1.234375 1.96875 1.9375q1.265625 0.6875 2.8125 0.6875z" fill-rule="nonzero"/><path fill="#000000" d="m281.8819 220.84175l5.3125 0q2.078125 0 3.65625 0.828125q1.59375 0.828125 2.46875 2.3125q0.875 1.484375 0.875 3.390625q0 1.90625 -0.875 3.390625q-0.875 1.484375 -2.46875 2.3125q-1.578125 0.828125 -3.65625 0.828125l-5.3125 0l0 -13.0625zm5.25 11.875q1.703125 0 2.984375 -0.6875q1.296875 -0.6875 2.0 -1.890625q0.71875 -1.203125 0.71875 -2.765625q0 -1.5625 -0.71875 -2.765625q-0.703125 -1.203125 -2.0 -1.875q-1.28125 -0.6875 -2.984375 -0.6875l-3.875 0l0 10.671875l3.875 0z" fill-rule="nonzero"/><path fill="#000000" d="m292.5808 254.71675l0 1.1875l-9.234375 0l0 -13.0625l8.953125 0l0 1.203125l-7.578125 0l0 4.640625l6.765625 0l0 1.171875l-6.765625 0l0 4.859375l7.859375 0z" fill-rule="nonzero"/><path fill="#000000" d="m284.09268 264.84174l1.375 0l0 11.875l7.328125 0l0 1.1875l-8.703125 0l0 -13.0625z" fill-rule="nonzero"/><path fill="#000000" fill-opacity="0.0" d="m310.02887 220.3517l25.228363 0" fill-rule="evenodd"/><path stroke="#595959" stroke-width="1.0" stroke-linejoin="round" stroke-linecap="butt" d="m310.02887 220.3517l19.228363 0" fill-rule="evenodd"/><path fill="#595959" stroke="#595959" stroke-width="1.0" stroke-linecap="butt" d="m329.25723 222.00343l4.538086 -1.6517334l-4.538086 -1.6517334z" fill-rule="evenodd"/><path fill="#000000" fill-opacity="0.0" d="m335.25723 203.6063l64.25195 0l0 35.559067l-64.25195 0z" fill-rule="evenodd"/><path fill="#000000" d="m347.4916 217.43755l1.734375 0l0.921875 3.296875q0.015625 0.078125 0.015625 0.15625q0 0.140625 -0.109375 0.265625q-0.109375 0.109375 -0.28125 0.109375q-0.21875 0 -0.390625 -0.328125l-1.890625 -3.5zm8.73877 -0.265625l0 1.375l-0.796875 0l0 -1.375l0.796875 0zm0.015625 2.734375l0 4.96875l2.09375 0q0.1875 0 0.265625 0.078125q0.09375 0.0625 0.09375 0.1875q0 0.109375 -0.09375 0.1875q-0.078125 0.078125 -0.265625 0.078125l-4.71875 0q-0.203125 0 -0.28125 -0.078125q-0.078125 -0.078125 -0.078125 -0.1875q0 -0.125 0.078125 -0.1875q0.078125 -0.078125 0.28125 -0.078125l2.09375 0l0 -4.421875l-1.5625 0q-0.1875 0 -0.28125 -0.078125q-0.078125 -0.078125 -0.078125 -0.1875q0 -0.125 0.078125 -0.203125q0.078125 -0.078125 0.28125 -0.078125l2.09375 0zm10.48877 2.765625q0 1.21875 -0.875 2.078125q-0.859375 0.859375 -2.09375 0.859375q-1.25 0 -2.125 -0.859375q-0.859375 -0.875 -0.859375 -2.078125q0 -1.21875 0.859375 -2.078125q0.875 -0.875 2.125 -0.875q1.234375 0 2.09375 0.859375q0.875 0.859375 0.875 2.09375zm-0.53125 0q0 -1.0 -0.71875 -1.703125q-0.71875 -0.703125 -1.734375 -0.703125q-1.015625 0 -1.734375 0.703125q-0.703125 0.703125 -0.703125 1.703125q0 0.984375 0.703125 1.703125q0.71875 0.703125 1.734375 0.703125q1.015625 0 1.734375 -0.703125q0.71875 -0.703125 0.71875 -1.703125zm5.6293945 -5.234375l0 7.4375l2.09375 0q0.203125 0 0.28125 0.078125q0.078125 0.0625 0.078125 0.1875q0 0.109375 -0.078125 0.1875q-0.078125 0.078125 -0.28125 0.078125l-4.71875 0q-0.1875 0 -0.28125 -0.078125q-0.078125 -0.078125 -0.078125 -0.1875q0 -0.125 0.078125 -0.1875q0.09375 -0.078125 0.28125 -0.078125l2.09375 0l0 -6.890625l-1.546875 0q-0.1875 0 -0.28125 -0.078125q-0.078125 -0.078125 -0.078125 -0.203125q0 -0.109375 0.078125 -0.1875q0.09375 -0.078125 0.28125 -0.078125l2.078125 0zm6.4418945 0l1.71875 0l-1.875 3.5q-0.171875 0.328125 -0.421875 0.328125q-0.15625 0 -0.265625 -0.109375q-0.109375 -0.125 -0.109375 -0.28125q0 -0.0625 0.015625 -0.140625l0.9375 -3.296875z" fill-rule="nonzero"/><path fill="#eeeeee" d="m565.1155 190.13155l0 0c0 -8.63089 6.996704 -15.627609 15.6276245 -15.627609l92.93378 0c4.1446533 0 8.119629 1.6464691 11.050354 4.5772247c2.930725 2.9307404 4.5772095 6.9056854 4.5772095 11.0503845l0 62.50856c0 8.63089 -6.996704 15.6276245 -15.627563 15.6276245l-92.93378 0l0 0c-8.63092 0 -15.6276245 -6.9967346 -15.6276245 -15.6276245z" fill-rule="evenodd"/><path stroke="#595959" stroke-width="2.0" stroke-linejoin="round" stroke-linecap="butt" d="m565.1155 190.13155l0 0c0 -8.63089 6.996704 -15.627609 15.6276245 -15.627609l92.93378 0c4.1446533 0 8.119629 1.6464691 11.050354 4.5772247c2.930725 2.9307404 4.5772095 6.9056854 4.5772095 11.0503845l0 62.50856c0 8.63089 -6.996704 15.6276245 -15.627563 15.6276245l-92.93378 0l0 0c-8.63092 0 -15.6276245 -6.9967346 -15.6276245 -15.6276245z" fill-rule="evenodd"/><path fill="#000000" d="m599.2546 205.37332q0.921875 0.203125 1.421875 0.796875q0.5 0.59375 0.5 1.515625q0 1.203125 -0.890625 1.859375q-0.875 0.640625 -2.609375 0.640625l-4.296875 0l0 -9.328125l4.03125 0q1.5625 0 2.421875 0.625q0.859375 0.625 0.859375 1.765625q0 0.78125 -0.390625 1.328125q-0.375 0.53125 -1.046875 0.796875zm-4.890625 -3.703125l0 3.390625l2.984375 0q1.125 0 1.734375 -0.4375q0.625 -0.4375 0.625 -1.265625q0 -0.828125 -0.625 -1.25q-0.609375 -0.4375 -1.734375 -0.4375l-2.984375 0zm3.296875 7.703125q1.25 0 1.890625 -0.421875q0.640625 -0.4375 0.640625 -1.34375q0 -1.734375 -2.53125 -1.734375l-3.296875 0l0 3.5l3.296875 0zm11.674377 -2.40625l-5.859375 0q0.078125 1.09375 0.828125 1.78125q0.765625 0.671875 1.921875 0.671875q0.65625 0 1.203125 -0.234375q0.546875 -0.234375 0.953125 -0.6875l0.53125 0.609375q-0.46875 0.5625 -1.171875 0.859375q-0.703125 0.28125 -1.53125 0.28125q-1.078125 0 -1.921875 -0.453125q-0.828125 -0.46875 -1.296875 -1.28125q-0.46875 -0.8125 -0.46875 -1.828125q0 -1.03125 0.4375 -1.84375q0.453125 -0.8125 1.234375 -1.265625q0.78125 -0.453125 1.75 -0.453125q0.984375 0 1.75 0.453125q0.78125 0.453125 1.21875 1.265625q0.4375 0.796875 0.4375 1.84375l-0.015625 0.28125zm-3.390625 -3.03125q-1.0 0 -1.6875 0.65625q-0.6875 0.640625 -0.78125 1.671875l4.96875 0q-0.09375 -1.03125 -0.78125 -1.671875q-0.6875 -0.65625 -1.71875 -0.65625zm8.909546 -0.8125q1.3125 0 2.09375 0.765625q0.78125 0.765625 0.78125 2.234375l0 4.0625l-0.9375 0l0 -3.96875q0 -1.09375 -0.546875 -1.65625q-0.546875 -0.578125 -1.5625 -0.578125q-1.140625 0 -1.796875 0.671875q-0.65625 0.671875 -0.65625 1.859375l0 3.671875l-0.953125 0l0 -9.890625l0.953125 0l0 4.109375q0.390625 -0.609375 1.0625 -0.9375q0.6875 -0.34375 1.5625 -0.34375zm7.8980713 0q1.375 0 2.109375 0.6875q0.734375 0.6875 0.734375 2.03125l0 4.34375l-0.90625 0l0 -1.09375q-0.3125 0.546875 -0.9375 0.859375q-0.625 0.296875 -1.46875 0.296875q-1.171875 0 -1.875 -0.546875q-0.6875 -0.5625 -0.6875 -1.484375q0 -0.890625 0.640625 -1.4375q0.65625 -0.546875 2.0625 -0.546875l2.234375 0l0 -0.4375q0 -0.90625 -0.515625 -1.375q-0.5 -0.46875 -1.484375 -0.46875q-0.65625 0 -1.28125 0.21875q-0.609375 0.21875 -1.046875 0.609375l-0.421875 -0.71875q0.53125 -0.453125 1.28125 -0.6875q0.75 -0.25 1.5625 -0.25zm-0.328125 6.375q0.796875 0 1.375 -0.359375q0.578125 -0.359375 0.859375 -1.0625l0 -1.140625l-2.203125 0q-1.796875 0 -1.796875 1.25q0 0.609375 0.453125 0.96875q0.46875 0.34375 1.3125 0.34375zm11.49585 -6.328125l-3.109375 7.015625l-0.96875 0l-3.109375 -7.015625l0.984375 0l2.625 5.96875l2.65625 -5.96875l0.921875 0zm1.3331909 0l0.953125 0l0 7.015625l-0.953125 0l0 -7.015625zm0.484375 -1.53125q-0.296875 0 -0.5 -0.1875q-0.1875 -0.203125 -0.1875 -0.484375q0 -0.265625 0.1875 -0.46875q0.203125 -0.203125 0.5 -0.203125q0.296875 0 0.484375 0.203125q0.203125 0.1875 0.203125 0.453125q0 0.296875 -0.203125 0.5q-0.1875 0.1875 -0.484375 0.1875zm5.975891 8.609375q-1.015625 0 -1.828125 -0.453125q-0.8125 -0.46875 -1.28125 -1.28125q-0.46875 -0.8125 -0.46875 -1.828125q0 -1.03125 0.46875 -1.84375q0.46875 -0.8125 1.28125 -1.265625q0.8125 -0.453125 1.828125 -0.453125q1.015625 0 1.828125 0.453125q0.8125 0.453125 1.265625 1.265625q0.46875 0.8125 0.46875 1.84375q0 1.015625 -0.46875 1.828125q-0.453125 0.8125 -1.265625 1.28125q-0.8125 0.453125 -1.828125 0.453125zm0 -0.828125q0.75 0 1.34375 -0.34375q0.59375 -0.34375 0.921875 -0.96875q0.328125 -0.625 0.328125 -1.421875q0 -0.8125 -0.328125 -1.4375q-0.328125 -0.625 -0.921875 -0.953125q-0.59375 -0.34375 -1.34375 -0.34375q-0.75 0 -1.34375 0.34375q-0.59375 0.328125 -0.9375 0.953125q-0.328125 0.625 -0.328125 1.4375q0 0.796875 0.328125 1.421875q0.34375 0.625 0.9375 0.96875q0.59375 0.34375 1.34375 0.34375zm6.3879395 -4.875q0.34375 -0.703125 1.0 -1.0625q0.65625 -0.359375 1.625 -0.359375l0 0.921875l-0.21875 -0.015625q-1.109375 0 -1.734375 0.6875q-0.625 0.671875 -0.625 1.890625l0 3.578125l-0.953125 0l0 -7.015625l0.90625 0l0 1.375zm6.7714844 -1.421875q1.375 0 2.109375 0.6875q0.734375 0.6875 0.734375 2.03125l0 4.34375l-0.90625 0l0 -1.09375q-0.3125 0.546875 -0.9375 0.859375q-0.625 0.296875 -1.46875 0.296875q-1.171875 0 -1.875 -0.546875q-0.6875 -0.5625 -0.6875 -1.484375q0 -0.890625 0.640625 -1.4375q0.65625 -0.546875 2.0625 -0.546875l2.234375 0l0 -0.4375q0 -0.90625 -0.515625 -1.375q-0.5 -0.46875 -1.484375 -0.46875q-0.65625 0 -1.28125 0.21875q-0.609375 0.21875 -1.046875 0.609375l-0.421875 -0.71875q0.53125 -0.453125 1.28125 -0.6875q0.75 -0.25 1.5625 -0.25zm-0.328125 6.375q0.796875 0 1.375 -0.359375q0.578125 -0.359375 0.859375 -1.0625l0 -1.140625l-2.203125 0q-1.796875 0 -1.796875 1.25q0 0.609375 0.453125 0.96875q0.46875 0.34375 1.3125 0.34375zm5.7385254 -9.203125l0.953125 0l0 9.890625l-0.953125 0l0 -9.890625z" fill-rule="nonzero"/><path fill="#000000" d="m623.59894 216.8577l0 9.328125l-0.9375 0l0 -7.46875l-3.671875 6.28125l-0.46875 0l-3.65625 -6.234375l0 7.421875l-0.953125 0l0 -9.328125l0.8125 0l4.0625 6.921875l4.0 -6.921875l0.8125 0zm5.2908325 2.265625q1.375 0 2.109375 0.6875q0.734375 0.6875 0.734375 2.03125l0 4.34375l-0.90625 0l0 -1.09375q-0.3125 0.546875 -0.9375 0.859375q-0.625 0.296875 -1.46875 0.296875q-1.171875 0 -1.875 -0.546875q-0.6875 -0.5625 -0.6875 -1.484375q0 -0.890625 0.640625 -1.4375q0.65625 -0.546875 2.0625 -0.546875l2.234375 0l0 -0.4375q0 -0.90625 -0.515625 -1.375q-0.5 -0.46875 -1.484375 -0.46875q-0.65625 0 -1.28125 0.21875q-0.609375 0.21875 -1.046875 0.609375l-0.421875 -0.71875q0.53125 -0.453125 1.28125 -0.6875q0.75 -0.25 1.5625 -0.25zm-0.328125 6.375q0.796875 0 1.375 -0.359375q0.578125 -0.359375 0.859375 -1.0625l0 -1.140625l-2.203125 0q-1.796875 0 -1.796875 1.25q0 0.609375 0.453125 0.96875q0.46875 0.34375 1.3125 0.34375zm9.363525 -6.375q0.984375 0 1.78125 0.453125q0.796875 0.4375 1.25 1.25q0.453125 0.8125 0.453125 1.859375q0 1.046875 -0.453125 1.859375q-0.453125 0.8125 -1.25 1.265625q-0.78125 0.4375 -1.78125 0.4375q-0.859375 0 -1.546875 -0.34375q-0.6875 -0.359375 -1.125 -1.03125l0 3.890625l-0.953125 0l0 -9.59375l0.90625 0l0 1.390625q0.4375 -0.6875 1.125 -1.0625q0.703125 -0.375 1.59375 -0.375zm-0.078125 6.296875q0.734375 0 1.328125 -0.34375q0.609375 -0.34375 0.953125 -0.96875q0.34375 -0.625 0.34375 -1.421875q0 -0.8125 -0.34375 -1.421875q-0.34375 -0.625 -0.953125 -0.96875q-0.59375 -0.34375 -1.328125 -0.34375q-0.734375 0 -1.328125 0.34375q-0.59375 0.34375 -0.9375 0.96875q-0.34375 0.609375 -0.34375 1.421875q0 0.796875 0.34375 1.421875q0.34375 0.625 0.9375 0.96875q0.59375 0.34375 1.328125 0.34375z" fill-rule="nonzero"/><path fill="#000000" d="m586.5706 239.68582l-5.203125 0l-1.125 2.5l-1.015625 0l4.265625 -9.328125l0.96875 0l4.265625 9.328125l-1.046875 0l-1.109375 -2.5zm-0.359375 -0.796875l-2.25 -5.0l-2.234375 5.0l4.484375 0zm10.192688 -6.59375l0 9.890625l-0.90625 0l0 -1.390625q-0.421875 0.703125 -1.125 1.078125q-0.703125 0.375 -1.578125 0.375q-0.984375 0 -1.796875 -0.453125q-0.796875 -0.453125 -1.25 -1.265625q-0.453125 -0.8125 -0.453125 -1.84375q0 -1.046875 0.453125 -1.859375q0.453125 -0.8125 1.25 -1.25q0.8125 -0.453125 1.796875 -0.453125q0.84375 0 1.53125 0.359375q0.6875 0.34375 1.125 1.03125l0 -4.21875l0.953125 0zm-3.53125 9.125q0.734375 0 1.328125 -0.34375q0.59375 -0.34375 0.921875 -0.96875q0.34375 -0.625 0.34375 -1.421875q0 -0.8125 -0.34375 -1.4375q-0.328125 -0.625 -0.921875 -0.953125q-0.59375 -0.34375 -1.328125 -0.34375q-0.75 0 -1.34375 0.34375q-0.59375 0.328125 -0.9375 0.953125q-0.328125 0.625 -0.328125 1.4375q0 0.796875 0.328125 1.421875q0.34375 0.625 0.9375 0.96875q0.59375 0.34375 1.34375 0.34375zm5.130188 3.421875q-0.4375 0 -0.828125 -0.125q-0.40625 -0.109375 -0.65625 -0.328125l0.34375 -0.71875q0.40625 0.359375 1.09375 0.359375q0.546875 0 0.84375 -0.34375q0.3125 -0.328125 0.3125 -0.984375l0 -7.53125l0.9375 0l0 7.53125q0 0.984375 -0.53125 1.5625q-0.53125 0.578125 -1.515625 0.578125zm1.578125 -11.21875q-0.296875 0 -0.5 -0.1875q-0.1875 -0.203125 -0.1875 -0.484375q0 -0.265625 0.1875 -0.46875q0.203125 -0.203125 0.5 -0.203125q0.296875 0 0.484375 0.203125q0.203125 0.1875 0.203125 0.453125q0 0.296875 -0.203125 0.5q-0.1875 0.1875 -0.484375 0.1875zm5.5581665 1.5q1.375 0 2.109375 0.6875q0.734375 0.6875 0.734375 2.03125l0 4.34375l-0.90625 0l0 -1.09375q-0.3125 0.546875 -0.9375 0.859375q-0.625 0.296875 -1.46875 0.296875q-1.171875 0 -1.875 -0.546875q-0.6875 -0.5625 -0.6875 -1.484375q0 -0.890625 0.640625 -1.4375q0.65625 -0.546875 2.0625 -0.546875l2.234375 0l0 -0.4375q0 -0.90625 -0.515625 -1.375q-0.5 -0.46875 -1.484375 -0.46875q-0.65625 0 -1.28125 0.21875q-0.609375 0.21875 -1.046875 0.609375l-0.421875 -0.71875q0.53125 -0.453125 1.28125 -0.6875q0.75 -0.25 1.5625 -0.25zm-0.328125 6.375q0.796875 0 1.375 -0.359375q0.578125 -0.359375 0.859375 -1.0625l0 -1.140625l-2.203125 0q-1.796875 0 -1.796875 1.25q0 0.609375 0.453125 0.96875q0.46875 0.34375 1.3125 0.34375zm8.671448 0.75q-1.03125 0 -1.859375 -0.453125q-0.8125 -0.453125 -1.28125 -1.265625q-0.46875 -0.828125 -0.46875 -1.84375q0 -1.03125 0.46875 -1.84375q0.46875 -0.8125 1.28125 -1.265625q0.828125 -0.453125 1.859375 -0.453125q0.90625 0 1.625 0.359375q0.71875 0.34375 1.125 1.03125l-0.703125 0.46875q-0.34375 -0.515625 -0.890625 -0.765625q-0.53125 -0.265625 -1.15625 -0.265625q-0.75 0 -1.359375 0.34375q-0.609375 0.328125 -0.953125 0.953125q-0.328125 0.625 -0.328125 1.4375q0 0.8125 0.328125 1.4375q0.34375 0.609375 0.953125 0.953125q0.609375 0.34375 1.359375 0.34375q0.625 0 1.15625 -0.25q0.546875 -0.265625 0.890625 -0.78125l0.703125 0.484375q-0.40625 0.671875 -1.125 1.03125q-0.71875 0.34375 -1.625 0.34375zm10.586853 -3.28125l-5.859375 0q0.078125 1.09375 0.828125 1.78125q0.765625 0.671875 1.921875 0.671875q0.65625 0 1.203125 -0.234375q0.546875 -0.234375 0.953125 -0.6875l0.53125 0.609375q-0.46875 0.5625 -1.171875 0.859375q-0.703125 0.28125 -1.53125 0.28125q-1.078125 0 -1.921875 -0.453125q-0.828125 -0.46875 -1.296875 -1.28125q-0.46875 -0.8125 -0.46875 -1.828125q0 -1.03125 0.4375 -1.84375q0.453125 -0.8125 1.234375 -1.265625q0.78125 -0.453125 1.75 -0.453125q0.984375 0 1.75 0.453125q0.78125 0.453125 1.21875 1.265625q0.4375 0.796875 0.4375 1.84375l-0.015625 0.28125zm-3.390625 -3.03125q-1.0 0 -1.6875 0.65625q-0.6875 0.640625 -0.78125 1.671875l4.96875 0q-0.09375 -1.03125 -0.78125 -1.671875q-0.6875 -0.65625 -1.71875 -0.65625zm8.909546 -0.8125q1.3125 0 2.09375 0.765625q0.78125 0.765625 0.78125 2.234375l0 4.0625l-0.9375 0l0 -3.96875q0 -1.09375 -0.546875 -1.65625q-0.546875 -0.578125 -1.5625 -0.578125q-1.140625 0 -1.796875 0.671875q-0.65625 0.671875 -0.65625 1.859375l0 3.671875l-0.953125 0l0 -7.015625l0.90625 0l0 1.296875q0.390625 -0.640625 1.078125 -0.984375q0.6875 -0.359375 1.59375 -0.359375zm8.377869 7.125q-1.03125 0 -1.859375 -0.453125q-0.8125 -0.453125 -1.28125 -1.265625q-0.46875 -0.828125 -0.46875 -1.84375q0 -1.03125 0.46875 -1.84375q0.46875 -0.8125 1.28125 -1.265625q0.828125 -0.453125 1.859375 -0.453125q0.90625 0 1.625 0.359375q0.71875 0.34375 1.125 1.03125l-0.703125 0.46875q-0.34375 -0.515625 -0.890625 -0.765625q-0.53125 -0.265625 -1.15625 -0.265625q-0.75 0 -1.359375 0.34375q-0.609375 0.328125 -0.953125 0.953125q-0.328125 0.625 -0.328125 1.4375q0 0.8125 0.328125 1.4375q0.34375 0.609375 0.953125 0.953125q0.609375 0.34375 1.359375 0.34375q0.625 0 1.15625 -0.25q0.546875 -0.265625 0.890625 -0.78125l0.703125 0.484375q-0.40625 0.671875 -1.125 1.03125q-0.71875 0.34375 -1.625 0.34375zm10.381409 -7.078125l-3.5 7.859375q-0.421875 0.984375 -0.984375 1.390625q-0.5625 0.421875 -1.34375 0.421875q-0.515625 0 -0.953125 -0.171875q-0.4375 -0.15625 -0.75 -0.46875l0.4375 -0.703125q0.53125 0.53125 1.28125 0.53125q0.46875 0 0.8125 -0.265625q0.34375 -0.265625 0.640625 -0.90625l0.296875 -0.6875l-3.125 -7.0l0.984375 0l2.640625 5.96875l2.640625 -5.96875l0.921875 0zm5.0283203 -2.3125l0.984375 0l0 8.46875l5.234375 0l0 0.859375l-6.21875 0l0 -9.328125zm7.6470947 2.3125l0.953125 0l0 7.015625l-0.953125 0l0 -7.015625zm0.484375 -1.53125q-0.296875 0 -0.5 -0.1875q-0.1875 -0.203125 -0.1875 -0.484375q0 -0.265625 0.1875 -0.46875q0.203125 -0.203125 0.5 -0.203125q0.296875 0 0.484375 0.203125q0.203125 0.1875 0.203125 0.453125q0 0.296875 -0.203125 0.5q-0.1875 0.1875 -0.484375 0.1875zm4.991516 8.609375q-0.859375 0 -1.640625 -0.234375q-0.78125 -0.25 -1.21875 -0.625l0.421875 -0.75q0.453125 0.34375 1.109375 0.5625q0.671875 0.21875 1.390625 0.21875q0.953125 0 1.40625 -0.296875q0.46875 -0.296875 0.46875 -0.84375q0 -0.390625 -0.25 -0.609375q-0.25 -0.21875 -0.640625 -0.328125q-0.390625 -0.109375 -1.03125 -0.21875q-0.84375 -0.15625 -1.375 -0.328125q-0.515625 -0.171875 -0.890625 -0.5625q-0.359375 -0.40625 -0.359375 -1.109375q0 -0.875 0.734375 -1.4375q0.734375 -0.5625 2.046875 -0.5625q0.671875 0 1.34375 0.1875q0.6875 0.171875 1.125 0.46875l-0.40625 0.75q-0.859375 -0.59375 -2.0625 -0.59375q-0.90625 0 -1.375 0.328125q-0.453125 0.3125 -0.453125 0.828125q0 0.40625 0.25 0.640625q0.265625 0.234375 0.65625 0.359375q0.390625 0.109375 1.0625 0.234375q0.84375 0.15625 1.34375 0.3125q0.515625 0.15625 0.875 0.546875q0.359375 0.390625 0.359375 1.0625q0 0.921875 -0.765625 1.46875q-0.765625 0.53125 -2.125 0.53125zm8.329895 -0.484375q-0.265625 0.234375 -0.671875 0.359375q-0.390625 0.125 -0.8125 0.125q-0.984375 0 -1.515625 -0.53125q-0.53125 -0.53125 -0.53125 -1.5l0 -4.234375l-1.25 0l0 -0.8125l1.25 0l0 -1.53125l0.9375 0l0 1.53125l2.140625 0l0 0.8125l-2.140625 0l0 4.171875q0 0.625 0.3125 0.953125q0.3125 0.328125 0.90625 0.328125q0.296875 0 0.5625 -0.09375q0.28125 -0.09375 0.46875 -0.265625l0.34375 0.6875z" fill-rule="nonzero"/><path fill="#d9ead3" d="m781.20996 204.93472l0 0c0 -4.54303 3.6828613 -8.225891 8.225891 -8.225891l65.12305 0c2.1816406 0 4.273926 0.86665344 5.8165894 2.4093018c1.5426636 1.5426636 2.4093018 3.6349487 2.4093018 5.8165894l0 32.902557c0 4.54303 -3.6828613 8.225891 -8.225891 8.225891l-65.12305 0c-4.54303 0 -8.225891 -3.6828613 -8.225891 -8.225891z" fill-rule="evenodd"/><path stroke="#595959" stroke-width="2.0" stroke-linejoin="round" stroke-linecap="butt" d="m781.20996 204.93472l0 0c0 -4.54303 3.6828613 -8.225891 8.225891 -8.225891l65.12305 0c2.1816406 0 4.273926 0.86665344 5.8165894 2.4093018c1.5426636 1.5426636 2.4093018 3.6349487 2.4093018 5.8165894l0 32.902557c0 4.54303 -3.6828613 8.225891 -8.225891 8.225891l-65.12305 0c-4.54303 0 -8.225891 -3.6828613 -8.225891 -8.225891z" fill-rule="evenodd"/><path fill="#000000" d="m797.42914 212.81474q1.25 0 1.953125 0.609375q0.71875 0.59375 0.71875 1.625q0 1.046875 -0.71875 1.640625q-0.703125 0.59375 -1.953125 0.59375l-1.75 0l0 2.0625l-0.6875 0l0 -6.53125l2.4375 0zm-0.015625 3.859375q0.96875 0 1.484375 -0.421875q0.515625 -0.421875 0.515625 -1.203125q0 -0.78125 -0.515625 -1.203125q-0.515625 -0.4375 -1.484375 -0.4375l-1.734375 0l0 3.265625l1.734375 0zm5.713867 -2.265625q0.953125 0 1.46875 0.484375q0.515625 0.46875 0.515625 1.40625l0 3.046875l-0.625 0l0 -0.765625q-0.234375 0.390625 -0.671875 0.609375q-0.421875 0.203125 -1.03125 0.203125q-0.8125 0 -1.296875 -0.390625q-0.484375 -0.390625 -0.484375 -1.03125q0 -0.625 0.453125 -1.0q0.453125 -0.390625 1.4375 -0.390625l1.5625 0l0 -0.296875q0 -0.640625 -0.359375 -0.96875q-0.359375 -0.328125 -1.03125 -0.328125q-0.46875 0 -0.90625 0.15625q-0.421875 0.140625 -0.734375 0.421875l-0.296875 -0.5q0.375 -0.3125 0.890625 -0.484375q0.53125 -0.171875 1.109375 -0.171875zm-0.234375 4.46875q0.5625 0 0.953125 -0.25q0.40625 -0.265625 0.609375 -0.75l0 -0.8125l-1.546875 0q-1.25 0 -1.25 0.875q0 0.4375 0.3125 0.6875q0.328125 0.25 0.921875 0.25zm6.597351 0.171875q-0.171875 0.171875 -0.453125 0.265625q-0.28125 0.078125 -0.578125 0.078125q-0.6875 0 -1.0625 -0.375q-0.375 -0.375 -0.375 -1.046875l0 -2.96875l-0.875 0l0 -0.5625l0.875 0l0 -1.078125l0.671875 0l0 1.078125l1.484375 0l0 0.5625l-1.484375 0l0 2.921875q0 0.4375 0.21875 0.671875q0.21875 0.234375 0.625 0.234375q0.203125 0 0.390625 -0.0625q0.203125 -0.078125 0.34375 -0.203125l0.21875 0.484375zm3.7091064 -4.640625q0.921875 0 1.46875 0.53125q0.546875 0.53125 0.546875 1.5625l0 2.84375l-0.65625 0l0 -2.78125q0 -0.765625 -0.390625 -1.15625q-0.375 -0.40625 -1.09375 -0.40625q-0.78125 0 -1.25 0.46875q-0.46875 0.46875 -0.46875 1.296875l0 2.578125l-0.65625 0l0 -6.921875l0.65625 0l0 2.875q0.28125 -0.4375 0.75 -0.65625q0.484375 -0.234375 1.09375 -0.234375zm7.665344 -1.0l-2.296875 0l0 -0.59375l5.28125 0l0 0.59375l-2.296875 0l0 5.9375l-0.6875 0l0 -5.9375zm4.458069 1.984375q0.234375 -0.484375 0.6875 -0.734375q0.46875 -0.25 1.140625 -0.25l0 0.640625l-0.15625 -0.015625q-0.765625 0 -1.21875 0.484375q-0.4375 0.46875 -0.4375 1.328125l0 2.5l-0.65625 0l0 -4.90625l0.640625 0l0 0.953125zm4.73468 -0.984375q0.953125 0 1.46875 0.484375q0.515625 0.46875 0.515625 1.40625l0 3.046875l-0.625 0l0 -0.765625q-0.234375 0.390625 -0.671875 0.609375q-0.421875 0.203125 -1.03125 0.203125q-0.8125 0 -1.296875 -0.390625q-0.484375 -0.390625 -0.484375 -1.03125q0 -0.625 0.453125 -1.0q0.453125 -0.390625 1.4375 -0.390625l1.5625 0l0 -0.296875q0 -0.640625 -0.359375 -0.96875q-0.359375 -0.328125 -1.03125 -0.328125q-0.46875 0 -0.90625 0.15625q-0.421875 0.140625 -0.734375 0.421875l-0.296875 -0.5q0.375 -0.3125 0.890625 -0.484375q0.53125 -0.171875 1.109375 -0.171875zm-0.234375 4.46875q0.5625 0 0.953125 -0.25q0.40625 -0.265625 0.609375 -0.75l0 -0.8125l-1.546875 0q-1.25 0 -1.25 0.875q0 0.4375 0.3125 0.6875q0.328125 0.25 0.921875 0.25zm6.069153 0.515625q-0.71875 0 -1.296875 -0.3125q-0.578125 -0.328125 -0.90625 -0.890625q-0.328125 -0.578125 -0.328125 -1.296875q0 -0.71875 0.328125 -1.28125q0.328125 -0.578125 0.90625 -0.890625q0.578125 -0.3125 1.296875 -0.3125q0.640625 0 1.140625 0.25q0.5 0.234375 0.78125 0.71875l-0.484375 0.328125q-0.25 -0.359375 -0.625 -0.53125q-0.375 -0.1875 -0.8125 -0.1875q-0.53125 0 -0.953125 0.234375q-0.421875 0.234375 -0.671875 0.671875q-0.234375 0.4375 -0.234375 1.0q0 0.5625 0.234375 1.0q0.25 0.4375 0.671875 0.671875q0.421875 0.234375 0.953125 0.234375q0.4375 0 0.8125 -0.171875q0.375 -0.171875 0.625 -0.546875l0.484375 0.34375q-0.28125 0.46875 -0.796875 0.71875q-0.5 0.25 -1.125 0.25zm7.4177246 -2.296875l-4.109375 0q0.046875 0.765625 0.578125 1.234375q0.53125 0.46875 1.34375 0.46875q0.46875 0 0.84375 -0.15625q0.390625 -0.171875 0.671875 -0.484375l0.359375 0.4375q-0.3125 0.390625 -0.8125 0.59375q-0.484375 0.203125 -1.078125 0.203125q-0.75 0 -1.34375 -0.3125q-0.578125 -0.328125 -0.90625 -0.890625q-0.328125 -0.578125 -0.328125 -1.296875q0 -0.71875 0.3125 -1.28125q0.3125 -0.578125 0.859375 -0.890625q0.546875 -0.3125 1.234375 -0.3125q0.671875 0 1.21875 0.3125q0.546875 0.3125 0.84375 0.875q0.3125 0.5625 0.3125 1.296875l0 0.203125zm-2.375 -2.125q-0.703125 0 -1.1875 0.453125q-0.484375 0.453125 -0.546875 1.171875l3.484375 0q-0.078125 -0.71875 -0.5625 -1.171875q-0.46875 -0.453125 -1.1875 -0.453125zm8.212341 -2.546875l0 6.921875l-0.640625 0l0 -0.96875q-0.296875 0.5 -0.796875 0.765625q-0.484375 0.25 -1.09375 0.25q-0.6875 0 -1.25 -0.3125q-0.5625 -0.328125 -0.890625 -0.890625q-0.3125 -0.5625 -0.3125 -1.296875q0 -0.734375 0.3125 -1.296875q0.328125 -0.5625 0.890625 -0.875q0.5625 -0.3125 1.25 -0.3125q0.59375 0 1.078125 0.25q0.484375 0.234375 0.78125 0.71875l0 -2.953125l0.671875 0zm-2.484375 6.375q0.515625 0 0.921875 -0.234375q0.421875 -0.234375 0.65625 -0.671875q0.25 -0.4375 0.25 -1.0q0 -0.5625 -0.25 -1.0q-0.234375 -0.4375 -0.65625 -0.671875q-0.40625 -0.234375 -0.921875 -0.234375q-0.515625 0 -0.9375 0.234375q-0.40625 0.234375 -0.65625 0.671875q-0.234375 0.4375 -0.234375 1.0q0 0.5625 0.234375 1.0q0.25 0.4375 0.65625 0.671875q0.421875 0.234375 0.9375 0.234375z" fill-rule="nonzero"/><path fill="#000000" d="m811.64813 230.39287q-0.59375 0 -1.140625 -0.171875q-0.546875 -0.171875 -0.84375 -0.4375l0.296875 -0.515625q0.296875 0.234375 0.765625 0.390625q0.46875 0.15625 0.96875 0.15625q0.671875 0 0.984375 -0.203125q0.328125 -0.21875 0.328125 -0.59375q0 -0.28125 -0.171875 -0.421875q-0.171875 -0.15625 -0.453125 -0.234375q-0.265625 -0.09375 -0.71875 -0.15625q-0.59375 -0.109375 -0.953125 -0.21875q-0.359375 -0.125 -0.625 -0.40625q-0.25 -0.28125 -0.25 -0.78125q0 -0.609375 0.515625 -1.0q0.515625 -0.390625 1.421875 -0.390625q0.46875 0 0.9375 0.125q0.484375 0.125 0.796875 0.328125l-0.28125 0.53125q-0.609375 -0.421875 -1.453125 -0.421875q-0.640625 0 -0.96875 0.234375q-0.3125 0.21875 -0.3125 0.578125q0 0.28125 0.1875 0.453125q0.1875 0.15625 0.453125 0.234375q0.265625 0.078125 0.75 0.171875q0.578125 0.109375 0.9375 0.21875q0.359375 0.109375 0.609375 0.390625q0.25 0.265625 0.25 0.734375q0 0.65625 -0.546875 1.03125q-0.53125 0.375 -1.484375 0.375zm5.2489624 0q-0.703125 0 -1.28125 -0.3125q-0.5625 -0.328125 -0.890625 -0.890625q-0.328125 -0.578125 -0.328125 -1.296875q0 -0.71875 0.328125 -1.28125q0.328125 -0.578125 0.890625 -0.890625q0.578125 -0.3125 1.28125 -0.3125q0.71875 0 1.28125 0.3125q0.578125 0.3125 0.890625 0.890625q0.328125 0.5625 0.328125 1.28125q0 0.71875 -0.328125 1.296875q-0.3125 0.5625 -0.890625 0.890625q-0.5625 0.3125 -1.28125 0.3125zm0 -0.59375q0.53125 0 0.9375 -0.234375q0.421875 -0.234375 0.65625 -0.671875q0.234375 -0.4375 0.234375 -1.0q0 -0.5625 -0.234375 -1.0q-0.234375 -0.4375 -0.65625 -0.671875q-0.40625 -0.234375 -0.9375 -0.234375q-0.515625 0 -0.9375 0.234375q-0.40625 0.234375 -0.65625 0.671875q-0.234375 0.4375 -0.234375 1.0q0 0.5625 0.234375 1.0q0.25 0.4375 0.65625 0.671875q0.421875 0.234375 0.9375 0.234375zm7.9176636 -5.859375q-0.421875 0 -0.65625 0.234375q-0.21875 0.234375 -0.21875 0.6875l0 0.578125l1.515625 0l0 0.5625l-1.484375 0l0 4.34375l-0.671875 0l0 -4.34375l-0.875 0l0 -0.5625l0.875 0l0 -0.609375q0 -0.671875 0.390625 -1.0625q0.390625 -0.390625 1.09375 -0.390625q0.28125 0 0.546875 0.078125q0.265625 0.078125 0.4375 0.234375l-0.21875 0.484375q-0.296875 -0.234375 -0.734375 -0.234375zm3.1626587 1.46875q0.953125 0 1.46875 0.484375q0.515625 0.46875 0.515625 1.40625l0 3.046875l-0.625 0l0 -0.765625q-0.234375 0.390625 -0.671875 0.609375q-0.421875 0.203125 -1.03125 0.203125q-0.8125 0 -1.296875 -0.390625q-0.484375 -0.390625 -0.484375 -1.03125q0 -0.625 0.453125 -1.0q0.453125 -0.390625 1.4375 -0.390625l1.5625 0l0 -0.296875q0 -0.640625 -0.359375 -0.96875q-0.359375 -0.328125 -1.03125 -0.328125q-0.46875 0 -0.90625 0.15625q-0.421875 0.140625 -0.734375 0.421875l-0.296875 -0.5q0.375 -0.3125 0.890625 -0.484375q0.53125 -0.171875 1.109375 -0.171875zm-0.234375 4.46875q0.5625 0 0.953125 -0.25q0.40625 -0.265625 0.609375 -0.75l0 -0.8125l-1.546875 0q-1.25 0 -1.25 0.875q0 0.4375 0.3125 0.6875q0.328125 0.25 0.921875 0.25zm4.659851 -3.484375q0.234375 -0.484375 0.6875 -0.734375q0.46875 -0.25 1.140625 -0.25l0 0.640625l-0.15625 -0.015625q-0.765625 0 -1.21875 0.484375q-0.4375 0.46875 -0.4375 1.328125l0 2.5l-0.65625 0l0 -4.90625l0.640625 0l0 0.953125z" fill-rule="nonzero"/><path fill="#000000" fill-opacity="0.0" d="m781.20996 221.386l-91.90552 0" fill-rule="evenodd"/><path stroke="#595959" stroke-width="1.0" stroke-linejoin="round" stroke-linecap="butt" d="m781.20996 221.38599l-85.90552 0" fill-rule="evenodd"/><path fill="#595959" stroke="#595959" stroke-width="1.0" stroke-linecap="butt" d="m695.30444 219.73425l-4.538086 1.6517334l4.538086 1.6517334z" fill-rule="evenodd"/><path fill="#000000" fill-opacity="0.0" d="m399.5092 221.38583l165.6063 0" fill-rule="evenodd"/><path stroke="#595959" stroke-width="1.0" stroke-linejoin="round" stroke-linecap="butt" d="m399.5092 221.38583l159.6063 0" fill-rule="evenodd"/><path fill="#595959" stroke="#595959" stroke-width="1.0" stroke-linecap="butt" d="m559.1155 223.03755l4.538086 -1.6517181l-4.538086 -1.6517334z" fill-rule="evenodd"/><path fill="#000000" fill-opacity="0.0" d="m627.20996 268.26773l0 63.275574" fill-rule="evenodd"/><path stroke="#595959" stroke-width="1.0" stroke-linejoin="round" stroke-linecap="butt" d="m627.20996 268.26773l0 57.275574" fill-rule="evenodd"/><path fill="#595959" stroke="#595959" stroke-width="1.0" stroke-linecap="butt" d="m625.5582 325.5433l1.6517334 4.538086l1.6517334 -4.538086z" fill-rule="evenodd"/><path fill="#000000" fill-opacity="0.0" d="m565.1155 339.07086l124.188965 0l0 87.275604l-124.188965 0z" fill-rule="evenodd"/><path fill="#000000" d="m590.0308 366.10025q-2.546875 0 -3.96875 -1.453125q-1.40625 -1.453125 -1.40625 -4.234375l0 -7.484375l1.375 0l0 7.421875q0 2.28125 1.03125 3.40625q1.03125 1.109375 2.96875 1.109375q1.953125 0 2.984375 -1.109375q1.03125 -1.125 1.03125 -3.40625l0 -7.421875l1.34375 0l0 7.484375q0 2.78125 -1.421875 4.234375q-1.40625 1.453125 -3.9375 1.453125zm14.291382 -10.0q1.375 0 2.484375 0.625q1.125 0.625 1.765625 1.765625q0.640625 1.140625 0.640625 2.59375q0 1.46875 -0.640625 2.609375q-0.640625 1.140625 -1.75 1.765625q-1.109375 0.625 -2.5 0.625q-1.203125 0 -2.171875 -0.484375q-0.953125 -0.5 -1.5625 -1.453125l0 5.46875l-1.328125 0l0 -13.4375l1.265625 0l0 1.9375q0.609375 -0.96875 1.578125 -1.484375q0.984375 -0.53125 2.21875 -0.53125zm-0.09375 8.8125q1.015625 0 1.859375 -0.46875q0.84375 -0.484375 1.3125 -1.359375q0.484375 -0.875 0.484375 -2.0q0 -1.125 -0.484375 -1.984375q-0.46875 -0.875 -1.3125 -1.359375q-0.84375 -0.484375 -1.859375 -0.484375q-1.046875 0 -1.875 0.484375q-0.828125 0.484375 -1.3125 1.359375q-0.46875 0.859375 -0.46875 1.984375q0 1.125 0.46875 2.0q0.484375 0.875 1.3125 1.359375q0.828125 0.46875 1.875 0.46875zm16.6333 -12.765625l0 13.84375l-1.265625 0l0 -1.9375q-0.59375 0.984375 -1.578125 1.515625q-0.96875 0.515625 -2.203125 0.515625q-1.390625 0 -2.515625 -0.625q-1.109375 -0.640625 -1.75 -1.78125q-0.625 -1.140625 -0.625 -2.59375q0 -1.453125 0.625 -2.59375q0.640625 -1.140625 1.75 -1.765625q1.125 -0.625 2.515625 -0.625q1.1875 0 2.140625 0.5q0.96875 0.484375 1.59375 1.4375l0 -5.890625l1.3125 0zm-4.9375 12.765625q1.03125 0 1.859375 -0.46875q0.828125 -0.484375 1.296875 -1.359375q0.484375 -0.875 0.484375 -2.0q0 -1.125 -0.484375 -2.0q-0.46875 -0.875 -1.296875 -1.34375q-0.828125 -0.484375 -1.859375 -0.484375q-1.046875 0 -1.875 0.484375q-0.828125 0.46875 -1.3125 1.34375q-0.46875 0.875 -0.46875 2.0q0 1.125 0.46875 2.0q0.484375 0.875 1.3125 1.359375q0.828125 0.46875 1.875 0.46875zm12.070801 -8.8125q1.921875 0 2.9375 0.96875q1.03125 0.953125 1.03125 2.84375l0 6.078125l-1.265625 0l0 -1.53125q-0.453125 0.765625 -1.328125 1.203125q-0.859375 0.421875 -2.046875 0.421875q-1.640625 0 -2.609375 -0.78125q-0.96875 -0.78125 -0.96875 -2.078125q0 -1.25 0.890625 -2.015625q0.90625 -0.765625 2.890625 -0.765625l3.109375 0l0 -0.59375q0 -1.265625 -0.703125 -1.921875q-0.703125 -0.671875 -2.0625 -0.671875q-0.9375 0 -1.796875 0.3125q-0.859375 0.3125 -1.46875 0.84375l-0.609375 -0.984375q0.75 -0.640625 1.796875 -0.984375q1.046875 -0.34375 2.203125 -0.34375zm-0.46875 8.9375q1.125 0 1.921875 -0.515625q0.796875 -0.515625 1.1875 -1.484375l0 -1.59375l-3.078125 0q-2.515625 0 -2.515625 1.75q0 0.859375 0.65625 1.359375q0.65625 0.484375 1.828125 0.484375zm13.210327 0.359375q-0.375 0.328125 -0.921875 0.515625q-0.546875 0.171875 -1.15625 0.171875q-1.375 0 -2.125 -0.75q-0.734375 -0.75 -0.734375 -2.109375l0 -5.921875l-1.765625 0l0 -1.125l1.765625 0l0 -2.140625l1.3125 0l0 2.140625l2.984375 0l0 1.125l-2.984375 0l0 5.859375q0 0.875 0.4375 1.328125q0.4375 0.453125 1.265625 0.453125q0.40625 0 0.78125 -0.125q0.390625 -0.140625 0.671875 -0.375l0.46875 0.953125zm2.4025269 -9.21875l1.328125 0l0 9.8125l-1.328125 0l0 -9.8125zm0.671875 -2.140625q-0.40625 0 -0.6875 -0.28125q-0.28125 -0.28125 -0.28125 -0.671875q0 -0.375 0.28125 -0.65625q0.28125 -0.28125 0.6875 -0.28125q0.40625 0 0.6875 0.28125q0.28125 0.265625 0.28125 0.640625q0 0.40625 -0.28125 0.6875q-0.28125 0.28125 -0.6875 0.28125zm9.34668 2.0625q1.84375 0 2.9375 1.078125q1.09375 1.0625 1.09375 3.125l0 5.6875l-1.328125 0l0 -5.5625q0 -1.53125 -0.765625 -2.328125q-0.765625 -0.796875 -2.171875 -0.796875q-1.59375 0 -2.515625 0.9375q-0.921875 0.9375 -0.921875 2.59375l0 5.15625l-1.328125 0l0 -9.8125l1.265625 0l0 1.8125q0.546875 -0.90625 1.5 -1.390625q0.96875 -0.5 2.234375 -0.5zm16.761353 0.078125l0 8.625q0 2.5 -1.234375 3.703125q-1.21875 1.203125 -3.671875 1.203125q-1.359375 0 -2.59375 -0.40625q-1.21875 -0.40625 -1.984375 -1.109375l0.671875 -1.015625q0.703125 0.640625 1.71875 0.984375q1.03125 0.359375 2.140625 0.359375q1.875 0 2.75 -0.875q0.875 -0.859375 0.875 -2.6875l0 -1.25q-0.609375 0.9375 -1.609375 1.421875q-1.0 0.484375 -2.21875 0.484375q-1.375 0 -2.515625 -0.59375q-1.125 -0.609375 -1.765625 -1.703125q-0.640625 -1.09375 -0.640625 -2.484375q0 -1.375 0.640625 -2.453125q0.640625 -1.078125 1.765625 -1.671875q1.125 -0.609375 2.515625 -0.609375q1.25 0 2.25 0.515625q1.015625 0.5 1.625 1.453125l0 -1.890625l1.28125 0zm-5.03125 8.265625q1.078125 0 1.921875 -0.453125q0.859375 -0.46875 1.328125 -1.28125q0.484375 -0.828125 0.484375 -1.875q0 -1.03125 -0.484375 -1.84375q-0.46875 -0.8125 -1.3125 -1.265625q-0.84375 -0.46875 -1.9375 -0.46875q-1.0625 0 -1.90625 0.453125q-0.84375 0.453125 -1.328125 1.28125q-0.46875 0.8125 -0.46875 1.84375q0 1.046875 0.46875 1.875q0.484375 0.8125 1.328125 1.28125q0.84375 0.453125 1.90625 0.453125z" fill-rule="nonzero"/><path fill="#000000" d="m585.93396 387.79712q-0.375 0.328125 -0.921875 0.515625q-0.546875 0.171875 -1.15625 0.171875q-1.375 0 -2.125 -0.75q-0.734375 -0.75 -0.734375 -2.109375l0 -5.921875l-1.765625 0l0 -1.125l1.765625 0l0 -2.140625l1.3125 0l0 2.140625l2.984375 0l0 1.125l-2.984375 0l0 5.859375q0 0.875 0.4375 1.328125q0.4375 0.453125 1.265625 0.453125q0.40625 0 0.78125 -0.125q0.390625 -0.140625 0.671875 -0.375l0.46875 0.953125zm7.402588 -9.296875q1.84375 0 2.9375 1.078125q1.09375 1.0625 1.09375 3.125l0 5.6875l-1.328125 0l0 -5.5625q0 -1.53125 -0.765625 -2.328125q-0.765625 -0.796875 -2.171875 -0.796875q-1.59375 0 -2.515625 0.9375q-0.921875 0.9375 -0.921875 2.59375l0 5.15625l-1.328125 0l0 -13.84375l1.328125 0l0 5.75q0.546875 -0.859375 1.484375 -1.328125q0.953125 -0.46875 2.1875 -0.46875zm16.214478 5.390625l-8.203125 0q0.109375 1.53125 1.171875 2.484375q1.0625 0.9375 2.6875 0.9375q0.90625 0 1.671875 -0.328125q0.765625 -0.328125 1.328125 -0.96875l0.75 0.859375q-0.65625 0.78125 -1.640625 1.203125q-0.96875 0.40625 -2.15625 0.40625q-1.5 0 -2.671875 -0.640625q-1.15625 -0.640625 -1.8125 -1.78125q-0.65625 -1.140625 -0.65625 -2.578125q0 -1.4375 0.625 -2.578125q0.625 -1.140625 1.71875 -1.765625q1.09375 -0.640625 2.453125 -0.640625q1.359375 0 2.4375 0.640625q1.078125 0.625 1.6875 1.765625q0.625 1.125 0.625 2.578125l-0.015625 0.40625zm-4.734375 -4.25q-1.421875 0 -2.390625 0.90625q-0.953125 0.90625 -1.078125 2.359375l6.953125 0q-0.125 -1.453125 -1.09375 -2.359375q-0.953125 -0.90625 -2.390625 -0.90625zm17.515686 8.15625q-0.375 0.328125 -0.921875 0.515625q-0.546875 0.171875 -1.15625 0.171875q-1.375 0 -2.125 -0.75q-0.734375 -0.75 -0.734375 -2.109375l0 -5.921875l-1.765625 0l0 -1.125l1.765625 0l0 -2.140625l1.3125 0l0 2.140625l2.984375 0l0 1.125l-2.984375 0l0 5.859375q0 0.875 0.4375 1.328125q0.4375 0.453125 1.265625 0.453125q0.40625 0 0.78125 -0.125q0.390625 -0.140625 0.671875 -0.375l0.46875 0.953125zm3.6681519 -7.296875q0.46875 -0.984375 1.390625 -1.484375q0.921875 -0.515625 2.296875 -0.515625l0 1.296875l-0.328125 -0.03125q-1.546875 0 -2.421875 0.953125q-0.875 0.953125 -0.875 2.671875l0 5.0l-1.328125 0l0 -9.8125l1.265625 0l0 1.921875zm9.485046 -2.0q1.921875 0 2.9375 0.96875q1.03125 0.953125 1.03125 2.84375l0 6.078125l-1.265625 0l0 -1.53125q-0.453125 0.765625 -1.328125 1.203125q-0.859375 0.421875 -2.046875 0.421875q-1.640625 0 -2.609375 -0.78125q-0.96875 -0.78125 -0.96875 -2.078125q0 -1.25 0.890625 -2.015625q0.90625 -0.765625 2.890625 -0.765625l3.109375 0l0 -0.59375q0 -1.265625 -0.703125 -1.921875q-0.703125 -0.671875 -2.0625 -0.671875q-0.9375 0 -1.796875 0.3125q-0.859375 0.3125 -1.46875 0.84375l-0.609375 -0.984375q0.75 -0.640625 1.796875 -0.984375q1.046875 -0.34375 2.203125 -0.34375zm-0.46875 8.9375q1.125 0 1.921875 -0.515625q0.796875 -0.515625 1.1875 -1.484375l0 -1.59375l-3.078125 0q-2.515625 0 -2.515625 1.75q0 0.859375 0.65625 1.359375q0.65625 0.484375 1.828125 0.484375zm12.138306 1.046875q-1.453125 0 -2.59375 -0.625q-1.140625 -0.640625 -1.796875 -1.78125q-0.65625 -1.15625 -0.65625 -2.59375q0 -1.4375 0.65625 -2.578125q0.65625 -1.140625 1.796875 -1.765625q1.140625 -0.640625 2.59375 -0.640625q1.28125 0 2.265625 0.5q1.0 0.484375 1.578125 1.4375l-0.984375 0.671875q-0.484375 -0.71875 -1.234375 -1.078125q-0.734375 -0.375 -1.625 -0.375q-1.0625 0 -1.90625 0.484375q-0.84375 0.46875 -1.328125 1.34375q-0.46875 0.875 -0.46875 2.0q0 1.140625 0.46875 2.015625q0.484375 0.859375 1.328125 1.34375q0.84375 0.46875 1.90625 0.46875q0.890625 0 1.625 -0.359375q0.75 -0.359375 1.234375 -1.078125l0.984375 0.671875q-0.578125 0.953125 -1.59375 1.453125q-1.0 0.484375 -2.25 0.484375zm14.819824 -4.59375l-8.203125 0q0.109375 1.53125 1.171875 2.484375q1.0625 0.9375 2.6875 0.9375q0.90625 0 1.671875 -0.328125q0.765625 -0.328125 1.328125 -0.96875l0.75 0.859375q-0.65625 0.78125 -1.640625 1.203125q-0.96875 0.40625 -2.15625 0.40625q-1.5 0 -2.671875 -0.640625q-1.15625 -0.640625 -1.8125 -1.78125q-0.65625 -1.140625 -0.65625 -2.578125q0 -1.4375 0.625 -2.578125q0.625 -1.140625 1.71875 -1.765625q1.09375 -0.640625 2.453125 -0.640625q1.359375 0 2.4375 0.640625q1.078125 0.625 1.6875 1.765625q0.625 1.125 0.625 2.578125l-0.015625 0.40625zm-4.734375 -4.25q-1.421875 0 -2.390625 0.90625q-0.953125 0.90625 -1.078125 2.359375l6.953125 0q-0.125 -1.453125 -1.09375 -2.359375q-0.953125 -0.90625 -2.390625 -0.90625zm16.408997 -5.09375l0 13.84375l-1.265625 0l0 -1.9375q-0.59375 0.984375 -1.578125 1.515625q-0.96875 0.515625 -2.203125 0.515625q-1.390625 0 -2.515625 -0.625q-1.109375 -0.640625 -1.75 -1.78125q-0.625 -1.140625 -0.625 -2.59375q0 -1.453125 0.625 -2.59375q0.640625 -1.140625 1.75 -1.765625q1.125 -0.625 2.515625 -0.625q1.1875 0 2.140625 0.5q0.96875 0.484375 1.59375 1.4375l0 -5.890625l1.3125 0zm-4.9375 12.765625q1.03125 0 1.859375 -0.46875q0.828125 -0.484375 1.296875 -1.359375q0.484375 -0.875 0.484375 -2.0q0 -1.125 -0.484375 -2.0q-0.46875 -0.875 -1.296875 -1.34375q-0.828125 -0.484375 -1.859375 -0.484375q-1.046875 0 -1.875 0.484375q-0.828125 0.46875 -1.3125 1.34375q-0.46875 0.875 -0.46875 2.0q0 1.125 0.46875 2.0q0.484375 0.875 1.3125 1.359375q0.828125 0.46875 1.875 0.46875z" fill-rule="nonzero"/><path fill="#000000" d="m612.2138 400.90024q1.375 0 2.484375 0.625q1.125 0.625 1.765625 1.765625q0.640625 1.140625 0.640625 2.59375q0 1.46875 -0.640625 2.609375q-0.640625 1.140625 -1.75 1.765625q-1.109375 0.625 -2.5 0.625q-1.203125 0 -2.171875 -0.484375q-0.953125 -0.5 -1.5625 -1.453125l0 5.46875l-1.328125 0l0 -13.4375l1.265625 0l0 1.9375q0.609375 -0.96875 1.578125 -1.484375q0.984375 -0.53125 2.21875 -0.53125zm-0.09375 8.8125q1.015625 0 1.859375 -0.46875q0.84375 -0.484375 1.3125 -1.359375q0.484375 -0.875 0.484375 -2.0q0 -1.125 -0.484375 -1.984375q-0.46875 -0.875 -1.3125 -1.359375q-0.84375 -0.484375 -1.859375 -0.484375q-1.046875 0 -1.875 0.484375q-0.828125 0.484375 -1.3125 1.359375q-0.46875 0.859375 -0.46875 1.984375q0 1.125 0.46875 2.0q0.484375 0.875 1.3125 1.359375q0.828125 0.46875 1.875 0.46875zm11.061707 -8.8125q1.921875 0 2.9375 0.96875q1.03125 0.953125 1.03125 2.84375l0 6.078125l-1.265625 0l0 -1.53125q-0.453125 0.765625 -1.328125 1.203125q-0.859375 0.421875 -2.046875 0.421875q-1.640625 0 -2.609375 -0.78125q-0.96875 -0.78125 -0.96875 -2.078125q0 -1.25 0.890625 -2.015625q0.90625 -0.765625 2.890625 -0.765625l3.109375 0l0 -0.59375q0 -1.265625 -0.703125 -1.921875q-0.703125 -0.671875 -2.0625 -0.671875q-0.9375 0 -1.796875 0.3125q-0.859375 0.3125 -1.46875 0.84375l-0.609375 -0.984375q0.75 -0.640625 1.796875 -0.984375q1.046875 -0.34375 2.203125 -0.34375zm-0.46875 8.9375q1.125 0 1.921875 -0.515625q0.796875 -0.515625 1.1875 -1.484375l0 -1.59375l-3.078125 0q-2.515625 0 -2.515625 1.75q0 0.859375 0.65625 1.359375q0.65625 0.484375 1.828125 0.484375zm13.210266 0.359375q-0.375 0.328125 -0.921875 0.515625q-0.546875 0.171875 -1.15625 0.171875q-1.375 0 -2.125 -0.75q-0.734375 -0.75 -0.734375 -2.109375l0 -5.921875l-1.765625 0l0 -1.125l1.765625 0l0 -2.140625l1.3125 0l0 2.140625l2.984375 0l0 1.125l-2.984375 0l0 5.859375q0 0.875 0.4375 1.328125q0.4375 0.453125 1.265625 0.453125q0.40625 0 0.78125 -0.125q0.390625 -0.140625 0.671875 -0.375l0.46875 0.953125zm7.402588 -9.296875q1.84375 0 2.9375 1.078125q1.09375 1.0625 1.09375 3.125l0 5.6875l-1.328125 0l0 -5.5625q0 -1.53125 -0.765625 -2.328125q-0.765625 -0.796875 -2.171875 -0.796875q-1.59375 0 -2.515625 0.9375q-0.921875 0.9375 -0.921875 2.59375l0 5.15625l-1.328125 0l0 -13.84375l1.328125 0l0 5.75q0.546875 -0.859375 1.484375 -1.328125q0.953125 -0.46875 2.1875 -0.46875z" fill-rule="nonzero"/><path fill="#000000" fill-opacity="0.0" d="m565.1155 382.70865c-243.55081 0 -434.1056 -39.48819 -487.10165 -78.97638c-52.996063 -39.48819 31.566574 -78.976364 63.133156 -78.976364" fill-rule="evenodd"/><path stroke="#595959" stroke-width="1.0" stroke-linejoin="round" stroke-linecap="butt" d="m565.1155 382.70865c-243.55081 0 -434.1056 -39.48819 -487.10165 -78.97638c-26.498032 -19.74408 -18.606388 -39.48819 -0.14441681 -54.29625c9.230988 -7.4040375 21.10456 -13.574066 32.643295 -17.893082c5.7693634 -2.1595154 11.455025 -3.8562622 16.6848 -5.013138c2.6148834 -0.5784607 5.1157837 -1.0219269 7.4562225 -1.3207855l0.50605774 -0.06123352" fill-rule="evenodd"/><path fill="#595959" stroke="#595959" stroke-width="1.0" stroke-linecap="butt" d="m135.26767 226.79599l4.420532 -1.9446106l-4.6362915 -1.3518066z" fill-rule="evenodd"/></g></svg>