<svg version="1.1" viewBox="0.0 0.0 960.0 540.0" fill="none" stroke="none" stroke-linecap="square" stroke-miterlimit="10" xmlns:xlink="http://www.w3.org/1999/xlink" xmlns="http://www.w3.org/2000/svg"><clipPath id="p.0"><path d="m0 0l960.0 0l0 540.0l-960.0 0l0 -540.0z" clip-rule="nonzero"/></clipPath><g clip-path="url(#p.0)"><path fill="#ffffff" d="m0 0l960.0 0l0 540.0l-960.0 0z" fill-rule="evenodd"/><path fill="#cfe2f3" d="m160.6916 216.56718l0 0c0 -6.9000854 5.5936127 -12.493698 12.493683 -12.493698l183.83153 0c3.3135376 0 6.491333 1.3162994 8.834381 3.659317c2.3430176 2.3430176 3.6593018 5.5208435 3.6593018 8.834381l0 49.97325c0 6.9000854 -5.593628 12.493683 -12.493683 12.493683l-183.83153 0c-6.90007 0 -12.493683 -5.5935974 -12.493683 -12.493683z" fill-rule="evenodd"/><path stroke="#595959" stroke-width="2.0" stroke-linejoin="round" stroke-linecap="butt" d="m160.6916 216.56718l0 0c0 -6.9000854 5.5936127 -12.493698 12.493683 -12.493698l183.83153 0c3.3135376 0 6.491333 1.3162994 8.834381 3.659317c2.3430176 2.3430176 3.6593018 5.5208435 3.6593018 8.834381l0 49.97325c0 6.9000854 -5.593628 12.493683 -12.493683 12.493683l-183.83153 0c-6.90007 0 -12.493683 -5.5935974 -12.493683 -12.493683z" fill-rule="evenodd"/><path fill="#000000" d="m208.44315 237.6338l-1.328125 0l-5.359375 -8.140625l0 8.140625l-1.34375 0l0 -10.234375l1.34375 0l5.359375 8.125l0 -8.125l1.328125 0l0 10.234375zm1.7721252 -4.046875q0 -1.234375 0.5 -2.15625q0.5 -0.9375 1.375 -1.4375q0.875 -0.515625 1.9375 -0.515625q1.0625 0 1.828125 0.453125q0.78125 0.453125 1.171875 1.140625l0 -1.46875l1.34375 0l0 8.03125l-1.34375 0l0 -1.5q-0.40625 0.703125 -1.1875 1.171875q-0.78125 0.453125 -1.828125 0.453125q-1.0625 0 -1.9375 -0.515625q-0.859375 -0.53125 -1.359375 -1.484375q-0.5 -0.953125 -0.5 -2.171875zm6.8125 0.015625q0 -0.90625 -0.375 -1.578125q-0.359375 -0.671875 -0.984375 -1.03125q-0.625 -0.359375 -1.375 -0.359375q-0.75 0 -1.375 0.359375q-0.609375 0.34375 -0.96875 1.015625q-0.359375 0.671875 -0.359375 1.578125q0 0.921875 0.359375 1.609375q0.359375 0.671875 0.96875 1.03125q0.625 0.359375 1.375 0.359375q0.75 0 1.375 -0.359375q0.625 -0.359375 0.984375 -1.03125q0.375 -0.6875 0.375 -1.59375zm5.220169 -2.90625l0 4.734375q0 0.59375 0.25 0.84375q0.25 0.234375 0.875 0.234375l0.96875 0l0 1.125l-1.1875 0q-1.125 0 -1.6875 -0.515625q-0.546875 -0.515625 -0.546875 -1.6875l0 -4.734375l-1.046875 0l0 -1.09375l1.046875 0l0 -2.015625l1.328125 0l0 2.015625l2.09375 0l0 1.09375l-2.09375 0zm10.8349 -1.09375l0 8.03125l-1.328125 0l0 -1.1875q-0.390625 0.609375 -1.078125 0.96875q-0.671875 0.34375 -1.484375 0.34375q-0.9375 0 -1.6875 -0.390625q-0.75 -0.390625 -1.1875 -1.171875q-0.421875 -0.78125 -0.421875 -1.890625l0 -4.703125l1.3125 0l0 4.53125q0 1.1875 0.59375 1.828125q0.609375 0.625 1.640625 0.625q1.078125 0 1.6875 -0.65625q0.625 -0.65625 0.625 -1.921875l0 -4.40625l1.328125 0zm3.5987854 1.296875q0.34375 -0.6875 1.0 -1.0625q0.65625 -0.375 1.59375 -0.375l0 1.375l-0.359375 0q-2.234375 0 -2.234375 2.421875l0 4.375l-1.34375 0l0 -8.03125l1.34375 0l0 1.296875zm3.6230469 2.6875q0 -1.234375 0.5 -2.15625q0.5 -0.9375 1.375 -1.4375q0.875 -0.515625 1.9375 -0.515625q1.0625 0 1.828125 0.453125q0.78125 0.453125 1.171875 1.140625l0 -1.46875l1.34375 0l0 8.03125l-1.34375 0l0 -1.5q-0.40625 0.703125 -1.1875 1.171875q-0.78125 0.453125 -1.828125 0.453125q-1.0625 0 -1.9375 -0.515625q-0.859375 -0.53125 -1.359375 -1.484375q-0.5 -0.953125 -0.5 -2.171875zm6.8125 0.015625q0 -0.90625 -0.375 -1.578125q-0.359375 -0.671875 -0.984375 -1.03125q-0.625 -0.359375 -1.375 -0.359375q-0.75 0 -1.375 0.359375q-0.609375 0.34375 -0.96875 1.015625q-0.359375 0.671875 -0.359375 1.578125q0 0.921875 0.359375 1.609375q0.359375 0.671875 0.96875 1.03125q0.625 0.359375 1.375 0.359375q0.75 0 1.375 -0.359375q0.625 -0.359375 0.984375 -1.03125q0.375 -0.6875 0.375 -1.59375zm4.938919 -6.8125l0 10.84375l-1.34375 0l0 -10.84375l1.34375 0zm7.5186768 9.765625l3.5625 0l0 1.078125l-4.90625 0l0 -10.21875l1.34375 0l0 9.140625zm4.487793 -2.96875q0 -1.234375 0.5 -2.15625q0.5 -0.9375 1.375 -1.4375q0.875 -0.515625 1.9375 -0.515625q1.0625 0 1.828125 0.453125q0.78125 0.453125 1.171875 1.140625l0 -1.46875l1.34375 0l0 8.03125l-1.34375 0l0 -1.5q-0.40625 0.703125 -1.1875 1.171875q-0.78125 0.453125 -1.828125 0.453125q-1.0625 0 -1.9375 -0.515625q-0.859375 -0.53125 -1.359375 -1.484375q-0.5 -0.953125 -0.5 -2.171875zm6.8125 0.015625q0 -0.90625 -0.375 -1.578125q-0.359375 -0.671875 -0.984375 -1.03125q-0.625 -0.359375 -1.375 -0.359375q-0.75 0 -1.375 0.359375q-0.609375 0.34375 -0.96875 1.015625q-0.359375 0.671875 -0.359375 1.578125q0 0.921875 0.359375 1.609375q0.359375 0.671875 0.96875 1.03125q0.625 0.359375 1.375 0.359375q0.75 0 1.375 -0.359375q0.625 -0.359375 0.984375 -1.03125q0.375 -0.6875 0.375 -1.59375zm7.517029 -4.140625q1.453125 0 2.359375 0.890625q0.921875 0.875 0.921875 2.546875l0 4.734375l-1.328125 0l0 -4.546875q0 -1.203125 -0.609375 -1.828125q-0.59375 -0.640625 -1.625 -0.640625q-1.0625 0 -1.6875 0.65625q-0.609375 0.65625 -0.609375 1.921875l0 4.4375l-1.34375 0l0 -8.03125l1.34375 0l0 1.140625q0.390625 -0.609375 1.0625 -0.9375q0.6875 -0.34375 1.515625 -0.34375zm8.77066 0.015625q1.046875 0 1.828125 0.453125q0.78125 0.453125 1.171875 1.140625l0 -1.46875l1.34375 0l0 8.203125q0 1.109375 -0.46875 1.953125q-0.46875 0.859375 -1.34375 1.34375q-0.875 0.484375 -2.03125 0.484375q-1.578125 0 -2.640625 -0.75q-1.046875 -0.734375 -1.234375 -2.03125l1.3125 0q0.21875 0.734375 0.90625 1.171875q0.6875 0.453125 1.65625 0.453125q1.09375 0 1.796875 -0.6875q0.703125 -0.6875 0.703125 -1.9375l0 -1.6875q-0.40625 0.703125 -1.1875 1.171875q-0.765625 0.46875 -1.8125 0.46875q-1.0625 0 -1.9375 -0.515625q-0.875 -0.53125 -1.375 -1.484375q-0.5 -0.953125 -0.5 -2.171875q0 -1.234375 0.5 -2.15625q0.5 -0.9375 1.375 -1.4375q0.875 -0.515625 1.9375 -0.515625zm3.0 4.125q0 -0.90625 -0.375 -1.578125q-0.359375 -0.671875 -0.984375 -1.03125q-0.625 -0.359375 -1.375 -0.359375q-0.75 0 -1.375 0.359375q-0.609375 0.34375 -0.96875 1.015625q-0.359375 0.671875 -0.359375 1.578125q0 0.921875 0.359375 1.609375q0.359375 0.671875 0.96875 1.03125q0.625 0.359375 1.375 0.359375q0.75 0 1.375 -0.359375q0.625 -0.359375 0.984375 -1.03125q0.375 -0.6875 0.375 -1.59375zm10.720184 -4.0l0 8.03125l-1.328125 0l0 -1.1875q-0.390625 0.609375 -1.078125 0.96875q-0.671875 0.34375 -1.484375 0.34375q-0.9375 0 -1.6875 -0.390625q-0.75 -0.390625 -1.1875 -1.171875q-0.421875 -0.78125 -0.421875 -1.890625l0 -4.703125l1.3125 0l0 4.53125q0 1.1875 0.59375 1.828125q0.609375 0.625 1.640625 0.625q1.078125 0 1.6875 -0.65625q0.625 -0.65625 0.625 -1.921875l0 -4.40625l1.328125 0zm1.7550354 3.984375q0 -1.234375 0.5 -2.15625q0.5 -0.9375 1.375 -1.4375q0.875 -0.515625 1.9375 -0.515625q1.0625 0 1.828125 0.453125q0.78125 0.453125 1.171875 1.140625l0 -1.46875l1.34375 0l0 8.03125l-1.34375 0l0 -1.5q-0.40625 0.703125 -1.1875 1.171875q-0.78125 0.453125 -1.828125 0.453125q-1.0625 0 -1.9375 -0.515625q-0.859375 -0.53125 -1.359375 -1.484375q-0.5 -0.953125 -0.5 -2.171875zm6.8125 0.015625q0 -0.90625 -0.375 -1.578125q-0.359375 -0.671875 -0.984375 -1.03125q-0.625 -0.359375 -1.375 -0.359375q-0.75 0 -1.375 0.359375q-0.609375 0.34375 -0.96875 1.015625q-0.359375 0.671875 -0.359375 1.578125q0 0.921875 0.359375 1.609375q0.359375 0.671875 0.96875 1.03125q0.625 0.359375 1.375 0.359375q0.75 0 1.375 -0.359375q0.625 -0.359375 0.984375 -1.03125q0.375 -0.6875 0.375 -1.59375zm6.9076843 -4.125q1.046875 0 1.828125 0.453125q0.78125 0.453125 1.171875 1.140625l0 -1.46875l1.34375 0l0 8.203125q0 1.109375 -0.46875 1.953125q-0.46875 0.859375 -1.34375 1.34375q-0.875 0.484375 -2.03125 0.484375q-1.578125 0 -2.640625 -0.75q-1.046875 -0.734375 -1.234375 -2.03125l1.3125 0q0.21875 0.734375 0.90625 1.171875q0.6875 0.453125 1.65625 0.453125q1.09375 0 1.796875 -0.6875q0.703125 -0.6875 0.703125 -1.9375l0 -1.6875q-0.40625 0.703125 -1.1875 1.171875q-0.765625 0.46875 -1.8125 0.46875q-1.0625 0 -1.9375 -0.515625q-0.875 -0.53125 -1.375 -1.484375q-0.5 -0.953125 -0.5 -2.171875q0 -1.234375 0.5 -2.15625q0.5 -0.9375 1.375 -1.4375q0.875 -0.515625 1.9375 -0.515625zm3.0 4.125q0 -0.90625 -0.375 -1.578125q-0.359375 -0.671875 -0.984375 -1.03125q-0.625 -0.359375 -1.375 -0.359375q-0.75 0 -1.375 0.359375q-0.609375 0.34375 -0.96875 1.015625q-0.359375 0.671875 -0.359375 1.578125q0 0.921875 0.359375 1.609375q0.359375 0.671875 0.96875 1.03125q0.625 0.359375 1.375 0.359375q0.75 0 1.375 -0.359375q0.625 -0.359375 0.984375 -1.03125q0.375 -0.6875 0.375 -1.59375zm10.923279 -0.296875q0 0.390625 -0.046875 0.8125l-6.40625 0q0.0625 1.1875 0.796875 1.859375q0.75 0.65625 1.8125 0.65625q0.859375 0 1.4375 -0.390625q0.578125 -0.40625 0.8125 -1.09375l1.4375 0q-0.328125 1.171875 -1.296875 1.890625q-0.96875 0.71875 -2.390625 0.71875q-1.15625 0 -2.0625 -0.5q-0.890625 -0.515625 -1.40625 -1.453125q-0.515625 -0.953125 -0.515625 -2.203125q0 -1.25 0.5 -2.1875q0.5 -0.9375 1.390625 -1.4375q0.90625 -0.5 2.09375 -0.5q1.140625 0 2.015625 0.5q0.875 0.484375 1.34375 1.359375q0.484375 0.875 0.484375 1.96875zm-1.375 -0.28125q0 -0.75 -0.34375 -1.296875q-0.328125 -0.5625 -0.90625 -0.84375q-0.578125 -0.28125 -1.28125 -0.28125q-1.015625 0 -1.734375 0.640625q-0.703125 0.640625 -0.796875 1.78125l5.0625 0z" fill-rule="nonzero"/><path fill="#000000" d="m228.8625 245.41505l0 10.21875l-1.34375 0l0 -10.21875l1.34375 0zm6.1835785 2.046875q1.453125 0 2.359375 0.890625q0.921875 0.875 0.921875 2.546875l0 4.734375l-1.328125 0l0 -4.546875q0 -1.203125 -0.609375 -1.828125q-0.59375 -0.640625 -1.625 -0.640625q-1.0625 0 -1.6875 0.65625q-0.609375 0.65625 -0.609375 1.921875l0 4.4375l-1.34375 0l0 -8.03125l1.34375 0l0 1.140625q0.390625 -0.609375 1.0625 -0.9375q0.6875 -0.34375 1.515625 -0.34375zm8.30191 8.296875q-0.921875 0 -1.65625 -0.3125q-0.734375 -0.3125 -1.15625 -0.875q-0.421875 -0.5625 -0.46875 -1.296875l1.375 0q0.0625 0.59375 0.5625 0.984375q0.515625 0.375 1.328125 0.375q0.765625 0 1.203125 -0.328125q0.4375 -0.34375 0.4375 -0.859375q0 -0.53125 -0.46875 -0.78125q-0.46875 -0.25 -1.453125 -0.5q-0.890625 -0.234375 -1.453125 -0.46875q-0.5625 -0.25 -0.96875 -0.71875q-0.40625 -0.484375 -0.40625 -1.265625q0 -0.609375 0.359375 -1.125q0.375 -0.515625 1.046875 -0.8125q0.6875 -0.296875 1.546875 -0.296875q1.328125 0 2.140625 0.671875q0.828125 0.671875 0.890625 1.84375l-1.328125 0q-0.046875 -0.625 -0.515625 -1.0q-0.453125 -0.390625 -1.234375 -0.390625q-0.71875 0 -1.140625 0.3125q-0.421875 0.296875 -0.421875 0.796875q0 0.390625 0.25 0.65625q0.265625 0.25 0.640625 0.40625q0.390625 0.15625 1.078125 0.34375q0.875 0.234375 1.40625 0.46875q0.546875 0.21875 0.9375 0.671875q0.390625 0.453125 0.40625 1.1875q0 0.65625 -0.375 1.1875q-0.359375 0.53125 -1.03125 0.828125q-0.65625 0.296875 -1.53125 0.296875zm6.431839 -7.0625l0 4.734375q0 0.59375 0.25 0.84375q0.25 0.234375 0.875 0.234375l0.96875 0l0 1.125l-1.1875 0q-1.125 0 -1.6875 -0.515625q-0.546875 -0.515625 -0.546875 -1.6875l0 -4.734375l-1.046875 0l0 -1.09375l1.046875 0l0 -2.015625l1.328125 0l0 2.015625l2.09375 0l0 1.09375l-2.09375 0zm5.05365 0.203125q0.34375 -0.6875 1.0 -1.0625q0.65623474 -0.375 1.5937347 -0.375l0 1.375l-0.359375 0q-2.2343597 0 -2.2343597 2.421875l0 4.375l-1.34375 0l0 -8.03125l1.34375 0l0 1.296875zm11.248032 -1.296875l0 8.03125l-1.328125 0l0 -1.1875q-0.390625 0.609375 -1.078125 0.96875q-0.671875 0.34375 -1.484375 0.34375q-0.9375 0 -1.6875 -0.390625q-0.75 -0.390625 -1.1875 -1.171875q-0.421875 -0.78125 -0.421875 -1.890625l0 -4.703125l1.3125 0l0 4.53125q0 1.1875 0.59375 1.828125q0.609375 0.625 1.640625 0.625q1.078125 0 1.6875 -0.65625q0.625 -0.65625 0.625 -1.921875l0 -4.40625l1.328125 0zm1.7550354 4.0q0 -1.25 0.5 -2.171875q0.5 -0.9375 1.390625 -1.4375q0.890625 -0.515625 2.03125 -0.515625q1.484375 0 2.4375 0.71875q0.953125 0.703125 1.265625 1.984375l-1.4375 0q-0.203125 -0.734375 -0.796875 -1.15625q-0.59375 -0.421875 -1.46875 -0.421875q-1.140625 0 -1.84375 0.78125q-0.703125 0.78125 -0.703125 2.21875q0 1.453125 0.703125 2.25q0.703125 0.78125 1.84375 0.78125q0.875 0 1.453125 -0.40625q0.59375 -0.40625 0.8125 -1.171875l1.4375 0q-0.328125 1.234375 -1.296875 1.96875q-0.953125 0.734375 -2.40625 0.734375q-1.140625 0 -2.03125 -0.5q-0.890625 -0.515625 -1.390625 -1.453125q-0.5 -0.9375 -0.5 -2.203125zm11.021393 -2.90625l0 4.734375q0 0.59375 0.25 0.84375q0.25 0.234375 0.875 0.234375l0.96875 0l0 1.125l-1.1875 0q-1.125 0 -1.6875 -0.515625q-0.546875 -0.515625 -0.546875 -1.6875l0 -4.734375l-1.046875 0l0 -1.09375l1.046875 0l0 -2.015625l1.328125 0l0 2.015625l2.09375 0l0 1.09375l-2.09375 0zm4.3974 -2.40625q-0.375 0 -0.640625 -0.25q-0.265625 -0.265625 -0.265625 -0.65625q0 -0.375 0.265625 -0.640625q0.265625 -0.265625 0.640625 -0.265625q0.375 0 0.625 0.265625q0.265625 0.265625 0.265625 0.640625q0 0.390625 -0.265625 0.65625q-0.25 0.25 -0.625 0.25zm0.65625 1.3125l0 8.03125l-1.34375 0l0 -8.03125l1.34375 0zm5.761688 8.15625q-1.125 0 -2.046875 -0.5q-0.90625 -0.515625 -1.4375 -1.453125q-0.515625 -0.953125 -0.515625 -2.203125q0 -1.234375 0.53125 -2.171875q0.546875 -0.953125 1.46875 -1.453125q0.921875 -0.5 2.0625 -0.5q1.140625 0 2.0625 0.5q0.9375305 0.5 1.4687805 1.4375q0.53125 0.9375 0.53125 2.1875q0 1.25 -0.546875 2.203125q-0.546875 0.9375 -1.4844055 1.453125q-0.9375 0.5 -2.09375 0.5zm0 -1.171875q0.71875 0 1.34375 -0.328125q0.640625 -0.34375 1.03125 -1.015625q0.39065552 -0.671875 0.39065552 -1.640625q0 -0.96875 -0.39065552 -1.640625q-0.375 -0.671875 -1.0 -1.0q-0.609375 -0.328125 -1.328125 -0.328125q-0.734375 0 -1.34375 0.328125q-0.609375 0.328125 -0.96875 1.0q-0.359375 0.671875 -0.359375 1.640625q0 0.984375 0.359375 1.65625q0.359375 0.671875 0.953125 1.0q0.59375 0.328125 1.3125 0.328125zm9.801941 -7.125q1.453125 0 2.359375 0.890625q0.921875 0.875 0.921875 2.546875l0 4.734375l-1.328125 0l0 -4.546875q0 -1.203125 -0.609375 -1.828125q-0.59375 -0.640625 -1.625 -0.640625q-1.0625 0 -1.6875 0.65625q-0.609375 0.65625 -0.609375 1.921875l0 4.4375l-1.34375 0l0 -8.03125l1.34375 0l0 1.140625q0.390625 -0.609375 1.0625 -0.9375q0.6875 -0.34375 1.515625 -0.34375z" fill-rule="nonzero"/><path fill="#d0e0e3" d="m160.6916 335.0606l0 0c0 -6.900055 5.5936127 -12.493683 12.493683 -12.493683l183.83153 0c3.3135376 0 6.491333 1.3163147 8.834381 3.6593323c2.3430176 2.3430176 3.6593018 5.520813 3.6593018 8.834351l0 49.973267c0 6.900055 -5.593628 12.493683 -12.493683 12.493683l-183.83153 0c-6.90007 0 -12.493683 -5.593628 -12.493683 -12.493683z" fill-rule="evenodd"/><path stroke="#595959" stroke-width="2.0" stroke-linejoin="round" stroke-linecap="butt" d="m160.6916 335.0606l0 0c0 -6.900055 5.5936127 -12.493683 12.493683 -12.493683l183.83153 0c3.3135376 0 6.491333 1.3163147 8.834381 3.6593323c2.3430176 2.3430176 3.6593018 5.520813 3.6593018 8.834351l0 49.973267c0 6.900055 -5.593628 12.493683 -12.493683 12.493683l-183.83153 0c-6.90007 0 -12.493683 -5.593628 -12.493683 -12.493683z" fill-rule="evenodd"/><path fill="#000000" d="m214.40396 359.86163q0.546875 0.09375 1.0 0.46875q0.46875 0.359375 0.734375 0.90625q0.28125 0.53125 0.28125 1.15625q0 0.765625 -0.40625 1.390625q-0.390625 0.625 -1.140625 0.984375q-0.75 0.359375 -1.78125 0.359375l-3.8125 0l0 -10.21875l3.671875 0q1.03125 0 1.765625 0.34375q0.734375 0.34375 1.09375 0.9375q0.375 0.578125 0.375 1.3125q0 0.90625 -0.5 1.5q-0.484375 0.59375 -1.28125 0.859375zm-3.78125 -0.53125l2.234375 0q0.9375 0 1.453125 -0.4375q0.515625 -0.453125 0.515625 -1.21875q0 -0.78125 -0.515625 -1.21875q-0.515625 -0.4375 -1.484375 -0.4375l-2.203125 0l0 3.3125zm2.359375 4.703125q0.984375 0 1.546875 -0.46875q0.5625 -0.46875 0.5625 -1.3125q0 -0.84375 -0.59375 -1.328125q-0.578125 -0.5 -1.5625 -0.5l-2.3125 0l0 3.609375l2.359375 0zm12.609314 -3.234375q0 0.390625 -0.046875 0.8125l-6.40625 0q0.0625 1.1875 0.796875 1.859375q0.75 0.65625 1.8125 0.65625q0.859375 0 1.4375 -0.390625q0.578125 -0.40625 0.8125 -1.09375l1.4375 0q-0.328125 1.171875 -1.296875 1.890625q-0.96875 0.71875 -2.390625 0.71875q-1.15625 0 -2.0625 -0.5q-0.890625 -0.515625 -1.40625 -1.453125q-0.515625 -0.953125 -0.515625 -2.203125q0 -1.25 0.5 -2.1875q0.5 -0.9375 1.390625 -1.4375q0.90625 -0.5 2.09375 -0.5q1.140625 0 2.015625 0.5q0.875 0.484375 1.34375 1.359375q0.484375 0.875 0.484375 1.96875zm-1.375 -0.28125q0 -0.75 -0.34375 -1.296875q-0.328125 -0.5625 -0.90625 -0.84375q-0.578125 -0.28125 -1.28125 -0.28125q-1.015625 0 -1.734375 0.640625q-0.703125 0.640625 -0.796875 1.78125l5.0625 0zm7.118164 -3.5625q0.921875 0 1.640625 0.390625q0.734375 0.375 1.15625 1.15625q0.421875 0.78125 0.421875 1.890625l0 4.734375l-1.328125 0l0 -4.546875q0 -1.203125 -0.609375 -1.828125q-0.59375 -0.640625 -1.625 -0.640625q-1.0625 0 -1.6875 0.65625q-0.609375 0.65625 -0.609375 1.921875l0 4.4375l-1.34375 0l0 -10.84375l1.34375 0l0 3.953125q0.390625 -0.609375 1.078125 -0.9375q0.703125 -0.34375 1.5625 -0.34375zm4.8956604 4.125q0 -1.234375 0.5 -2.15625q0.5 -0.9375 1.375 -1.4375q0.875 -0.515625 1.9375 -0.515625q1.0625 0 1.828125 0.453125q0.78125 0.453125 1.171875 1.140625l0 -1.46875l1.34375 0l0 8.03125l-1.34375 0l0 -1.5q-0.40625 0.703125 -1.1875 1.171875q-0.78125 0.453125 -1.828125 0.453125q-1.0625 0 -1.9375 -0.515625q-0.859375 -0.53125 -1.359375 -1.484375q-0.5 -0.953125 -0.5 -2.171875zm6.8125 0.015625q0 -0.90625 -0.375 -1.578125q-0.359375 -0.671875 -0.984375 -1.03125q-0.625 -0.359375 -1.375 -0.359375q-0.75 0 -1.375 0.359375q-0.609375 0.34375 -0.96875 1.015625q-0.359375 0.671875 -0.359375 1.578125q0 0.921875 0.359375 1.609375q0.359375 0.671875 0.96875 1.03125q0.625 0.359375 1.375 0.359375q0.75 0 1.375 -0.359375q0.625 -0.359375 0.984375 -1.03125q0.375 -0.6875 0.375 -1.59375zm6.595169 2.796875l2.484375 -6.796875l1.421875 0l-3.15625 8.03125l-1.546875 0l-3.15625 -8.03125l1.4375 0l2.515625 6.796875zm5.909683 -8.109375q-0.375 0 -0.640625 -0.25q-0.265625 -0.265625 -0.265625 -0.65625q0 -0.375 0.265625 -0.640625q0.265625 -0.265625 0.640625 -0.265625q0.375 0 0.625 0.265625q0.265625 0.265625 0.265625 0.640625q0 0.390625 -0.265625 0.65625q-0.25 0.25 -0.625 0.25zm0.65625 1.3125l0 8.03125l-1.34375 0l0 -8.03125l1.34375 0zm5.7617188 8.15625q-1.125 0 -2.046875 -0.5q-0.90625 -0.515625 -1.4375 -1.453125q-0.515625 -0.953125 -0.515625 -2.203125q0 -1.234375 0.53125 -2.171875q0.546875 -0.953125 1.46875 -1.453125q0.921875 -0.5 2.0625 -0.5q1.140625 0 2.0625 0.5q0.9375 0.5 1.46875 1.4375q0.53125 0.9375 0.53125 2.1875q0 1.25 -0.546875 2.203125q-0.546875 0.9375 -1.484375 1.453125q-0.9375 0.5 -2.09375 0.5zm0 -1.171875q0.71875 0 1.34375 -0.328125q0.640625 -0.34375 1.03125 -1.015625q0.390625 -0.671875 0.390625 -1.640625q0 -0.96875 -0.390625 -1.640625q-0.375 -0.671875 -1.0 -1.0q-0.609375 -0.328125 -1.328125 -0.328125q-0.734375 0 -1.34375 0.328125q-0.609375 0.328125 -0.96875 1.0q-0.359375 0.671875 -0.359375 1.640625q0 0.984375 0.359375 1.65625q0.359375 0.671875 0.953125 1.0q0.59375 0.328125 1.3125 0.328125zm7.2237854 -5.6875q0.34375 -0.6875 1.0 -1.0625q0.65625 -0.375 1.59375 -0.375l0 1.375l-0.359375 0q-2.234375 0 -2.234375 2.421875l0 4.375l-1.34375 0l0 -8.03125l1.34375 0l0 1.296875zm3.6230469 2.6875q0 -1.234375 0.5 -2.15625q0.5 -0.9375 1.375 -1.4375q0.875 -0.515625 1.9375 -0.515625q1.0625 0 1.828125 0.453125q0.78125 0.453125 1.171875 1.140625l0 -1.46875l1.34375 0l0 8.03125l-1.34375 0l0 -1.5q-0.40625 0.703125 -1.1875 1.171875q-0.78125 0.453125 -1.828125 0.453125q-1.0625 0 -1.9375 -0.515625q-0.859375 -0.53125 -1.359375 -1.484375q-0.5 -0.953125 -0.5 -2.171875zm6.8125 0.015625q0 -0.90625 -0.375 -1.578125q-0.359375 -0.671875 -0.984375 -1.03125q-0.625 -0.359375 -1.375 -0.359375q-0.75 0 -1.375 0.359375q-0.609375 0.34375 -0.96875 1.015625q-0.359375 0.671875 -0.359375 1.578125q0 0.921875 0.359375 1.609375q0.359375 0.671875 0.96875 1.03125q0.625 0.359375 1.375 0.359375q0.75 0 1.375 -0.359375q0.625 -0.359375 0.984375 -1.03125q0.375 -0.6875 0.375 -1.59375zm4.938904 -6.8125l0 10.84375l-1.34375 0l0 -10.84375l1.34375 0zm16.534332 0.703125l0 10.140625l-1.328125 0l0 -7.5625l-3.375 7.5625l-0.9375 0l-3.375 -7.578125l0 7.578125l-1.34375 0l0 -10.140625l1.4375 0l3.75 8.375l3.75 -8.375l1.421875 0zm1.7597046 6.09375q0 -1.234375 0.5 -2.15625q0.5 -0.9375 1.375 -1.4375q0.875 -0.515625 1.9375 -0.515625q1.0625 0 1.828125 0.453125q0.78125 0.453125 1.171875 1.140625l0 -1.46875l1.34375 0l0 8.03125l-1.34375 0l0 -1.5q-0.40625 0.703125 -1.1875 1.171875q-0.78125 0.453125 -1.828125 0.453125q-1.0625 0 -1.9375 -0.515625q-0.859375 -0.53125 -1.359375 -1.484375q-0.5 -0.953125 -0.5 -2.171875zm6.8125 0.015625q0 -0.90625 -0.375 -1.578125q-0.359375 -0.671875 -0.984375 -1.03125q-0.625 -0.359375 -1.375 -0.359375q-0.75 0 -1.375 0.359375q-0.609375 0.34375 -0.96875 1.015625q-0.359375 0.671875 -0.359375 1.578125q0 0.921875 0.359375 1.609375q0.359375 0.671875 0.96875 1.03125q0.625 0.359375 1.375 0.359375q0.75 0 1.375 -0.359375q0.625 -0.359375 0.984375 -1.03125q0.375 -0.6875 0.375 -1.59375zm4.938904 -2.515625q0.390625 -0.6875 1.171875 -1.140625q0.78125 -0.46875 1.828125 -0.46875q1.0625 0 1.9375 0.515625q0.875 0.5 1.375 1.4375q0.5 0.921875 0.5 2.15625q0 1.21875 -0.5 2.171875q-0.5 0.953125 -1.375 1.484375q-0.875 0.515625 -1.9375 0.515625q-1.03125 0 -1.8125 -0.453125q-0.78125 -0.46875 -1.1875 -1.15625l0 5.296875l-1.34375 0l0 -11.84375l1.34375 0l0 1.484375zm5.453125 2.5q0 -0.90625 -0.375 -1.578125q-0.359375 -0.671875 -0.984375 -1.015625q-0.625 -0.359375 -1.375 -0.359375q-0.734375 0 -1.359375 0.359375q-0.625 0.359375 -1.0 1.046875q-0.359375 0.671875 -0.359375 1.5625q0 0.90625 0.359375 1.59375q0.375 0.671875 1.0 1.03125q0.625 0.359375 1.359375 0.359375q0.75 0 1.375 -0.359375q0.625 -0.359375 0.984375 -1.03125q0.375 -0.6875 0.375 -1.609375z" fill-rule="nonzero"/><path fill="#000000" fill-opacity="0.0" d="m395.50787 297.74014l169.79529 0" fill-rule="evenodd"/><path stroke="#595959" stroke-width="1.0" stroke-linejoin="round" stroke-linecap="butt" d="m395.50787 297.74014l163.79529 0" fill-rule="evenodd"/><path fill="#595959" stroke="#595959" stroke-width="1.0" stroke-linecap="butt" d="m559.30316 299.39188l4.538086 -1.6517334l-4.538086 -1.6517029z" fill-rule="evenodd"/><path fill="#d9ead3" d="m590.4895 270.90314l0 0c0 -6.9000854 5.593628 -12.493683 12.493713 -12.493683l183.83148 0c3.3135376 0 6.491394 1.3162842 8.834412 3.6593018c2.3430176 2.3430176 3.6593018 5.5208435 3.6593018 8.834381l0 49.973267c0 6.900055 -5.593628 12.493683 -12.493713 12.493683l-183.83148 0c-6.9000854 0 -12.493713 -5.593628 -12.493713 -12.493683z" fill-rule="evenodd"/><path stroke="#595959" stroke-width="2.0" stroke-linejoin="round" stroke-linecap="butt" d="m590.4895 270.90314l0 0c0 -6.9000854 5.593628 -12.493683 12.493713 -12.493683l183.83148 0c3.3135376 0 6.491394 1.3162842 8.834412 3.6593018c2.3430176 2.3430176 3.6593018 5.5208435 3.6593018 8.834381l0 49.973267c0 6.900055 -5.593628 12.493683 -12.493713 12.493683l-183.83148 0c-6.9000854 0 -12.493713 -5.593628 -12.493713 -12.493683z" fill-rule="evenodd"/><path fill="#000000" d="m641.0809 291.96976l-2.421875 -4.171875l-1.609375 0l0 4.171875l-1.34375 0l0 -10.21875l3.296875 0q1.15625 0 1.953125 0.40625q0.8125 0.390625 1.203125 1.0625q0.390625 0.671875 0.390625 1.546875q0 1.046875 -0.609375 1.859375q-0.609375 0.796875 -1.8125 1.0625l2.5625 4.28125l-1.609375 0zm-4.03125 -5.25l1.953125 0q1.09375 0 1.625 -0.53125q0.546875 -0.53125 0.546875 -1.421875q0 -0.921875 -0.53125 -1.40625q-0.53125 -0.5 -1.640625 -0.5l-1.953125 0l0 3.859375zm11.067322 5.375q-1.125 0 -2.046875 -0.5q-0.90625 -0.515625 -1.4375 -1.453125q-0.515625 -0.953125 -0.515625 -2.203125q0 -1.234375 0.53125 -2.171875q0.546875 -0.953125 1.46875 -1.453125q0.921875 -0.5 2.0625 -0.5q1.140625 0 2.0625 0.5q0.9375 0.5 1.46875 1.4375q0.53125 0.9375 0.53125 2.1875q0 1.25 -0.546875 2.203125q-0.546875 0.9375 -1.484375 1.453125q-0.9375 0.5 -2.09375 0.5zm0 -1.171875q0.71875 0 1.34375 -0.328125q0.640625 -0.34375 1.03125 -1.015625q0.390625 -0.671875 0.390625 -1.640625q0 -0.96875 -0.390625 -1.640625q-0.375 -0.671875 -1.0 -1.0q-0.609375 -0.328125 -1.328125 -0.328125q-0.734375 0 -1.34375 0.328125q-0.609375 0.328125 -0.96875 1.0q-0.359375 0.671875 -0.359375 1.640625q0 0.984375 0.359375 1.65625q0.359375 0.671875 0.953125 1.0q0.59375 0.328125 1.3125 0.328125zm7.223755 -5.484375q0.40625 -0.71875 1.1875 -1.171875q0.796875 -0.453125 1.8125 -0.453125q1.078125 0 1.9375 0.515625q0.875 0.5 1.375 1.4375q0.5 0.921875 0.5 2.15625q0 1.21875 -0.5 2.171875q-0.5 0.953125 -1.375 1.484375q-0.875 0.515625 -1.9375 0.515625q-1.046875 0 -1.828125 -0.453125q-0.78125 -0.453125 -1.171875 -1.15625l0 1.484375l-1.34375 0l0 -10.84375l1.34375 0l0 4.3125zm5.453125 2.484375q0 -0.90625 -0.375 -1.578125q-0.359375 -0.671875 -0.984375 -1.015625q-0.625 -0.359375 -1.375 -0.359375q-0.734375 0 -1.359375 0.359375q-0.625 0.359375 -1.0 1.046875q-0.359375 0.671875 -0.359375 1.5625q0 0.90625 0.359375 1.59375q0.375 0.671875 1.0 1.03125q0.625 0.359375 1.359375 0.359375q0.75 0 1.375 -0.359375q0.625 -0.359375 0.984375 -1.03125q0.375 -0.6875 0.375 -1.609375zm6.61084 4.171875q-1.125 0 -2.046875 -0.5q-0.90625 -0.515625 -1.4375 -1.453125q-0.515625 -0.953125 -0.515625 -2.203125q0 -1.234375 0.53125 -2.171875q0.546875 -0.953125 1.46875 -1.453125q0.921875 -0.5 2.0625 -0.5q1.140625 0 2.0625 0.5q0.9375 0.5 1.46875 1.4375q0.53125 0.9375 0.53125 2.1875q0 1.25 -0.546875 2.203125q-0.546875 0.9375 -1.484375 1.453125q-0.9375 0.5 -2.09375 0.5zm0 -1.171875q0.71875 0 1.34375 -0.328125q0.640625 -0.34375 1.03125 -1.015625q0.390625 -0.671875 0.390625 -1.640625q0 -0.96875 -0.390625 -1.640625q-0.375 -0.671875 -1.0 -1.0q-0.609375 -0.328125 -1.328125 -0.328125q-0.734375 0 -1.34375 0.328125q-0.609375 0.328125 -0.96875 1.0q-0.359375 0.671875 -0.359375 1.640625q0 0.984375 0.359375 1.65625q0.359375 0.671875 0.953125 1.0q0.59375 0.328125 1.3125 0.328125zm7.505005 -5.890625l0 4.734375q0 0.59375 0.25 0.84375q0.25 0.234375 0.875 0.234375l0.96875 0l0 1.125l-1.1875 0q-1.125 0 -1.6875 -0.515625q-0.546875 -0.515625 -0.546875 -1.6875l0 -4.734375l-1.046875 0l0 -1.09375l1.046875 0l0 -2.015625l1.328125 0l0 2.015625l2.09375 0l0 1.09375l-2.09375 0zm8.966919 5.859375l3.5625 0l0 1.078125l-4.90625 0l0 -10.21875l1.34375 0l0 9.140625zm4.487732 -2.96875q0 -1.234375 0.5 -2.15625q0.5 -0.9375 1.375 -1.4375q0.875 -0.515625 1.9375 -0.515625q1.0625 0 1.828125 0.453125q0.78125 0.453125 1.171875 1.140625l0 -1.46875l1.34375 0l0 8.03125l-1.34375 0l0 -1.5q-0.40625 0.703125 -1.1875 1.171875q-0.78125 0.453125 -1.828125 0.453125q-1.0625 0 -1.9375 -0.515625q-0.859375 -0.53125 -1.359375 -1.484375q-0.5 -0.953125 -0.5 -2.171875zm6.8125 0.015625q0 -0.90625 -0.375 -1.578125q-0.359375 -0.671875 -0.984375 -1.03125q-0.625 -0.359375 -1.375 -0.359375q-0.75 0 -1.375 0.359375q-0.609375 0.34375 -0.96875 1.015625q-0.359375 0.671875 -0.359375 1.578125q0 0.921875 0.359375 1.609375q0.359375 0.671875 0.96875 1.03125q0.625 0.359375 1.375 0.359375q0.75 0 1.375 -0.359375q0.625 -0.359375 0.984375 -1.03125q0.375 -0.6875 0.375 -1.59375zm7.51709 -4.140625q1.453125 0 2.359375 0.890625q0.921875 0.875 0.921875 2.546875l0 4.734375l-1.328125 0l0 -4.546875q0 -1.203125 -0.609375 -1.828125q-0.59375 -0.640625 -1.625 -0.640625q-1.0625 0 -1.6875 0.65625q-0.609375 0.65625 -0.609375 1.921875l0 4.4375l-1.34375 0l0 -8.03125l1.34375 0l0 1.140625q0.390625 -0.609375 1.0625 -0.9375q0.6875 -0.34375 1.515625 -0.34375zm8.77063 0.015625q1.046875 0 1.828125 0.453125q0.78125 0.453125 1.171875 1.140625l0 -1.46875l1.34375 0l0 8.203125q0 1.109375 -0.46875 1.953125q-0.46875 0.859375 -1.34375 1.34375q-0.875 0.484375 -2.03125 0.484375q-1.578125 0 -2.640625 -0.75q-1.046875 -0.734375 -1.234375 -2.03125l1.3125 0q0.21875 0.734375 0.90625 1.171875q0.6875 0.453125 1.65625 0.453125q1.09375 0 1.796875 -0.6875q0.703125 -0.6875 0.703125 -1.9375l0 -1.6875q-0.40625 0.703125 -1.1875 1.171875q-0.765625 0.46875 -1.8125 0.46875q-1.0625 0 -1.9375 -0.515625q-0.875 -0.53125 -1.375 -1.484375q-0.5 -0.953125 -0.5 -2.171875q0 -1.234375 0.5 -2.15625q0.5 -0.9375 1.375 -1.4375q0.875 -0.515625 1.9375 -0.515625zm3.0 4.125q0 -0.90625 -0.375 -1.578125q-0.359375 -0.671875 -0.984375 -1.03125q-0.625 -0.359375 -1.375 -0.359375q-0.75 0 -1.375 0.359375q-0.609375 0.34375 -0.96875 1.015625q-0.359375 0.671875 -0.359375 1.578125q0 0.921875 0.359375 1.609375q0.359375 0.671875 0.96875 1.03125q0.625 0.359375 1.375 0.359375q0.75 0 1.375 -0.359375q0.625 -0.359375 0.984375 -1.03125q0.375 -0.6875 0.375 -1.59375zm10.720215 -4.0l0 8.03125l-1.328125 0l0 -1.1875q-0.390625 0.609375 -1.078125 0.96875q-0.67193604 0.34375 -1.484436 0.34375q-0.9375 0 -1.6875 -0.390625q-0.75 -0.390625 -1.1875 -1.171875q-0.421875 -0.78125 -0.421875 -1.890625l0 -4.703125l1.3125 0l0 4.53125q0 1.1875 0.59375 1.828125q0.609375 0.625 1.640625 0.625q1.078186 0 1.687561 -0.65625q0.625 -0.65625 0.625 -1.921875l0 -4.40625l1.328125 0zm1.7550049 3.984375q0 -1.234375 0.5 -2.15625q0.5 -0.9375 1.375 -1.4375q0.875 -0.515625 1.9375 -0.515625q1.0625 0 1.828125 0.453125q0.78125 0.453125 1.171875 1.140625l0 -1.46875l1.34375 0l0 8.03125l-1.34375 0l0 -1.5q-0.40625 0.703125 -1.1875 1.171875q-0.78125 0.453125 -1.828125 0.453125q-1.0625 0 -1.9375 -0.515625q-0.859375 -0.53125 -1.359375 -1.484375q-0.5 -0.953125 -0.5 -2.171875zm6.8125 0.015625q0 -0.90625 -0.375 -1.578125q-0.359375 -0.671875 -0.984375 -1.03125q-0.625 -0.359375 -1.375 -0.359375q-0.75 0 -1.375 0.359375q-0.609375 0.34375 -0.96875 1.015625q-0.359375 0.671875 -0.359375 1.578125q0 0.921875 0.359375 1.609375q0.359375 0.671875 0.96875 1.03125q0.625 0.359375 1.375 0.359375q0.75 0 1.375 -0.359375q0.625 -0.359375 0.984375 -1.03125q0.375 -0.6875 0.375 -1.59375zm6.907654 -4.125q1.046875 0 1.828125 0.453125q0.78125 0.453125 1.171875 1.140625l0 -1.46875l1.34375 0l0 8.203125q0 1.109375 -0.46875 1.953125q-0.46875 0.859375 -1.34375 1.34375q-0.875 0.484375 -2.03125 0.484375q-1.578125 0 -2.640625 -0.75q-1.046875 -0.734375 -1.234375 -2.03125l1.3125 0q0.21875 0.734375 0.90625 1.171875q0.6875 0.453125 1.65625 0.453125q1.09375 0 1.796875 -0.6875q0.703125 -0.6875 0.703125 -1.9375l0 -1.6875q-0.40625 0.703125 -1.1875 1.171875q-0.765625 0.46875 -1.8125 0.46875q-1.0625 0 -1.9375 -0.515625q-0.875 -0.53125 -1.375 -1.484375q-0.5 -0.953125 -0.5 -2.171875q0 -1.234375 0.5 -2.15625q0.5 -0.9375 1.375 -1.4375q0.875 -0.515625 1.9375 -0.515625zm3.0 4.125q0 -0.90625 -0.375 -1.578125q-0.359375 -0.671875 -0.984375 -1.03125q-0.625 -0.359375 -1.375 -0.359375q-0.75 0 -1.375 0.359375q-0.609375 0.34375 -0.96875 1.015625q-0.359375 0.671875 -0.359375 1.578125q0 0.921875 0.359375 1.609375q0.359375 0.671875 0.96875 1.03125q0.625 0.359375 1.375 0.359375q0.75 0 1.375 -0.359375q0.625 -0.359375 0.984375 -1.03125q0.375 -0.6875 0.375 -1.59375zm10.92334 -0.296875q0 0.390625 -0.046875 0.8125l-6.40625 0q0.0625 1.1875 0.796875 1.859375q0.75 0.65625 1.8125 0.65625q0.859375 0 1.4375 -0.390625q0.578125 -0.40625 0.8125 -1.09375l1.4375 0q-0.328125 1.171875 -1.296875 1.890625q-0.96875 0.71875 -2.390625 0.71875q-1.15625 0 -2.0625 -0.5q-0.890625 -0.515625 -1.40625 -1.453125q-0.515625 -0.953125 -0.515625 -2.203125q0 -1.25 0.5 -2.1875q0.5 -0.9375 1.390625 -1.4375q0.90625 -0.5 2.09375 -0.5q1.140625 0 2.015625 0.5q0.875 0.484375 1.34375 1.359375q0.484375 0.875 0.484375 1.96875zm-1.375 -0.28125q0 -0.75 -0.34375 -1.296875q-0.328125 -0.5625 -0.90625 -0.84375q-0.578125 -0.28125 -1.28125 -0.28125q-1.015625 0 -1.734375 0.640625q-0.703125 0.640625 -0.796875 1.78125l5.0625 0z" fill-rule="nonzero"/><path fill="#000000" d="m658.6604 299.751l0 10.21875l-1.34375 0l0 -10.21875l1.34375 0zm6.1835938 2.046875q1.453125 0 2.359375 0.890625q0.921875 0.875 0.921875 2.546875l0 4.734375l-1.328125 0l0 -4.546875q0 -1.203125 -0.609375 -1.828125q-0.59375 -0.640625 -1.625 -0.640625q-1.0625 0 -1.6875 0.65625q-0.609375 0.65625 -0.609375 1.921875l0 4.4375l-1.34375 0l0 -8.03125l1.34375 0l0 1.140625q0.390625 -0.609375 1.0625 -0.9375q0.6875 -0.34375 1.515625 -0.34375zm8.30188 8.296875q-0.921875 0 -1.65625 -0.3125q-0.734375 -0.3125 -1.15625 -0.875q-0.421875 -0.5625 -0.46875 -1.296875l1.375 0q0.0625 0.59375 0.5625 0.984375q0.515625 0.375 1.328125 0.375q0.765625 0 1.203125 -0.328125q0.4375 -0.34375 0.4375 -0.859375q0 -0.53125 -0.46875 -0.78125q-0.46875 -0.25 -1.453125 -0.5q-0.890625 -0.234375 -1.453125 -0.46875q-0.5625 -0.25 -0.96875 -0.71875q-0.40625 -0.484375 -0.40625 -1.265625q0 -0.609375 0.359375 -1.125q0.375 -0.515625 1.046875 -0.8125q0.6875 -0.296875 1.546875 -0.296875q1.328125 0 2.140625 0.671875q0.828125 0.671875 0.890625 1.84375l-1.328125 0q-0.046875 -0.625 -0.515625 -1.0q-0.453125 -0.390625 -1.234375 -0.390625q-0.71875 0 -1.140625 0.3125q-0.421875 0.296875 -0.421875 0.796875q0 0.390625 0.25 0.65625q0.265625 0.25 0.640625 0.40625q0.390625 0.15625 1.078125 0.34375q0.875 0.234375 1.40625 0.46875q0.546875 0.21875 0.9375 0.671875q0.390625 0.453125 0.40625 1.1875q0 0.65625 -0.375 1.1875q-0.359375 0.53125 -1.03125 0.828125q-0.65625 0.296875 -1.53125 0.296875zm6.4318237 -7.0625l0 4.734375q0 0.59375 0.25 0.84375q0.25 0.234375 0.875 0.234375l0.96875 0l0 1.125l-1.1875 0q-1.125 0 -1.6875 -0.515625q-0.546875 -0.515625 -0.546875 -1.6875l0 -4.734375l-1.046875 0l0 -1.09375l1.046875 0l0 -2.015625l1.328125 0l0 2.015625l2.09375 0l0 1.09375l-2.09375 0zm5.05365 0.203125q0.34375 -0.6875 1.0 -1.0625q0.65625 -0.375 1.59375 -0.375l0 1.375l-0.359375 0q-2.234375 0 -2.234375 2.421875l0 4.375l-1.34375 0l0 -8.03125l1.34375 0l0 1.296875zm11.248047 -1.296875l0 8.03125l-1.328125 0l0 -1.1875q-0.390625 0.609375 -1.078125 0.96875q-0.671875 0.34375 -1.484375 0.34375q-0.9375 0 -1.6875 -0.390625q-0.75 -0.390625 -1.1875 -1.171875q-0.421875 -0.78125 -0.421875 -1.890625l0 -4.703125l1.3125 0l0 4.53125q0 1.1875 0.59375 1.828125q0.609375 0.625 1.640625 0.625q1.078125 0 1.6875 -0.65625q0.625 -0.65625 0.625 -1.921875l0 -4.40625l1.328125 0zm1.7550659 4.0q0 -1.25 0.5 -2.171875q0.5 -0.9375 1.390625 -1.4375q0.890625 -0.515625 2.03125 -0.515625q1.484375 0 2.4375 0.71875q0.953125 0.703125 1.265625 1.984375l-1.4375 0q-0.203125 -0.734375 -0.796875 -1.15625q-0.59375 -0.421875 -1.46875 -0.421875q-1.140625 0 -1.84375 0.78125q-0.703125 0.78125 -0.703125 2.21875q0 1.453125 0.703125 2.25q0.703125 0.78125 1.84375 0.78125q0.875 0 1.453125 -0.40625q0.59375 -0.40625 0.8125 -1.171875l1.4375 0q-0.328125 1.234375 -1.296875 1.96875q-0.953125 0.734375 -2.40625 0.734375q-1.140625 0 -2.03125 -0.5q-0.890625 -0.515625 -1.390625 -1.453125q-0.5 -0.9375 -0.5 -2.203125zm11.021362 -2.90625l0 4.734375q0 0.59375 0.25 0.84375q0.25 0.234375 0.875 0.234375l0.96875 0l0 1.125l-1.1875 0q-1.125 0 -1.6875 -0.515625q-0.546875 -0.515625 -0.546875 -1.6875l0 -4.734375l-1.046875 0l0 -1.09375l1.046875 0l0 -2.015625l1.328125 0l0 2.015625l2.09375 0l0 1.09375l-2.09375 0zm4.3974 -2.40625q-0.375 0 -0.640625 -0.25q-0.265625 -0.265625 -0.265625 -0.65625q0 -0.375 0.265625 -0.640625q0.265625 -0.265625 0.640625 -0.265625q0.375 0 0.625 0.265625q0.265625 0.265625 0.265625 0.640625q0 0.390625 -0.265625 0.65625q-0.25 0.25 -0.625 0.25zm0.65625 1.3125l0 8.03125l-1.34375 0l0 -8.03125l1.34375 0zm5.7617188 8.15625q-1.125 0 -2.046875 -0.5q-0.90625 -0.515625 -1.4375 -1.453125q-0.515625 -0.953125 -0.515625 -2.203125q0 -1.234375 0.53125 -2.171875q0.546875 -0.953125 1.46875 -1.453125q0.921875 -0.5 2.0625 -0.5q1.140625 0 2.0625 0.5q0.9375 0.5 1.46875 1.4375q0.53125 0.9375 0.53125 2.1875q0 1.25 -0.546875 2.203125q-0.546875 0.9375 -1.484375 1.453125q-0.9375 0.5 -2.09375 0.5zm0 -1.171875q0.71875 0 1.34375 -0.328125q0.640625 -0.34375 1.03125 -1.015625q0.390625 -0.671875 0.390625 -1.640625q0 -0.96875 -0.390625 -1.640625q-0.375 -0.671875 -1.0 -1.0q-0.609375 -0.328125 -1.328125 -0.328125q-0.734375 0 -1.34375 0.328125q-0.609375 0.328125 -0.96875 1.0q-0.359375 0.671875 -0.359375 1.640625q0 0.984375 0.359375 1.65625q0.359375 0.671875 0.953125 1.0q0.59375 0.328125 1.3125 0.328125zm9.801941 -7.125q1.453125 0 2.359375 0.890625q0.921875 0.875 0.921875 2.546875l0 4.734375l-1.328125 0l0 -4.546875q0 -1.203125 -0.609375 -1.828125q-0.59375 -0.640625 -1.625 -0.640625q-1.0625 0 -1.6875 0.65625q-0.609375 0.65625 -0.609375 1.921875l0 4.4375l-1.34375 0l0 -8.03125l1.34375 0l0 1.140625q0.390625 -0.609375 1.0625 -0.9375q0.6875 -0.34375 1.515625 -0.34375z" fill-rule="nonzero"/><path fill="#000000" fill-opacity="0.0" d="m160.6916 142.47244l208.8189 0l0 42.015747l-208.8189 0z" fill-rule="evenodd"/><path fill="#000000" d="m244.3057 156.39244l0 13.0l-1.703125 0l0 -13.0l1.703125 0zm7.870682 2.59375q1.859375 0 3.015625 1.125q1.1562653 1.125 1.1562653 3.25l0 6.03125l-1.6718903 0l0 -5.78125q0 -1.53125 -0.765625 -2.34375q-0.765625 -0.8125 -2.09375 -0.8125q-1.34375 0 -2.140625 0.84375q-0.78125 0.84375 -0.78125 2.4375l0 5.65625l-1.703125 0l0 -10.21875l1.703125 0l0 1.453125q0.5 -0.78125 1.359375 -1.203125q0.875 -0.4375 1.921875 -0.4375zm8.658768 2.0625q0.5 -0.875 1.5 -1.453125q1.0 -0.59375 2.3125 -0.59375q1.375 0 2.484375 0.65625q1.109375 0.65625 1.734375 1.84375q0.640625 1.171875 0.640625 2.734375q0 1.5625 -0.640625 2.78125q-0.625 1.203125 -1.734375 1.875q-1.109375 0.671875 -2.484375 0.671875q-1.296875 0 -2.296875 -0.578125q-1.0 -0.59375 -1.515625 -1.484375l0 6.734375l-1.703125 0l0 -15.0625l1.703125 0l0 1.875zm6.9375 3.1875q0 -1.15625 -0.46875 -2.0q-0.46875 -0.859375 -1.265625 -1.3125q-0.78125 -0.453125 -1.734375 -0.453125q-0.9375 0 -1.734375 0.46875q-0.796875 0.453125 -1.265625 1.328125q-0.46875 0.859375 -0.46875 2.0q0 1.15625 0.46875 2.03125q0.46875 0.859375 1.265625 1.3125q0.796875 0.453125 1.734375 0.453125q0.953125 0 1.734375 -0.453125q0.796875 -0.453125 1.265625 -1.3125q0.46875 -0.875 0.46875 -2.0625zm13.033508 -5.0625l0 10.21875l-1.6875 0l0 -1.515625q-0.484375 0.78125 -1.359375 1.234375q-0.875 0.4375 -1.90625 0.4375q-1.203125 0 -2.15625 -0.5q-0.953125 -0.5 -1.5 -1.484375q-0.546875 -0.984375 -0.546875 -2.40625l0 -5.984375l1.671875 0l0 5.765625q0 1.5 0.765625 2.3125q0.765625 0.8125 2.09375 0.8125q1.359375 0 2.140625 -0.828125q0.796875 -0.84375 0.796875 -2.453125l0 -5.609375l1.6875 0zm4.9400024 1.390625l0 6.03125q0 0.75 0.3125 1.0625q0.328125 0.296875 1.109375 0.296875l1.25 0l0 1.4375l-1.53125 0q-1.40625 0 -2.125 -0.65625q-0.703125 -0.65625 -0.703125 -2.140625l0 -6.03125l-1.328125 0l0 -1.390625l1.328125 0l0 -2.578125l1.6875 0l0 2.578125l2.671875 0l0 1.390625l-2.671875 0z" fill-rule="nonzero"/><path fill="#000000" fill-opacity="0.0" d="m590.4895 150.50131l208.81891 0l0 42.015747l-208.81891 0z" fill-rule="evenodd"/><path fill="#000000" d="m669.85846 177.54631q-1.8125 0 -3.3125 -0.84375q-1.484375 -0.84375 -2.359375 -2.359375q-0.859375 -1.53125 -0.859375 -3.4375q0 -1.890625 0.859375 -3.40625q0.875 -1.53125 2.359375 -2.375q1.5 -0.859375 3.3125 -0.859375q1.828125 0 3.3125 0.859375q1.5 0.84375 2.359375 2.359375q0.859375 1.5 0.859375 3.421875q0 1.921875 -0.859375 3.4375q-0.859375 1.515625 -2.359375 2.359375q-1.484375 0.84375 -3.3125 0.84375zm0 -1.46875q1.359375 0 2.453125 -0.625q1.09375 -0.640625 1.71875 -1.8125q0.625 -1.1875 0.625 -2.734375q0 -1.5625 -0.625 -2.71875q-0.625 -1.171875 -1.703125 -1.796875q-1.078125 -0.640625 -2.46875 -0.640625q-1.375 0 -2.46875 0.640625q-1.078125 0.625 -1.703125 1.796875q-0.625 1.15625 -0.625 2.71875q0 1.546875 0.625 2.734375q0.625 1.171875 1.71875 1.8125q1.09375 0.625 2.453125 0.625zm17.835693 -8.875l0 10.21875l-1.6875 0l0 -1.515625q-0.484375 0.78125 -1.359375 1.234375q-0.875 0.4375 -1.90625 0.4375q-1.203125 0 -2.15625 -0.5q-0.953125 -0.5 -1.5 -1.484375q-0.546875 -0.984375 -0.546875 -2.40625l0 -5.984375l1.671875 0l0 5.765625q0 1.5 0.765625 2.3125q0.765625 0.8125 2.09375 0.8125q1.359375 0 2.140625 -0.828125q0.796875 -0.84375 0.796875 -2.453125l0 -5.609375l1.6875 0zm4.9400024 1.390625l0 6.03125q0 0.75 0.3125 1.0625q0.328125 0.296875 1.109375 0.296875l1.25 0l0 1.4375l-1.53125 0q-1.40625 0 -2.125 -0.65625q-0.703125 -0.65625 -0.703125 -2.140625l0 -6.03125l-1.328125 0l0 -1.390625l1.328125 0l0 -2.578125l1.6875 0l0 2.578125l2.671875 0l0 1.390625l-2.671875 0zm6.4315186 0.484375q0.5 -0.875 1.5 -1.453125q1.0 -0.59375 2.3125 -0.59375q1.375 0 2.484375 0.65625q1.109375 0.65625 1.734375 1.84375q0.640625 1.171875 0.640625 2.734375q0 1.5625 -0.640625 2.78125q-0.625 1.203125 -1.734375 1.875q-1.109375 0.671875 -2.484375 0.671875q-1.296875 0 -2.296875 -0.578125q-1.0 -0.59375 -1.515625 -1.484375l0 6.734375l-1.703125 0l0 -15.0625l1.703125 0l0 1.875zm6.9375 3.1875q0 -1.15625 -0.46875 -2.0q-0.46875 -0.859375 -1.265625 -1.3125q-0.78125 -0.453125 -1.734375 -0.453125q-0.9375 0 -1.734375 0.46875q-0.796875 0.453125 -1.265625 1.328125q-0.46875 0.859375 -0.46875 2.0q0 1.15625 0.46875 2.03125q0.46875 0.859375 1.265625 1.3125q0.796875 0.453125 1.734375 0.453125q0.953125 0 1.734375 -0.453125q0.796875 -0.453125 1.265625 -1.3125q0.46875 -0.875 0.46875 -2.0625zm13.033508 -5.0625l0 10.21875l-1.6875 0l0 -1.515625q-0.484375 0.78125 -1.359375 1.234375q-0.875 0.4375 -1.90625 0.4375q-1.203125 0 -2.15625 -0.5q-0.953125 -0.5 -1.5 -1.484375q-0.546875 -0.984375 -0.546875 -2.40625l0 -5.984375l1.671875 0l0 5.765625q0 1.5 0.765625 2.3125q0.765625 0.8125 2.09375 0.8125q1.359375 0 2.140625 -0.828125q0.796875 -0.84375 0.796875 -2.453125l0 -5.609375l1.6875 0zm4.9400024 1.390625l0 6.03125q0 0.75 0.3125 1.0625q0.328125 0.296875 1.109375 0.296875l1.25 0l0 1.4375l-1.53125 0q-1.40625 0 -2.125 -0.65625q-0.703125 -0.65625 -0.703125 -2.140625l0 -6.03125l-1.328125 0l0 -1.390625l1.328125 0l0 -2.578125l1.6875 0l0 2.578125l2.671875 0l0 1.390625l-2.671875 0z" fill-rule="nonzero"/><path fill="#000000" fill-opacity="0.0" d="m395.50787 265.24146l169.79529 0l0 35.559082l-169.79529 0z" fill-rule="evenodd"/><path fill="#000000" d="m450.0768 277.7446l0 1.0l-2.53125 0l0 8.296875l-1.21875 0l0 -8.296875l-2.546875 0l0 -1.0l6.296875 0zm2.6948547 3.171875q0.328125 -0.625 0.921875 -0.96875q0.59375 -0.34375 1.4375 -0.34375l0 1.25l-0.3125 0q-2.046875 0 -2.046875 2.21875l0 3.96875l-1.203125 0l0 -7.296875l1.203125 0l0 1.171875zm3.3151245 2.453125q0 -1.125 0.453125 -1.96875q0.453125 -0.84375 1.234375 -1.3125q0.796875 -0.46875 1.765625 -0.46875q0.96875 0 1.671875 0.421875q0.703125 0.40625 1.046875 1.03125l0 -1.328125l1.234375 0l0 7.296875l-1.234375 0l0 -1.359375q-0.359375 0.640625 -1.078125 1.0625q-0.703125 0.421875 -1.640625 0.421875q-0.984375 0 -1.765625 -0.484375q-0.78125 -0.484375 -1.234375 -1.34375q-0.453125 -0.875 -0.453125 -1.96875zm6.171875 0q0 -0.8125 -0.328125 -1.421875q-0.328125 -0.625 -0.90625 -0.953125q-0.5625 -0.328125 -1.234375 -0.328125q-0.6875 0 -1.25 0.328125q-0.546875 0.3125 -0.890625 0.9375q-0.328125 0.609375 -0.328125 1.4375q0 0.828125 0.328125 1.453125q0.34375 0.625 0.890625 0.953125q0.5625 0.3125 1.25 0.3125q0.671875 0 1.234375 -0.3125q0.578125 -0.328125 0.90625 -0.953125q0.328125 -0.625 0.328125 -1.453125zm6.837921 -3.765625q1.34375 0 2.171875 0.8125q0.828125 0.796875 0.828125 2.3125l0 4.3125l-1.203125 0l0 -4.125q0 -1.09375 -0.546875 -1.671875q-0.546875 -0.59375 -1.5 -0.59375q-0.953125 0 -1.53125 0.609375q-0.5625 0.59375 -0.5625 1.75l0 4.03125l-1.203125 0l0 -7.296875l1.203125 0l0 1.03125q0.359375 -0.5625 0.984375 -0.859375q0.625 -0.3125 1.359375 -0.3125zm7.5612183 7.5625q-0.84375 0 -1.515625 -0.28125q-0.65625 -0.296875 -1.046875 -0.8125q-0.375 -0.515625 -0.421875 -1.171875l1.25 0q0.0625 0.546875 0.515625 0.890625q0.46875 0.34375 1.203125 0.34375q0.703125 0 1.09375 -0.296875q0.40625 -0.3125 0.40625 -0.78125q0 -0.484375 -0.4375 -0.71875q-0.421875 -0.234375 -1.3125 -0.453125q-0.8125 -0.21875 -1.328125 -0.4375q-0.515625 -0.21875 -0.890625 -0.640625q-0.359375 -0.4375 -0.359375 -1.15625q0 -0.546875 0.328125 -1.015625q0.34375 -0.46875 0.953125 -0.734375q0.625 -0.28125 1.40625 -0.28125q1.21875 0 1.953125 0.609375q0.75 0.609375 0.796875 1.6875l-1.203125 0q-0.046875 -0.578125 -0.46875 -0.921875q-0.40625 -0.34375 -1.125 -0.34375q-0.640625 0 -1.03125 0.28125q-0.390625 0.265625 -0.390625 0.71875q0 0.359375 0.234375 0.59375q0.234375 0.234375 0.578125 0.375q0.359375 0.140625 0.984375 0.3125q0.796875 0.21875 1.28125 0.421875q0.5 0.203125 0.84375 0.625q0.359375 0.40625 0.375 1.078125q0 0.59375 -0.34375 1.078125q-0.328125 0.484375 -0.9375 0.765625q-0.609375 0.265625 -1.390625 0.265625zm5.582245 -9.984375l0 9.859375l-1.203125 0l0 -9.859375l1.203125 0zm1.622467 6.1875q0 -1.125 0.453125 -1.96875q0.453125 -0.84375 1.234375 -1.3125q0.796875 -0.46875 1.765625 -0.46875q0.96875 0 1.671875 0.421875q0.703125 0.40625 1.046875 1.03125l0 -1.328125l1.234375 0l0 7.296875l-1.234375 0l0 -1.359375q-0.359375 0.640625 -1.078125 1.0625q-0.703125 0.421875 -1.640625 0.421875q-0.984375 0 -1.765625 -0.484375q-0.78125 -0.484375 -1.234375 -1.34375q-0.453125 -0.875 -0.453125 -1.96875zm6.171875 0q0 -0.8125 -0.328125 -1.421875q-0.328125 -0.625 -0.90625 -0.953125q-0.5625 -0.328125 -1.234375 -0.328125q-0.6875 0 -1.25 0.328125q-0.546875 0.3125 -0.890625 0.9375q-0.328125 0.609375 -0.328125 1.4375q0 0.828125 0.328125 1.453125q0.34375 0.625 0.890625 0.953125q0.5625 0.3125 1.25 0.3125q0.671875 0 1.234375 -0.3125q0.578125 -0.328125 0.90625 -0.953125q0.328125 -0.625 0.328125 -1.453125zm4.7597656 -2.625l0 4.296875q0 0.53125 0.21875 0.75q0.234375 0.21875 0.796875 0.21875l0.890625 0l0 1.03125l-1.09375 0q-1.0 0 -1.515625 -0.46875q-0.5 -0.46875 -0.5 -1.53125l0 -4.296875l-0.953125 0l0 -1.0l0.953125 0l0 -1.84375l1.203125 0l0 1.84375l1.90625 0l0 1.0l-1.90625 0zm4.0076904 -2.1875q-0.34375 0 -0.59375 -0.234375q-0.234375 -0.25 -0.234375 -0.59375q0 -0.34375 0.234375 -0.578125q0.25 -0.25 0.59375 -0.25q0.328125 0 0.5625 0.25q0.234375 0.234375 0.234375 0.578125q0 0.34375 -0.234375 0.59375q-0.234375 0.234375 -0.5625 0.234375zm0.578125 1.1875l0 7.296875l-1.203125 0l0 -7.296875l1.203125 0zm5.2630615 7.421875q-1.03125 0 -1.875 -0.46875q-0.828125 -0.46875 -1.296875 -1.328125q-0.46875 -0.859375 -0.46875 -2.0q0 -1.109375 0.484375 -1.96875q0.484375 -0.859375 1.3125 -1.3125q0.84375 -0.46875 1.890625 -0.46875q1.03125 0 1.875 0.46875q0.84375 0.453125 1.328125 1.3125q0.484375 0.84375 0.484375 1.96875q0 1.140625 -0.5 2.0q-0.5 0.859375 -1.359375 1.328125q-0.84375 0.46875 -1.875 0.46875zm0 -1.078125q0.640625 0 1.21875 -0.296875q0.578125 -0.3125 0.921875 -0.921875q0.359375 -0.609375 0.359375 -1.5q0 -0.875 -0.34375 -1.484375q-0.34375 -0.609375 -0.90625 -0.90625q-0.5625 -0.3125 -1.21875 -0.3125q-0.671875 0 -1.21875 0.3125q-0.546875 0.296875 -0.890625 0.90625q-0.328125 0.609375 -0.328125 1.484375q0 0.90625 0.328125 1.515625q0.328125 0.609375 0.875 0.90625q0.546875 0.296875 1.203125 0.296875zm8.889374 -6.484375q1.34375 0 2.171875 0.8125q0.828125 0.796875 0.828125 2.3125l0 4.3125l-1.203125 0l0 -4.125q0 -1.09375 -0.546875 -1.671875q-0.546875 -0.59375 -1.5 -0.59375q-0.953125 0 -1.5312805 0.609375q-0.5625 0.59375 -0.5625 1.75l0 4.03125l-1.203125 0l0 -7.296875l1.203125 0l0 1.03125q0.359375 -0.5625 0.9844055 -0.859375q0.625 -0.3125 1.359375 -0.3125z" fill-rule="nonzero"/></g></svg>